<?xml version="1.0" encoding="utf-8"?>
<svg width="135" height="135" viewBox="0 0 135 135" fill="none" xmlns="http://www.w3.org/2000/svg">
<rect x="2.5" y="2.5" width="130" height="130" rx="7.5" fill="#D9F4F6" stroke="#CAF0F2" stroke-width="5"/>
<path d="M101.688 109.978V74.0761C101.688 70.7807 100.301 67.6588 97.8734 65.4041L84.1752 52.743H76.8927V109.804" fill="#0099A1"/>
<path d="M88.9036 57.1258L84.5687 53.1367H77.2862V77.9385H88.9036V57.1258Z" fill="#01838A"/>
<rect x="34" y="25" width="50.1736" height="85" rx="4.69444" fill="#055072"/>
<g filter="url(#filter0_d)">
<path fill-rule="evenodd" clip-rule="evenodd" d="M46.9568 28.345H40.6155C38.2668 28.345 36.3629 30.2489 36.3629 32.5976V102.206C36.3629 104.554 38.2668 106.458 40.6155 106.458H77.5616C79.9103 106.458 81.8142 104.554 81.8142 102.206V32.5976C81.8142 30.2489 79.9103 28.345 77.5616 28.345H71.9298V30.6392C71.9298 31.598 71.1525 32.3753 70.1937 32.3753H48.6929C47.7341 32.3753 46.9568 31.598 46.9568 30.6392V28.345Z" fill="#DA9A28"/>
<rect x="36.3607" y="34.6783" width="45.4054" height="65.6383" fill="#FAB417"/>
<g filter="url(#filter1_d)">
<rect x="49.3466" y="28.345" width="20.463" height="2.16435" rx="0.462957" fill="white"/>
</g>
<rect x="49.7928" y="102.72" width="20.0541" height="2.11117" rx="0.462957" fill="#055072"/>
<path d="M48.4984 50.8402L49.332 52.532C49.6654 53.2087 50.1656 53.5471 50.8325 53.7162L52.6664 54.0546L51.3327 55.408C50.8325 55.9156 50.6658 56.5923 50.8325 57.269L51.1659 59.13L49.4987 58.2841C48.9985 57.9457 48.1649 57.9457 47.6647 58.2841L45.9975 59.13L46.331 57.269C46.4977 56.5923 46.1642 55.9156 45.8308 55.408L44.497 54.0546L46.331 53.7162C46.9979 53.5471 47.498 53.2087 47.8315 52.532L48.4984 50.8402Z" fill="#E6E7E8"/>
<path d="M58.6677 50.8402L59.5013 52.532C59.8347 53.2087 60.3349 53.5471 61.0018 53.7162L62.8357 54.0546L61.502 55.408C61.0018 55.9156 60.8351 56.5923 61.0018 57.269L61.3352 59.13L59.668 58.2841C59.1678 57.9457 58.3342 57.9457 57.8341 58.2841L56.1668 59.13L56.5003 57.269C56.667 56.5923 56.3335 55.9156 56.0001 55.408L54.6663 54.0546L56.5003 53.7162C57.1672 53.5471 57.6673 53.2087 58.0008 52.532L58.6677 50.8402Z" fill="#F1F2F2"/>
<path d="M69.0053 50.8402L69.8389 52.532C70.1724 53.2087 70.6725 53.5471 71.3394 53.7162L73.1734 54.0546L71.8396 55.408C71.3394 55.9156 71.1727 56.5923 71.3394 57.269L71.6729 59.13L70.0057 58.2841C69.5055 57.9457 68.6719 57.9457 68.1717 58.2841L66.5045 59.13L66.8379 57.269C67.0046 56.5923 66.6712 55.9156 66.3378 55.408L65.004 54.0546L66.8379 53.7162C67.5048 53.5471 68.005 53.2087 68.3384 52.532L69.0053 50.8402Z" fill="#E6E7E8"/>
<path d="M53.4996 61.4982L54.3332 63.1899C54.6666 63.8667 55.1668 64.205 55.8337 64.3742L57.6676 64.7125L56.3339 66.0659C55.8337 66.5735 55.667 67.2502 55.8337 67.9269L56.1671 69.7879L54.4999 68.942C53.9997 68.6036 53.1661 68.6036 52.666 68.942L50.9987 69.7879L51.3322 67.9269C51.4989 67.2502 51.1655 66.5735 50.832 66.0659L49.4982 64.7125L51.3322 64.3742C51.9991 64.205 52.4992 63.8667 52.8327 63.1899L53.4996 61.4982Z" fill="#F1F2F2"/>
<path d="M63.8341 61.4982L64.6677 63.1899C65.0011 63.8667 65.5013 64.205 66.1682 64.3742L68.0021 64.7125L66.6683 66.0659C66.1682 66.5735 66.0015 67.2502 66.1682 67.9269L66.5016 69.7879L64.8344 68.942C64.3342 68.6036 63.5006 68.6036 63.0004 68.942L61.3332 69.7879L61.6667 67.9269C61.8334 67.2502 61.4999 66.5735 61.1665 66.0659L59.8327 64.7125L61.6667 64.3742C62.3335 64.205 62.8337 63.8667 63.1672 63.1899L63.8341 61.4982Z" fill="#E6E7E8"/>
</g>
<path d="M98.3733 92.7356C97.7137 92.7478 97.0477 92.4146 96.3817 92.0815L76.5455 72.0654C75.5369 71.0476 75.4985 68.9754 76.4687 67.9209C77.439 66.8665 79.088 66.8359 80.4264 67.8476L100.263 87.8638C101.271 88.8816 101.31 90.9537 100.339 92.0081C100.016 92.3596 99.0329 92.7234 98.3733 92.7356Z" fill="#01838A"/>
<path d="M75.1792 109.94V107.339C75.1792 100.401 77.2599 93.8106 81.0746 87.9137L70.8443 77.6807C68.4168 75.2526 68.4168 71.2635 70.8443 68.8354C71.0177 68.6619 71.1911 68.4885 71.3645 68.4885C73.9654 66.4072 77.6067 66.7541 79.8608 69.0088L101.708 90.8621V109.94H75.1792Z" fill="#00B8C2"/>
<defs>
<filter id="filter0_d" x="35.8792" y="28.345" width="46.4166" height="79.0764" filterUnits="userSpaceOnUse" color-interpolation-filters="sRGB">
<feFlood flood-opacity="0" result="BackgroundImageFix"/>
<feColorMatrix in="SourceAlpha" type="matrix" values="0 0 0 0 0 0 0 0 0 0 0 0 0 0 0 0 0 0 127 0"/>
<feOffset dy="0.481481"/>
<feGaussianBlur stdDeviation="0.240741"/>
<feColorMatrix type="matrix" values="0 0 0 0 0 0 0 0 0 0 0 0 0 0 0 0 0 0 0.25 0"/>
<feBlend mode="normal" in2="BackgroundImageFix" result="effect1_dropShadow"/>
<feBlend mode="normal" in="SourceGraphic" in2="effect1_dropShadow" result="shape"/>
</filter>
<filter id="filter1_d" x="49.1395" y="28.345" width="20.8772" height="2.85294" filterUnits="userSpaceOnUse" color-interpolation-filters="sRGB">
<feFlood flood-opacity="0" result="BackgroundImageFix"/>
<feColorMatrix in="SourceAlpha" type="matrix" values="0 0 0 0 0 0 0 0 0 0 0 0 0 0 0 0 0 0 127 0"/>
<feOffset dy="0.481481"/>
<feGaussianBlur stdDeviation="0.103553"/>
<feColorMatrix type="matrix" values="0 0 0 0 0 0 0 0 0 0 0 0 0 0 0 0 0 0 0.25 0"/>
<feBlend mode="normal" in2="BackgroundImageFix" result="effect1_dropShadow"/>
<feBlend mode="normal" in="SourceGraphic" in2="effect1_dropShadow" result="shape"/>
</filter>
</defs>
</svg>
