<svg width="21" height="13" viewBox="0 0 21 13" fill="none" xmlns="http://www.w3.org/2000/svg">
<path fill-rule="evenodd" clip-rule="evenodd" d="M20.5725 6.66609C20.6597 6.87572 20.6597 7.1121 20.5725 7.3226C20.5294 7.42698 20.4673 7.52102 20.3879 7.59952V7.60038L15.2308 12.7455C15.0626 12.9128 14.8434 12.9965 14.6234 12.9965C14.4035 12.9965 14.1835 12.9128 14.0152 12.7455C13.6797 12.4107 13.6797 11.8672 14.0152 11.5325L17.705 7.85143H0.872186C0.396844 7.85143 0.012085 7.46753 0.012085 6.99391C0.012085 6.5203 0.396844 6.13726 0.872186 6.13726H17.705L14.0152 2.45617C13.6797 2.12145 13.6797 1.57795 14.0152 1.24323C14.3508 0.908507 14.8952 0.908507 15.2308 1.24323L20.3879 6.38831C20.3879 6.38831 20.3879 6.38831 20.3879 6.38917C20.4673 6.46767 20.5294 6.56171 20.5725 6.66609Z" fill="url(#paint0_linear)"/>
<defs>
<linearGradient id="paint0_linear" x1="9.65449" y1="-4.27386" x2="16.4882" y2="14.4198" gradientUnits="userSpaceOnUse">
<stop stop-color="#F0AA22"/>
<stop offset="1" stop-color="#F05822"/>
</linearGradient>
</defs>
</svg>
