<svg width="34" height="43" viewBox="0 0 34 43" fill="none" xmlns="http://www.w3.org/2000/svg">
<path d="M0.502213 25.7389L16.9162 43L33.3303 25.7389C33.5239 25.583 33.6836 25.385 33.7986 25.1582C33.9135 24.9314 33.9811 24.6811 33.9966 24.4243C34.0121 24.1675 33.9752 23.9102 33.8884 23.6698C33.8017 23.4294 33.6671 23.2115 33.4937 23.0308C33.3204 22.8502 33.1123 22.711 32.8837 22.6228C32.655 22.5345 32.4111 22.4992 32.1684 22.5192C31.9257 22.5393 31.69 22.6142 31.4771 22.739C31.2642 22.8637 31.0791 23.0354 30.9344 23.2423L18.6154 36.1566L18.6154 1.79616C18.6154 1.31979 18.4364 0.86293 18.1177 0.526085C17.7991 0.18924 17.3669 0 16.9162 0C16.4656 0 16.0334 0.18924 15.7147 0.526085C15.3961 0.86293 15.2171 1.31979 15.2171 1.79616L15.2171 36.1566L2.89805 23.2423C2.57809 22.9064 2.14502 22.7187 1.69412 22.7204C1.24322 22.7221 0.811424 22.913 0.493713 23.2513C0.176006 23.5895 -0.0015831 24.0473 1.14441e-05 24.5239C0.00160217 25.0005 0.182251 25.457 0.502213 25.7928V25.7389Z" fill="url(#paint0_linear)"/>
<defs>
<linearGradient id="paint0_linear" x1="18.1053" y1="61.8632" x2="-18.8657" y2="15.322" gradientUnits="userSpaceOnUse">
<stop stop-color="#F0AA22"/>
<stop offset="1" stop-color="#F05822"/>
</linearGradient>
</defs>
</svg>
