<?xml version="1.0" encoding="utf-8"?>
<svg width="45" height="45" viewBox="0 0 45 45" fill="none" xmlns="http://www.w3.org/2000/svg">
<path fill-rule="evenodd" clip-rule="evenodd" d="M22.3194 0.209036C22.4855 0.0827353 22.6862 0.0102483 22.8947 0.00130035C23.1359 -0.0108716 23.3737 0.0627178 23.5658 0.209036L42.4857 14.5268C42.6105 14.6227 42.7115 14.7462 42.7808 14.8875C42.8501 15.0289 42.8858 15.1843 42.8852 15.3418V20.4553C42.8852 20.7265 42.7774 20.9866 42.5856 21.1784C42.3939 21.3702 42.1337 21.4779 41.8625 21.478H33.6809V37.8411H36.749V24.546C36.7469 24.4117 36.7713 24.2783 36.8208 24.1535C36.8702 24.0286 36.9438 23.9147 37.0373 23.8182C37.1307 23.7218 37.2423 23.6447 37.3656 23.5913C37.4889 23.538 37.6214 23.5095 37.7557 23.5074C37.8927 23.5052 38.0288 23.5306 38.1558 23.5821C38.2827 23.6335 38.3981 23.7099 38.495 23.8068C38.5919 23.9037 38.6683 24.0191 38.7197 24.146C38.7712 24.273 38.7966 24.4091 38.7944 24.546V37.8411H41.8625C42.1337 37.8411 42.3939 37.9489 42.5856 38.1407C42.7774 38.3325 42.8852 38.5926 42.8852 38.8638V43.9773C42.8852 44.2485 42.7774 44.5086 42.5856 44.7004C42.3939 44.8922 42.1337 45 41.8625 45H4.02271C3.75148 45 3.49137 44.8922 3.29958 44.7004C3.10779 44.5086 3.00004 44.2485 3.00001 43.9773V38.8638C2.99891 38.6084 3.09341 38.3618 3.26492 38.1726C3.43643 37.9833 3.67255 37.8651 3.92683 37.8411C3.95877 37.8396 3.99077 37.8396 4.02271 37.8411H7.0908V21.478H4.02271C3.75148 21.4779 3.49137 21.3702 3.29958 21.1784C3.10779 20.9866 3.00004 20.7265 3.00001 20.4553V15.3418C2.99939 15.1843 3.03512 15.0289 3.10441 14.8875C3.1737 14.7462 3.27469 14.6227 3.3995 14.5268L22.3194 0.209036ZM40.8398 15.8531L22.9426 2.31835L5.0454 15.8531V19.4326H40.8398V15.8531ZM12.2043 21.478H9.1362V37.8411H12.2043V21.478ZM19.3632 21.478H14.2497V37.8411H19.3632V21.478ZM24.4767 37.8411V21.478H21.4086V37.8411H24.4767ZM31.6355 21.478H26.5221V37.8411H31.6355V21.478ZM40.8398 42.9546V39.8865H5.0454V42.9546H40.8398Z" fill="#F9FBFD"/>
<path d="M19.8745 10.9429H20.7949V8.18164H21.7154L23.2907 10.9429H25.3971V8.18164H26.3175V10.9429H27.2379V11.8634H26.3175V12.7838H27.2379V13.7043H26.3175V16.4656H25.3971L23.8163 13.7043H21.7154V16.4656H20.7949V13.7043H19.8745V12.7838H20.7949V11.8634H19.8745V10.9429ZM21.7154 10.9429H22.2356L21.7154 10.0343V10.9429ZM21.7154 11.8634V12.7838H23.2894L22.7625 11.8634H21.7154ZM25.3971 14.635V13.7043H24.8661L25.3971 14.635ZM23.8159 11.8634L24.341 12.7838H25.3971V11.8634H23.8159Z" fill="#FDB515"/>
</svg>
