<?xml version="1.0" encoding="utf-8"?>
<svg width="52" height="45" viewBox="0 0 52 45" fill="none" xmlns="http://www.w3.org/2000/svg">
<path d="M18.5933 17.6267H20.3845V12.2529H22.1758L25.2416 17.6267H29.3408V12.2529H31.1321V17.6267H32.9233V19.418H31.1321V21.2092H32.9233V23.0005H31.1321V28.3743H29.3408L26.2645 23.0005H22.1758V28.3743H20.3845V23.0005H18.5933V21.2092H20.3845V19.418H18.5933V17.6267ZM22.1758 17.6267H23.1881L22.1758 15.8584V17.6267ZM22.1758 19.418V21.2092H25.239L24.2136 19.418H22.1758ZM29.3408 24.8117V23.0005H28.3074L29.3408 24.8117ZM26.2636 19.418L27.2855 21.2092H29.3408V19.418H26.2636Z" fill="#FDB515"/>
<path d="M50.5135 10.7471C50.2285 10.7471 49.9551 10.8603 49.7535 11.0619C49.552 11.2634 49.4387 11.5368 49.4387 11.8218V35.4664C34.3922 35.6814 27.9436 40.3566 25.7941 42.4524C23.6446 40.3566 17.1961 35.6814 2.14951 35.4664V11.8218C2.14951 11.5368 2.03628 11.2634 1.83472 11.0619C1.63317 10.8603 1.3598 10.7471 1.07476 10.7471C0.789712 10.7471 0.516344 10.8603 0.314789 11.0619C0.113233 11.2634 0 11.5368 0 11.8218L0 36.5412C0 36.8262 0.113233 37.0996 0.314789 37.3012C0.516344 37.5027 0.789712 37.616 1.07476 37.616C19.6465 37.616 24.8591 44.6126 24.9128 44.6771C24.9666 44.7416 24.9128 44.6771 24.9773 44.6771C25.0309 44.7612 25.1002 44.8342 25.1815 44.892H25.2675H25.3642C25.4985 44.9573 25.6449 44.9939 25.7941 44.9995C25.9433 44.9939 26.0897 44.9573 26.224 44.892H26.3208H26.4067C26.488 44.8342 26.5574 44.7612 26.6109 44.6771C26.6109 44.6771 26.6109 44.6771 26.6754 44.6771C26.7399 44.6771 31.7805 37.616 50.5135 37.616C50.7985 37.616 51.0719 37.5027 51.2735 37.3012C51.475 37.0996 51.5882 36.8262 51.5882 36.5412V11.8218C51.5882 11.5368 51.475 11.2634 51.2735 11.0619C51.0719 10.8603 50.7985 10.7471 50.5135 10.7471Z" fill="#FDB515"/>
<path d="M5.37383 33.3174C20.5924 33.3174 24.8591 39.2393 24.9021 39.2823C24.9995 39.4301 25.1319 39.5517 25.2875 39.636C25.4431 39.7204 25.6172 39.765 25.7942 39.7659C25.9702 39.7662 26.1436 39.7232 26.2992 39.6408C26.4547 39.5583 26.5876 39.4389 26.6862 39.2931C26.6862 39.2393 30.9852 33.3174 46.2145 33.3174C46.4996 33.3174 46.7729 33.2042 46.9745 33.0026C47.176 32.8011 47.2893 32.5277 47.2893 32.2427V1.07476C47.2893 0.789712 47.176 0.516344 46.9745 0.314788C46.7729 0.113233 46.4996 0 46.2145 0C33.3712 0 27.7395 3.38548 25.7942 4.97612C23.8489 3.38548 18.2709 0 5.37383 0C5.08878 0 4.81542 0.113233 4.61386 0.314788C4.41231 0.516344 4.29907 0.789712 4.29907 1.07476V32.2427C4.29907 32.5277 4.41231 32.8011 4.61386 33.0026C4.81542 33.2042 5.08878 33.3174 5.37383 33.3174ZM6.44858 2.14951C20.7536 2.37521 24.8806 7.0289 24.9666 7.11488C25.0656 7.24014 25.1912 7.34178 25.3343 7.41243C25.4775 7.48307 25.6346 7.52094 25.7942 7.52329C25.9529 7.52224 26.1095 7.48603 26.2526 7.41727C26.3956 7.34852 26.5217 7.24892 26.6217 7.12563C26.6217 7.12563 28.8572 4.59995 35.5637 3.15978C35.8317 3.18399 36.0808 3.30783 36.2619 3.50682C36.443 3.70581 36.5428 3.96549 36.5417 4.23454V8.59804C36.5417 8.88308 36.655 9.15645 36.8565 9.35801C37.0581 9.55956 37.3314 9.6728 37.6165 9.6728C37.9015 9.6728 38.1749 9.55956 38.3764 9.35801C38.578 9.15645 38.6912 8.88308 38.6912 8.59804V4.21304C38.6856 3.67468 38.5451 3.14631 38.2828 2.67614C40.5547 2.35263 42.8451 2.17671 45.1398 2.14951V31.1679C33.124 31.3829 27.7287 35.1875 25.7942 37.0683C23.8596 35.1982 18.4643 31.3936 6.44858 31.1679V2.14951Z" fill="#F9FBFD"/>
</svg>
