<?xml version="1.0" encoding="utf-8"?>
<svg width="39" height="25" viewBox="0 0 39 25" fill="none" xmlns="http://www.w3.org/2000/svg">
<path d="M33.4773 5.35943C33.6223 8.04465 31.8375 10.3463 29.361 11.0368C29.3275 11.0587 29.3052 11.0696 29.2829 11.0806C26.8622 11.7163 25.0773 13.8864 25.0773 16.473C25.0773 16.4949 25.055 16.5278 25.0327 16.5607C24.6869 19.3116 22.2885 21.4379 19.3992 21.4379H19.2877C16.3984 21.4379 14 19.3116 13.6542 16.5607C13.6207 16.5168 13.6096 16.4949 13.6096 16.473C13.6096 13.8974 11.8247 11.7163 9.40401 11.0806C9.3817 11.0696 9.35939 11.0587 9.32593 11.0368C6.84943 10.3463 5.06458 8.04465 5.20959 5.35943C5.35461 2.57556 7.63031 0.29586 10.4638 0.0985785C13.7881 -0.131584 16.5546 2.455 16.5546 5.66631C16.5546 5.69919 16.5546 5.74303 16.5546 5.77591C16.7108 6.97056 17.2462 8.07754 18.0717 8.93242C18.7634 9.64483 19.9124 9.64483 20.604 8.93242C21.4295 8.07754 21.9761 6.97056 22.1211 5.77591C22.1211 5.74303 22.1211 5.69919 22.1211 5.66631C22.1211 2.455 24.8877 -0.131584 28.212 0.0985785C31.0343 0.29586 33.3211 2.57556 33.4773 5.35943Z" fill="#00B8C2"/>
<path d="M32.8638 24.9342C35.9997 24.9342 38.5419 22.4365 38.5419 19.3555C38.5419 16.2745 35.9997 13.7768 32.8638 13.7768C29.7278 13.7768 27.1857 16.2745 27.1857 19.3555C27.1857 22.4365 29.7278 24.9342 32.8638 24.9342Z" fill="#FDB515"/>
<path d="M5.67808 24.989C8.814 24.989 11.3562 22.4913 11.3562 19.4103C11.3562 16.3293 8.814 13.8316 5.67808 13.8316C2.54217 13.8316 0 16.3293 0 19.4103C0 22.4913 2.54217 24.989 5.67808 24.989Z" fill="#FDB515"/>
</svg>
