<?xml version="1.0" encoding="utf-8"?>
<svg width="135" height="135" viewBox="0 0 135 135" fill="none" xmlns="http://www.w3.org/2000/svg">
<rect x="2.5" y="2.5" width="130" height="130" rx="7.5" fill="#D9F4F6" stroke="#CAF0F2" stroke-width="5"/>
<rect x="18" y="49.757" width="88.4148" height="56.6761" rx="2.06045" transform="rotate(-12.9122 18 49.757)" fill="#0099A1"/>
<rect x="24.982" y="54.9124" width="75.6005" height="7.62494" transform="rotate(-13.2447 24.982 54.9124)" fill="#F9FBFD"/>
<rect x="26.8408" y="62.8076" width="75.6005" height="0.324466" transform="rotate(-13.2447 26.8408 62.8076)" fill="#063A4F"/>
<rect x="24.8004" y="54.1219" width="75.6005" height="0.324466" transform="rotate(-13.2447 24.8004 54.1219)" fill="#063A4F"/>
<path d="M65.6992 75.6619L31.7469 83.6533L32.6761 87.6013L66.6284 79.6099L65.6992 75.6619Z" fill="#DA9A28"/>
<path d="M84.2385 63.798L30.0728 76.547L31.002 80.4949L85.1678 67.7459L84.2385 63.798Z" fill="#DA9A28"/>
<path d="M52.211 86.3364L33.4188 90.7595L34.348 94.7075L53.1402 90.2843L52.211 86.3364Z" fill="#DA9A28"/>
<rect x="29.3358" y="48.1365" width="88.4148" height="56.6761" rx="2.06045" fill="#063A4F"/>
<path d="M39.267 54.9374H36.1361V60.6773H39.267V54.9374Z" fill="#ECAB03"/>
<path d="M47.6142 54.9374H44.4834V60.6773H47.6142V54.9374Z" fill="#ECAB03"/>
<path d="M43.4399 54.9374H40.3091V60.6773H43.4399V54.9374Z" fill="#ECAB03"/>
<path d="M53.5285 54.9374H50.3977V60.6773H53.5285V54.9374Z" fill="#ECAB03"/>
<path d="M61.8775 54.9374H58.7467V60.6773H61.8775V54.9374Z" fill="#ECAB03"/>
<path d="M57.7021 54.9374H54.5713V60.6773H57.7021V54.9374Z" fill="#ECAB03"/>
<path d="M67.7922 54.9374H64.6613V60.6773H67.7922V54.9374Z" fill="#ECAB03"/>
<path d="M76.1423 54.9374H73.0114V60.6773H76.1423V54.9374Z" fill="#ECAB03"/>
<path d="M71.9668 54.9374H68.836V60.6773H71.9668V54.9374Z" fill="#ECAB03"/>
<path d="M82.0559 54.9374H78.9251V60.6773H82.0559V54.9374Z" fill="#ECAB03"/>
<path d="M90.406 54.9374H87.2751V60.6773H90.406V54.9374Z" fill="#ECAB03"/>
<path d="M86.2305 54.9374H83.0997V60.6773H86.2305V54.9374Z" fill="#ECAB03"/>
<path d="M90.4043 81.8975H36.1363V85.0283H90.4043V81.8975Z" fill="#ECAB03"/>
<path d="M68.836 88.855H36.1361V91.9858H68.836V88.855Z" fill="#ECAB03"/>
<path d="M53.5297 95.6384H36.1361V98.7693H53.5297V95.6384Z" fill="#ECAB03"/>
<rect x="97.7079" y="66.4172" width="5.76163" height="3.23024" rx="0.125264" fill="#ECAB03"/>
<rect x="104.312" y="66.4172" width="5.76163" height="3.23024" rx="0.125264" fill="#ECAB03"/>
<rect x="97.7069" y="72.2317" width="5.76163" height="3.23024" rx="0.125264" fill="#ECAB03"/>
<rect x="104.312" y="72.2317" width="5.76163" height="3.23024" rx="0.125264" fill="#ECAB03"/>
<rect x="97.7069" y="70.0781" width="5.76163" height="1.72279" rx="0.125264" fill="#ECAB03"/>
<rect x="104.312" y="70.0781" width="5.76163" height="1.72279" rx="0.125264" fill="#ECAB03"/>
<rect x="102.675" y="68.013" width="2.42833" height="5.724" rx="0.271895" fill="#114B59" stroke="#063A4F" stroke-width="0.167998"/>
</svg>
