<svg width="1440" height="3250" viewBox="0 0 1440 3250" fill="none" xmlns="http://www.w3.org/2000/svg">
<path d="M0 375H1260C1359.41 375 1440 455.589 1440 555V3070H180C80.5887 3070 0 2989.41 0 2890V375Z" fill="#063A4F"/>
<path d="M0 195C0 195 26.7807 290.527 84.5 325C165.048 373.108 360 375 360 375H0V195Z" fill="#063A4F"/>
<path d="M1440 3250C1440 3250 1413.22 3154.47 1355.5 3120C1274.95 3071.89 1080 3070 1080 3070H1440V3250Z" fill="#063A4F"/>
<path d="M88.5 289.598C4.5 240.651 -55.6667 73.072 -58 0.5L391 332.428C391 332.428 175.785 340.461 88.5 289.598Z" fill="url(#paint0_linear)"/>
<defs>
<linearGradient id="paint0_linear" x1="-52.5001" y1="404.83" x2="131.118" y2="219.766" gradientUnits="userSpaceOnUse">
<stop stop-color="#063A4F" stop-opacity="0.27"/>
<stop offset="1" stop-color="#063A4F" stop-opacity="0"/>
</linearGradient>
</defs>
</svg>
