<?xml version="1.0" encoding="utf-8"?>
<svg width="106" height="105" viewBox="0 0 106 105" fill="none" xmlns="http://www.w3.org/2000/svg">
<path d="M33.2878 57.3291L27.7399 53.1681H1.93563C1.68151 53.1683 1.42984 53.1184 1.19501 53.0213C0.960177 52.9242 0.746784 52.7818 0.567024 52.6021C0.387264 52.4225 0.244664 52.2092 0.147371 51.9745C0.0500776 51.7397 -8.06708e-08 51.4881 0 51.234V35.6858C-8.06708e-08 35.4317 0.0500776 35.1801 0.147371 34.9453C0.244664 34.7105 0.387264 34.4973 0.567024 34.3176C0.746784 34.138 0.960177 33.9956 1.19501 33.8985C1.42984 33.8014 1.68151 33.7515 1.93563 33.7517H33.2878V57.3291Z" fill="#DA9A28"/>
<path d="M93.6898 3.05447V89.2022C93.69 89.8741 93.5578 90.5395 93.3007 91.1604C93.0437 91.7812 92.6668 92.3453 92.1917 92.8205C91.7165 93.2956 91.1524 93.6725 90.5315 93.9296C89.9107 94.1866 89.2453 94.3188 88.5733 94.3186H33.166C32.4941 94.3188 31.8286 94.1866 31.2078 93.9296C30.5869 93.6725 30.0228 93.2956 29.5477 92.8205C29.0725 92.3453 28.6957 91.7812 28.4386 91.1604C28.1816 90.5395 28.0494 89.8741 28.0496 89.2022V3.05447C28.05 2.24423 28.3721 1.46732 28.9452 0.894539C29.5183 0.321759 30.2953 -1.03024e-07 31.1056 0H90.6384C91.4485 0 92.2254 0.321809 92.7982 0.894633C93.3711 1.46746 93.6929 2.24437 93.6929 3.05447" fill="#065072"/>
<path d="M28.2824 85.3354C28.2812 85.3673 28.2677 85.3975 28.2447 85.4196C28.2217 85.4417 28.191 85.4541 28.1591 85.4541C28.144 85.4537 28.1291 85.4503 28.1153 85.4441C28.1015 85.4379 28.0891 85.429 28.0788 85.4179C28.0685 85.4069 28.0604 85.3939 28.0552 85.3797C28.0499 85.3656 28.0475 85.3505 28.0481 85.3354C28.0481 85.3043 28.0605 85.2745 28.0824 85.2526C28.1044 85.2306 28.1342 85.2183 28.1653 85.2183C28.1963 85.2183 28.2261 85.2306 28.2481 85.2526C28.27 85.2745 28.2824 85.3043 28.2824 85.3354Z" fill="#065072"/>
<path d="M32.0903 85.5388H53.1433C53.208 85.5392 53.27 85.5652 53.3156 85.6111C53.3612 85.657 53.3868 85.7191 53.3868 85.7838V86.0967C53.3868 86.1613 53.3612 86.2232 53.3155 86.2689C53.2698 86.3145 53.2079 86.3402 53.1433 86.3402H32.0903C32.0256 86.3402 31.9635 86.3146 31.9176 86.269C31.8717 86.2234 31.8457 86.1614 31.8453 86.0967V85.7885C31.8453 85.7235 31.8711 85.6612 31.917 85.6152C31.963 85.5693 32.0253 85.5434 32.0903 85.5434" fill="#036A7E"/>
<path d="M32.0903 87.3481H53.1433C53.2083 87.3481 53.2706 87.374 53.3166 87.4199C53.3625 87.4659 53.3884 87.5282 53.3884 87.5932V87.9122C53.3884 87.9772 53.3625 88.0395 53.3166 88.0855C53.2706 88.1314 53.2083 88.1572 53.1433 88.1572H32.0903C32.0253 88.1572 31.963 88.1314 31.917 88.0855C31.8711 88.0395 31.8453 87.9772 31.8453 87.9122V87.5932C31.8453 87.5282 31.8711 87.4659 31.917 87.4199C31.963 87.374 32.0253 87.3481 32.0903 87.3481Z" fill="#036A7E"/>
<g opacity="0.3">
<g opacity="0.3">
<path opacity="0.3" d="M89.7801 32.4927H31.8007V36.3716H89.7801V32.4927Z" fill="#00848A"/>
</g>
</g>
<g opacity="0.5">
<g opacity="0.5">
<path opacity="0.5" d="M44.9754 32.5867H31.8467V36.3377H44.9754V32.5867Z" fill="#00848A"/>
</g>
</g>
<g opacity="0.5">
<g opacity="0.5">
<path opacity="0.5" d="M67.2474 32.5867H54.1188V36.3377H67.2474V32.5867Z" fill="#00848A"/>
</g>
</g>
<g opacity="0.5">
<g opacity="0.5">
<path opacity="0.5" d="M89.7522 32.5867H76.6235V36.3377H89.7522V32.5867Z" fill="#00848A"/>
</g>
</g>
<g opacity="0.3">
<g opacity="0.3">
<path opacity="0.3" d="M89.7799 41.4956H31.8005V45.3746H89.7799V41.4956Z" fill="#00848A"/>
</g>
</g>
<g opacity="0.5">
<g opacity="0.5">
<path opacity="0.5" d="M44.9754 41.5896H31.8467V45.3406H44.9754V41.5896Z" fill="#00848A"/>
</g>
</g>
<g opacity="0.5">
<g opacity="0.5">
<path opacity="0.5" d="M67.2474 41.5896H54.1188V45.3406H67.2474V41.5896Z" fill="#00848A"/>
</g>
</g>
<g opacity="0.5">
<g opacity="0.5">
<path opacity="0.5" d="M89.7522 41.5896H76.6235V45.3406H89.7522V41.5896Z" fill="#00848A"/>
</g>
</g>
<g opacity="0.3">
<g opacity="0.3">
<path opacity="0.3" d="M89.7801 32.4927H31.8007V36.3716H89.7801V32.4927Z" fill="#00848A"/>
</g>
</g>
<g opacity="0.5">
<g opacity="0.5">
<path opacity="0.5" d="M44.9755 32.5867H31.8469V36.3377H44.9755V32.5867Z" fill="#00848A"/>
</g>
</g>
<g opacity="0.5">
<g opacity="0.5">
<path opacity="0.5" d="M67.2476 32.5867H54.1189V36.3377H67.2476V32.5867Z" fill="#00848A"/>
</g>
</g>
<g opacity="0.5">
<g opacity="0.5">
<path opacity="0.5" d="M89.7523 32.5867H76.6237V36.3377H89.7523V32.5867Z" fill="#00848A"/>
</g>
</g>
<g opacity="0.3">
<g opacity="0.3">
<path opacity="0.3" d="M89.7801 41.4956H31.8007V45.3746H89.7801V41.4956Z" fill="#00848A"/>
</g>
</g>
<g opacity="0.5">
<g opacity="0.5">
<path opacity="0.5" d="M44.9755 41.5898H31.8469V45.3409H44.9755V41.5898Z" fill="#00848A"/>
</g>
</g>
<g opacity="0.5">
<g opacity="0.5">
<path opacity="0.5" d="M67.2476 41.5898H54.1189V45.3409H67.2476V41.5898Z" fill="#00848A"/>
</g>
</g>
<g opacity="0.5">
<g opacity="0.5">
<path opacity="0.5" d="M89.7523 41.5898H76.6237V45.3409H89.7523V41.5898Z" fill="#00848A"/>
</g>
</g>
<g opacity="0.3">
<g opacity="0.3">
<path opacity="0.3" d="M89.2284 50.7686H31.249V54.6475H89.2284V50.7686Z" fill="#00848A"/>
</g>
</g>
<g opacity="0.5">
<g opacity="0.5">
<path opacity="0.5" d="M44.4238 50.8625H31.2952V54.6136H44.4238V50.8625Z" fill="#00848A"/>
</g>
</g>
<g opacity="0.5">
<g opacity="0.5">
<path opacity="0.5" d="M66.6959 50.8625H53.5672V54.6136H66.6959V50.8625Z" fill="#00848A"/>
</g>
</g>
<g opacity="0.5">
<g opacity="0.5">
<path opacity="0.5" d="M89.2021 50.8625H76.0735V54.6136H89.2021V50.8625Z" fill="#00848A"/>
</g>
</g>
<g opacity="0.3">
<g opacity="0.3">
<path opacity="0.3" d="M89.2284 59.4634H31.249V63.3423H89.2284V59.4634Z" fill="#00848A"/>
</g>
</g>
<g opacity="0.5">
<g opacity="0.5">
<path opacity="0.5" d="M44.4238 59.5574H31.2952V63.3084H44.4238V59.5574Z" fill="#00848A"/>
</g>
</g>
<g opacity="0.5">
<g opacity="0.5">
<path opacity="0.5" d="M66.6959 59.5574H53.5672V63.3084H66.6959V59.5574Z" fill="#00848A"/>
</g>
</g>
<g opacity="0.5">
<g opacity="0.5">
<path opacity="0.5" d="M89.2021 59.5574H76.0735V63.3084H89.2021V59.5574Z" fill="#00848A"/>
</g>
</g>
<g opacity="0.3">
<g opacity="0.3">
<path opacity="0.3" d="M89.2284 68.3989H31.249V72.2779H89.2284V68.3989Z" fill="#00848A"/>
</g>
</g>
<g opacity="0.5">
<g opacity="0.5">
<path opacity="0.5" d="M44.4238 68.4927H31.2952V72.2437H44.4238V68.4927Z" fill="#00848A"/>
</g>
</g>
<g opacity="0.5">
<g opacity="0.5">
<path opacity="0.5" d="M66.6959 68.4927H53.5672V72.2437H66.6959V68.4927Z" fill="#00848A"/>
</g>
</g>
<g opacity="0.5">
<g opacity="0.5">
<path opacity="0.5" d="M89.2021 68.4927H76.0735V72.2437H89.2021V68.4927Z" fill="#00848A"/>
</g>
</g>
<g opacity="0.3">
<g opacity="0.3">
<path opacity="0.3" d="M89.2284 77.0627H31.249V80.9417H89.2284V77.0627Z" fill="#00848A"/>
</g>
</g>
<g opacity="0.5">
<g opacity="0.5">
<path opacity="0.5" d="M44.4238 77.1553H31.2952V80.9063H44.4238V77.1553Z" fill="#00848A"/>
</g>
</g>
<g opacity="0.5">
<g opacity="0.5">
<path opacity="0.5" d="M66.6959 77.1553H53.5672V80.9063H66.6959V77.1553Z" fill="#00848A"/>
</g>
</g>
<g opacity="0.5">
<g opacity="0.5">
<path opacity="0.5" d="M89.2021 77.1553H76.0735V80.9063H89.2021V77.1553Z" fill="#00848A"/>
</g>
</g>
<path d="M32.3139 55.9051L29.3858 53.7136C28.5132 53.0599 27.4524 52.7063 26.3621 52.7057H2.32091C1.78738 52.7057 1.27568 52.4939 0.898273 52.1168C0.520866 51.7397 0.308636 51.2281 0.308228 50.6946V35.3005C0.308228 34.7667 0.520276 34.2548 0.897727 33.8773C1.27518 33.4999 1.78711 33.2878 2.32091 33.2878H32.3385C32.6737 33.2878 32.9951 33.421 33.2321 33.658C33.4691 33.895 33.6022 34.2164 33.6022 34.5515V55.264C33.6022 55.4128 33.5608 55.5587 33.4825 55.6853C33.4043 55.8119 33.2924 55.9142 33.1592 55.9807C33.0261 56.0473 32.8771 56.0755 32.7289 56.0621C32.5807 56.0488 32.4391 55.9944 32.32 55.9051" fill="#F8B318"/>
<path d="M8.45137 44.5624H6.17516C6.10318 44.5627 6.03188 44.5487 5.96532 44.5213C5.89877 44.4938 5.83828 44.4536 5.78731 44.4028C5.73634 44.3519 5.69591 44.2916 5.66832 44.2251C5.64073 44.1586 5.62653 44.0873 5.62653 44.0154V42.9166C5.62653 42.771 5.68433 42.6315 5.78722 42.5286C5.8901 42.4257 6.02965 42.3679 6.17516 42.3679H8.45137C8.59688 42.3679 8.73642 42.4257 8.83931 42.5286C8.9422 42.6315 9 42.771 9 42.9166V44.0154C9 44.0873 8.9858 44.1586 8.95821 44.2251C8.93062 44.2916 8.89018 44.3519 8.83922 44.4028C8.78825 44.4536 8.72776 44.4938 8.66121 44.5213C8.59465 44.5487 8.52334 44.5627 8.45137 44.5624Z" fill="white"/>
<path d="M16.4035 44.5624H14.1335C14.0615 44.5627 13.9902 44.5487 13.9236 44.5213C13.8571 44.4938 13.7966 44.4536 13.7456 44.4028C13.6947 44.3519 13.6542 44.2916 13.6266 44.2251C13.599 44.1586 13.5848 44.0873 13.5848 44.0154V42.9166C13.5848 42.771 13.6426 42.6315 13.7455 42.5286C13.8484 42.4257 13.988 42.3679 14.1335 42.3679H16.4035C16.549 42.3679 16.6886 42.4257 16.7915 42.5286C16.8943 42.6315 16.9522 42.771 16.9522 42.9166V44.0154C16.9522 44.0873 16.9379 44.1586 16.9104 44.2251C16.8828 44.2916 16.8423 44.3519 16.7914 44.4028C16.7404 44.4536 16.6799 44.4938 16.6134 44.5213C16.5468 44.5487 16.4755 44.5627 16.4035 44.5624Z" fill="white"/>
<path d="M24.3618 44.5624H22.0917C22.0197 44.5627 21.9484 44.5487 21.8819 44.5213C21.8153 44.4938 21.7548 44.4536 21.7039 44.4028C21.6529 44.3519 21.6125 44.2916 21.5849 44.2251C21.5573 44.1586 21.5431 44.0873 21.5431 44.0154V42.9166C21.5431 42.771 21.6009 42.6315 21.7038 42.5286C21.8067 42.4257 21.9462 42.3679 22.0917 42.3679H24.3618C24.5073 42.3679 24.6468 42.4257 24.7497 42.5286C24.8526 42.6315 24.9104 42.771 24.9104 42.9166V44.0154C24.9104 44.0873 24.8962 44.1586 24.8686 44.2251C24.841 44.2916 24.8006 44.3519 24.7496 44.4028C24.6986 44.4536 24.6382 44.4938 24.5716 44.5213C24.505 44.5487 24.4337 44.5627 24.3618 44.5624Z" fill="white"/>
<path d="M104.801 60.4836V105H61.3868V46.9265H91.97L104.801 60.4836Z" fill="#00848A"/>
<path d="M105.67 61.4021V103.536H62.7229V46.23H91.3104V61.4021H105.67Z" fill="#0099A0"/>
<path d="M105.67 61.4021H91.3104V46.23L91.97 46.9266L104.801 60.4836L105.67 61.4021Z" fill="#00B7C1"/>
<path d="M68.4284 82.7356C68.3617 82.7356 68.3016 82.7123 68.2482 82.6655C68.2015 82.6121 68.1781 82.5521 68.1781 82.4853V81.2137C68.1781 81.1403 68.2015 81.0802 68.2482 81.0335C68.3016 80.9868 68.3617 80.9634 68.4284 80.9634H69.7C69.7734 80.9634 69.8335 80.9868 69.8802 81.0335C69.927 81.0802 69.9503 81.1403 69.9503 81.2137V82.4853C69.9503 82.5521 69.927 82.6121 69.8802 82.6655C69.8335 82.7123 69.7734 82.7356 69.7 82.7356H68.4284Z" fill="#024245"/>
<path d="M70.8132 82.7356C70.7531 82.7356 70.6997 82.7156 70.653 82.6755C70.6129 82.6288 70.5929 82.5788 70.5929 82.5254C70.5929 82.4786 70.6063 82.4386 70.633 82.4052L72.8157 79.1611L70.7932 76.0572C70.7731 76.0172 70.7631 75.9771 70.7631 75.9371C70.7631 75.8837 70.7832 75.837 70.8232 75.7969C70.8633 75.7502 70.9133 75.7268 70.9734 75.7268H72.4252C72.5053 75.7268 72.5721 75.7469 72.6255 75.7869C72.6789 75.827 72.7289 75.877 72.7757 75.9371L73.9672 77.7494L75.1787 75.9371C75.2654 75.7969 75.3823 75.7268 75.5291 75.7268H76.9108C76.9642 75.7268 77.011 75.7502 77.051 75.7969C77.0977 75.837 77.1211 75.8837 77.1211 75.9371C77.1211 75.9838 77.1078 76.0239 77.0811 76.0572L75.0485 79.1511L77.2513 82.4052C77.2713 82.4319 77.2813 82.472 77.2813 82.5254C77.2813 82.5788 77.2613 82.6288 77.2212 82.6755C77.1812 82.7156 77.1311 82.7356 77.071 82.7356H75.5792C75.439 82.7356 75.3222 82.6689 75.2287 82.5354L73.9071 80.613L72.5954 82.5354C72.522 82.6689 72.4085 82.7356 72.255 82.7356H70.8132Z" fill="#024245"/>
<path d="M78.3469 82.7356C78.2802 82.7356 78.2201 82.7123 78.1667 82.6655C78.12 82.6121 78.0966 82.5521 78.0966 82.4853V75.9771C78.0966 75.9037 78.12 75.8436 78.1667 75.7969C78.2201 75.7502 78.2802 75.7268 78.3469 75.7268H79.6686C79.742 75.7268 79.8021 75.7502 79.8488 75.7969C79.8955 75.8436 79.9189 75.9037 79.9189 75.9771V81.2237H82.9527C83.0261 81.2237 83.0862 81.2504 83.1329 81.3038C83.1797 81.3506 83.203 81.4106 83.203 81.4841V82.4853C83.203 82.5521 83.1797 82.6121 83.1329 82.6655C83.0862 82.7123 83.0261 82.7356 82.9527 82.7356H78.3469Z" fill="#024245"/>
<path d="M86.6842 82.8357C86.0501 82.8357 85.506 82.7423 85.0521 82.5554C84.5982 82.3685 84.2545 82.1249 84.0208 81.8245C83.7939 81.5174 83.6737 81.1837 83.6604 80.8232C83.6604 80.7698 83.6804 80.7231 83.7205 80.683C83.7672 80.6363 83.8206 80.613 83.8807 80.613H85.1423C85.2224 80.613 85.2858 80.6296 85.3325 80.663C85.3859 80.6897 85.4393 80.7331 85.4927 80.7932C85.5795 80.9667 85.7196 81.1102 85.9132 81.2237C86.1068 81.3372 86.3638 81.3939 86.6842 81.3939C87.0647 81.3939 87.355 81.3339 87.5553 81.2137C87.7555 81.0936 87.8557 80.93 87.8557 80.7231C87.8557 80.5762 87.8023 80.4561 87.6955 80.3626C87.5953 80.2692 87.4351 80.1858 87.2149 80.1123C86.9946 80.0389 86.6675 79.9555 86.2336 79.862C85.4326 79.6951 84.8319 79.4515 84.4314 79.1311C84.0375 78.804 83.8406 78.3401 83.8406 77.7394C83.8406 77.3322 83.9541 76.9684 84.181 76.648C84.408 76.3276 84.7317 76.0773 85.1523 75.897C85.5728 75.7168 86.0634 75.6267 86.6241 75.6267C87.2048 75.6267 87.7088 75.7268 88.136 75.9271C88.5632 76.1273 88.8869 76.381 89.1072 76.688C89.3342 76.9884 89.4543 77.2855 89.4677 77.5792C89.4677 77.6392 89.4477 77.6893 89.4076 77.7293C89.3676 77.7694 89.3175 77.7894 89.2574 77.7894H87.9358C87.8557 77.7894 87.7889 77.7761 87.7355 77.7494C87.6888 77.7227 87.6454 77.6793 87.6053 77.6192C87.5653 77.4657 87.4552 77.3355 87.2749 77.2287C87.1014 77.1219 86.8844 77.0685 86.6241 77.0685C86.3237 77.0685 86.0934 77.1219 85.9332 77.2287C85.773 77.3355 85.6929 77.4924 85.6929 77.6993C85.6929 77.8395 85.7363 77.9563 85.8231 78.0497C85.9166 78.1432 86.0634 78.23 86.2637 78.3101C86.4706 78.3835 86.7643 78.4603 87.1448 78.5404C87.7655 78.6538 88.2595 78.7974 88.6266 78.9709C89.0004 79.1378 89.2741 79.3581 89.4477 79.6317C89.6212 79.8987 89.708 80.2358 89.708 80.643C89.708 81.0902 89.5778 81.4807 89.3175 81.8145C89.0638 82.1415 88.7067 82.3952 88.2461 82.5754C87.7922 82.749 87.2716 82.8357 86.6842 82.8357Z" fill="#024245"/>
<path d="M68.4284 95.1924C68.3617 95.1924 68.3016 95.169 68.2482 95.1223C68.2015 95.0689 68.1781 95.0088 68.1781 94.9421V93.6705C68.1781 93.597 68.2015 93.537 68.2482 93.4902C68.3016 93.4435 68.3617 93.4202 68.4284 93.4202H69.7C69.7734 93.4202 69.8335 93.4435 69.8802 93.4902C69.927 93.537 69.9503 93.597 69.9503 93.6705V94.9421C69.9503 95.0088 69.927 95.0689 69.8802 95.1223C69.8335 95.169 69.7734 95.1924 69.7 95.1924H68.4284Z" fill="#024245"/>
<path d="M71.4046 95.1924C71.3379 95.1924 71.2778 95.169 71.2244 95.1223C71.1777 95.0689 71.1543 95.0088 71.1543 94.9421V88.4339C71.1543 88.3605 71.1777 88.3004 71.2244 88.2537C71.2778 88.207 71.3379 88.1836 71.4046 88.1836H74.2082C75.0626 88.1836 75.7334 88.3805 76.2207 88.7743C76.7146 89.1682 76.9616 89.7422 76.9616 90.4965C76.9616 91.2441 76.718 91.8081 76.2307 92.1886C75.7434 92.5624 75.0692 92.7493 74.2082 92.7493H73.0167V94.9421C73.0167 95.0155 72.99 95.0756 72.9366 95.1223C72.8898 95.169 72.8298 95.1924 72.7563 95.1924H71.4046ZM74.1581 91.3676C74.4518 91.3676 74.6821 91.2942 74.849 91.1473C75.0158 90.9938 75.0993 90.7702 75.0993 90.4765C75.0993 90.2028 75.0192 89.9859 74.859 89.8257C74.7054 89.6588 74.4718 89.5753 74.1581 89.5753H72.9866V91.3676H74.1581Z" fill="#024245"/>
<path d="M78.1709 95.1924C78.1042 95.1924 78.0441 95.169 77.9907 95.1223C77.944 95.0689 77.9206 95.0088 77.9206 94.9421V88.4339C77.9206 88.3605 77.944 88.3004 77.9907 88.2537C78.0441 88.207 78.1042 88.1836 78.1709 88.1836H80.7742C81.7554 88.1836 82.5164 88.4172 83.0571 88.8845C83.5977 89.3517 83.8814 90.0292 83.9081 90.917C83.9148 91.1106 83.9181 91.3676 83.9181 91.688C83.9181 92.0084 83.9148 92.262 83.9081 92.4489C83.8748 93.3768 83.5977 94.0676 83.0771 94.5215C82.5631 94.9688 81.8122 95.1924 80.8243 95.1924H78.1709ZM80.7742 93.7506C81.2148 93.7506 81.5385 93.6471 81.7454 93.4402C81.9523 93.2266 82.0625 92.8895 82.0758 92.4289C82.0892 92.2353 82.0959 91.985 82.0959 91.678C82.0959 91.3709 82.0892 91.1239 82.0758 90.937C82.0625 90.4898 81.9423 90.1594 81.7154 89.9458C81.4951 89.7322 81.1647 89.6254 80.7241 89.6254H79.7229V93.7506H80.7742Z" fill="#024245"/>
<path d="M85.3381 95.1924C85.2714 95.1924 85.2113 95.169 85.1579 95.1223C85.1112 95.0689 85.0878 95.0088 85.0878 94.9421V88.4339C85.0878 88.3605 85.1112 88.3004 85.1579 88.2537C85.2113 88.207 85.2714 88.1836 85.3381 88.1836H89.9439C90.0173 88.1836 90.0774 88.207 90.1241 88.2537C90.1709 88.3004 90.1942 88.3605 90.1942 88.4339V89.4452C90.1942 89.5119 90.1709 89.572 90.1241 89.6254C90.0774 89.6721 90.0173 89.6955 89.9439 89.6955H86.85V91.1673H89.7436C89.8171 91.1673 89.8771 91.194 89.9239 91.2474C89.9706 91.2942 89.994 91.3542 89.994 91.4277V92.4289C89.994 92.4957 89.9706 92.5557 89.9239 92.6091C89.8771 92.6559 89.8171 92.6792 89.7436 92.6792H86.85V94.9421C86.85 95.0155 86.8267 95.0756 86.7799 95.1223C86.7332 95.169 86.6731 95.1924 86.5997 95.1924H85.3381Z" fill="#024245"/>
<path d="M67.3063 66.2166H88.5072C88.6707 66.2166 88.8275 66.2815 88.9431 66.3971C89.0587 66.5127 89.1237 66.6695 89.1237 66.833V67.3893C89.1237 67.5528 89.0587 67.7096 88.9431 67.8252C88.8275 67.9408 88.6707 68.0058 88.5072 68.0058H67.3063C67.1428 68.0058 66.986 67.9408 66.8704 67.8252C66.7548 67.7096 66.6898 67.5528 66.6898 67.3893V66.833C66.6898 66.6695 66.7548 66.5127 66.8704 66.3971C66.986 66.2815 67.1428 66.2166 67.3063 66.2166Z" fill="#0A4649"/>
<path d="M67.3063 61.8384H79.2606C79.4241 61.8384 79.5809 61.9033 79.6965 62.0189C79.8121 62.1345 79.877 62.2913 79.877 62.4548V63.0112C79.877 63.1746 79.8121 63.3314 79.6965 63.447C79.5809 63.5627 79.4241 63.6276 79.2606 63.6276H67.3063C67.1428 63.6276 66.986 63.5627 66.8704 63.447C66.7548 63.3314 66.6898 63.1746 66.6898 63.0112V62.4548C66.6898 62.2913 66.7548 62.1345 66.8704 62.0189C66.986 61.9033 67.1428 61.8384 67.3063 61.8384Z" fill="#0B696D"/>
<path d="M54.7755 9.30199V9.85833C54.7755 10.0218 54.7105 10.1786 54.5949 10.2942C54.4793 10.4098 54.3225 10.4748 54.159 10.4748H32.411C32.2475 10.4748 32.0907 10.4098 31.9751 10.2942C31.8595 10.1786 31.7946 10.0218 31.7946 9.85833V9.30199C31.7946 9.1385 31.8595 8.9817 31.9751 8.8661C32.0907 8.75049 32.2475 8.68555 32.411 8.68555H54.1637C54.3272 8.68555 54.484 8.75049 54.5996 8.8661C54.7152 8.9817 54.7801 9.1385 54.7801 9.30199" fill="#BABABA"/>
<path d="M54.7754 8.81664V9.37298C54.7754 9.53647 54.7105 9.69326 54.5949 9.80887C54.4793 9.92447 54.3225 9.98942 54.159 9.98942H32.4109C32.2474 9.98942 32.0907 9.92447 31.975 9.80887C31.8594 9.69326 31.7945 9.53647 31.7945 9.37298V8.81664C31.7945 8.65315 31.8594 8.49635 31.975 8.38075C32.0907 8.26514 32.2474 8.2002 32.4109 8.2002H54.1636C54.3271 8.2002 54.4839 8.26514 54.5995 8.38075C54.7151 8.49635 54.7801 8.65315 54.7801 8.81664" fill="white"/>
<path d="M48.9131 13.9902V14.5466C48.9131 14.71 48.8482 14.8668 48.7326 14.9824C48.617 15.0981 48.4602 15.163 48.2967 15.163H32.411C32.2475 15.163 32.0907 15.0981 31.9751 14.9824C31.8595 14.8668 31.7946 14.71 31.7946 14.5466V13.9902C31.7946 13.8267 31.8595 13.6699 31.9751 13.5543C32.0907 13.4387 32.2475 13.3738 32.411 13.3738H48.3029C48.4663 13.3738 48.6231 13.4387 48.7387 13.5543C48.8544 13.6699 48.9193 13.8267 48.9193 13.9902" fill="#BABABA"/>
<path d="M48.9131 13.5107V14.0655C48.9131 14.229 48.8482 14.3858 48.7326 14.5014C48.617 14.617 48.4602 14.682 48.2967 14.682H32.411C32.2475 14.682 32.0907 14.617 31.9751 14.5014C31.8595 14.3858 31.7946 14.229 31.7946 14.0655V13.5107C31.7946 13.3472 31.8595 13.1904 31.9751 13.0748C32.0907 12.9592 32.2475 12.8943 32.411 12.8943H48.3029C48.4663 12.8943 48.6231 12.9592 48.7387 13.0748C48.8544 13.1904 48.9193 13.3472 48.9193 13.5107" fill="white"/>
<path d="M43.0523 18.6628V19.3163C43.0523 19.4797 42.9874 19.6365 42.8718 19.7521C42.7562 19.8678 42.5994 19.9327 42.4359 19.9327H32.411C32.2475 19.9327 32.0907 19.8678 31.9751 19.7521C31.8595 19.6365 31.7946 19.4797 31.7946 19.3163V18.6628C31.7946 18.4993 31.8595 18.3425 31.9751 18.2269C32.0907 18.1113 32.2475 18.0464 32.411 18.0464H42.442C42.6055 18.0464 42.7623 18.1113 42.8779 18.2269C42.9935 18.3425 43.0585 18.4993 43.0585 18.6628" fill="#BABABA"/>
<path d="M43.0523 18.1943V18.8477C43.0523 19.0112 42.9874 19.168 42.8718 19.2836C42.7562 19.3992 42.5994 19.4642 42.4359 19.4642H32.411C32.2475 19.4642 32.0907 19.3992 31.9751 19.2836C31.8595 19.168 31.7946 19.0112 31.7946 18.8477V18.1943C31.7946 18.0308 31.8595 17.874 31.9751 17.7584C32.0907 17.6428 32.2475 17.5779 32.411 17.5779H42.442C42.6055 17.5779 42.7623 17.6428 42.8779 17.7584C42.9935 17.874 43.0585 18.0308 43.0585 18.1943" fill="white"/>
<path d="M32.411 27.7983H44.3592C44.5227 27.7983 44.6795 27.8633 44.7951 27.9789C44.9107 28.0945 44.9756 28.2513 44.9756 28.4148V28.9711C44.9756 29.1346 44.9107 29.2914 44.7951 29.407C44.6795 29.5226 44.5227 29.5876 44.3592 29.5876H32.411C32.2475 29.5876 32.0907 29.5226 31.9751 29.407C31.8595 29.2914 31.7946 29.1346 31.7946 28.9711V28.4148C31.7946 28.2513 31.8595 28.0945 31.9751 27.9789C32.0907 27.8633 32.2475 27.7983 32.411 27.7983Z" fill="#BABABA"/>
<path d="M32.411 27.5488H44.3592C44.5227 27.5488 44.6795 27.6138 44.7951 27.7294C44.9107 27.845 44.9756 28.0018 44.9756 28.1653V28.7216C44.9756 28.8851 44.9107 29.0419 44.7951 29.1575C44.6795 29.2731 44.5227 29.3381 44.3592 29.3381H32.411C32.2475 29.3381 32.0907 29.2731 31.9751 29.1575C31.8595 29.0419 31.7946 28.8851 31.7946 28.7216V28.1653C31.7946 28.0018 31.8595 27.845 31.9751 27.7294C32.0907 27.6138 32.2475 27.5488 32.411 27.5488Z" fill="white"/>
<path d="M54.7278 27.7983H66.6806C66.8441 27.7983 67.0009 27.8633 67.1165 27.9789C67.2321 28.0945 67.297 28.2513 67.297 28.4148V28.9711C67.297 29.1346 67.2321 29.2914 67.1165 29.407C67.0009 29.5226 66.8441 29.5876 66.6806 29.5876H54.7278C54.5643 29.5876 54.4075 29.5226 54.2919 29.407C54.1763 29.2914 54.1113 29.1346 54.1113 28.9711V28.4148C54.1113 28.2513 54.1763 28.0945 54.2919 27.9789C54.4075 27.8633 54.5643 27.7983 54.7278 27.7983Z" fill="#BABABA"/>
<path d="M54.7292 27.5488H66.682C66.8455 27.5488 67.0023 27.6138 67.1179 27.7294C67.2335 27.845 67.2985 28.0018 67.2985 28.1653V28.7216C67.2985 28.8851 67.2335 29.0419 67.1179 29.1575C67.0023 29.2731 66.8455 29.3381 66.682 29.3381H54.7292C54.5657 29.3381 54.4089 29.2731 54.2933 29.1575C54.1777 29.0419 54.1128 28.8851 54.1128 28.7216V28.1653C54.1128 28.0018 54.1777 27.845 54.2933 27.7294C54.4089 27.6138 54.5657 27.5488 54.7292 27.5488Z" fill="white"/>
<path d="M77.234 27.7983H89.1868C89.3503 27.7983 89.5071 27.8633 89.6227 27.9789C89.7383 28.0945 89.8032 28.2513 89.8032 28.4148V28.9711C89.8032 29.1346 89.7383 29.2914 89.6227 29.407C89.5071 29.5226 89.3503 29.5876 89.1868 29.5876H77.234C77.0705 29.5876 76.9137 29.5226 76.7981 29.407C76.6825 29.2914 76.6176 29.1346 76.6176 28.9711V28.4148C76.6176 28.2513 76.6825 28.0945 76.7981 27.9789C76.9137 27.8633 77.0705 27.7983 77.234 27.7983Z" fill="#BABABA"/>
<path d="M77.234 27.5488H89.1868C89.3503 27.5488 89.5071 27.6138 89.6227 27.7294C89.7383 27.845 89.8032 28.0018 89.8032 28.1653V28.7216C89.8032 28.8851 89.7383 29.0419 89.6227 29.1575C89.5071 29.2731 89.3503 29.3381 89.1868 29.3381H77.234C77.0705 29.3381 76.9137 29.2731 76.7981 29.1575C76.6825 29.0419 76.6176 28.8851 76.6176 28.7216V28.1653C76.6176 28.0018 76.6825 27.845 76.7981 27.7294C76.9137 27.6138 77.0705 27.5488 77.234 27.5488Z" fill="white"/>
</svg>
