<?xml version="1.0" encoding="utf-8"?>
<svg width="94" height="105" viewBox="0 0 94 105" fill="none" xmlns="http://www.w3.org/2000/svg">
<rect x="27.1755" y="89.5386" width="39.1237" height="11.2451" fill="#055072"/>
<rect x="27.1755" y="89.5386" width="39.1237" height="3.98265" fill="#033951"/>
<path d="M13.5877 101.152C13.5877 100.948 13.7527 100.783 13.9563 100.783H79.7529C79.9564 100.783 80.1214 100.948 80.1214 101.152V104.632C80.1214 104.835 79.9564 105 79.7528 105H13.9563C13.7527 105 13.5877 104.835 13.5877 104.632V101.152Z" fill="#055072"/>
<path d="M13.5877 101.06C13.5877 100.907 13.7115 100.783 13.8641 100.783H79.845C79.9976 100.783 80.1214 100.907 80.1214 101.06V101.486H13.5877V101.06Z" fill="#033951"/>
<rect y="25.1128" width="93.4752" height="64.4252" rx="1.84278" fill="#055072"/>
<g filter="url(#filter0_d)">
<circle cx="46.8543" cy="86.7268" r="1.63992" fill="white"/>
</g>
<rect x="2.34344" y="28.3931" width="88.7897" height="55.5228" rx="1.56997" fill="#DBF5F6"/>
<path d="M2.32947 29.7204C2.32947 28.8293 3.05182 28.1069 3.94289 28.1069H89.5341C90.4251 28.1069 91.1475 28.8293 91.1475 29.7204V32.0988H2.32947V29.7204Z" fill="#033951" fill-opacity="0.15"/>
<path d="M2.3291 82.3793C2.3291 83.2703 3.05146 83.9927 3.94253 83.9927H89.5337C90.4248 83.9927 91.1471 83.2703 91.1471 82.3793V80.3335H2.3291V82.3793Z" fill="#033951" fill-opacity="0.15"/>
<rect x="18.1372" width="60.9568" height="56.3736" rx="1.30831" fill="#0F7985"/>
<rect x="20.9275" y="25.1128" width="61.3867" height="40.4594" rx="1.30831" fill="#033951" fill-opacity="0.13"/>
<rect x="18.1371" y="16.0415" width="60.9568" height="46.7488" rx="1.30831" fill="white"/>
<rect x="24.0454" y="20.9272" width="50.2255" height="5.58061" rx="0.523324" fill="#C4C4C4"/>
<rect x="24.0952" y="5.49951" width="49.4987" height="5.95818" rx="0.523324" fill="white"/>
<rect x="24.0952" y="31.166" width="23.3744" height="5.95818" rx="0.523324" fill="#C4C4C4"/>
<rect x="37.3873" y="41.249" width="23.3744" height="5.95818" rx="0.523324" fill="#C4C4C4"/>
<rect x="24.5537" y="50.415" width="49.0404" height="5.95818" rx="0.523324" fill="#ECAB03"/>
<rect x="50.2195" y="31.166" width="23.3744" height="5.95818" rx="0.523324" fill="#C4C4C4"/>
<defs>
<filter id="filter0_d" x="41.5288" y="82.1385" width="10.651" height="10.651" filterUnits="userSpaceOnUse" color-interpolation-filters="sRGB">
<feFlood flood-opacity="0" result="BackgroundImageFix"/>
<feColorMatrix in="SourceAlpha" type="matrix" values="0 0 0 0 0 0 0 0 0 0 0 0 0 0 0 0 0 0 127 0"/>
<feOffset dy="0.737114"/>
<feGaussianBlur stdDeviation="1.84278"/>
<feColorMatrix type="matrix" values="0 0 0 0 0 0 0 0 0 0 0 0 0 0 0 0 0 0 0.25 0"/>
<feBlend mode="normal" in2="BackgroundImageFix" result="effect1_dropShadow"/>
<feBlend mode="normal" in="SourceGraphic" in2="effect1_dropShadow" result="shape"/>
</filter>
</defs>
</svg>
