<?xml version="1.0" encoding="utf-8"?>
<svg width="25" height="25" viewBox="0 0 25 25" fill="none" xmlns="http://www.w3.org/2000/svg">
<path d="M21.8751 0H3.12506C1.40162 0 6.10352e-05 1.40156 6.10352e-05 3.125V21.875C6.10352e-05 23.5984 1.40162 25 3.12506 25H12.5001V16.4062H9.37506V12.5H12.5001V9.375C12.5001 6.78594 14.5985 4.6875 17.1876 4.6875H20.3126V8.59375H18.7501C17.8876 8.59375 17.1876 8.5125 17.1876 9.375V12.5H21.0938L19.5313 16.4062H17.1876V25H21.8751C23.5985 25 25.0001 23.5984 25.0001 21.875V3.125C25.0001 1.40156 23.5985 0 21.8751 0Z" fill="#063A4F"/>
</svg>
