<?xml version="1.0" encoding="utf-8"?>
<svg width="46" height="40" viewBox="0 0 46 40" fill="none" xmlns="http://www.w3.org/2000/svg">
<path d="M8.09164 37.7562C5.76852 37.7562 3.4454 37.7562 1.12228 37.7562C1.49263 38.1266 1.87421 38.5081 2.24456 38.8785C2.24456 36.3646 2.24456 33.8507 2.24456 31.3368C2.24456 27.3302 2.24456 23.3125 2.24456 19.3059C2.24456 18.3744 2.24456 17.4429 2.24456 16.5227C1.87421 16.893 1.49263 17.2746 1.12228 17.645C3.4454 17.645 5.76852 17.645 8.09164 17.645C7.72129 17.2746 7.33971 16.893 6.96936 16.5227C6.96936 19.0366 6.96936 21.5505 6.96936 24.0644C6.96936 28.0709 6.96936 32.0887 6.96936 36.0952C6.96936 37.0267 6.96936 37.9582 6.96936 38.8785C6.96936 40.3262 9.21392 40.3262 9.21392 38.8785C9.21392 36.3646 9.21392 33.8507 9.21392 31.3368C9.21392 27.3302 9.21392 23.3125 9.21392 19.3059C9.21392 18.3744 9.21392 17.4429 9.21392 16.5227C9.21392 15.9166 8.69767 15.4004 8.09164 15.4004C5.76852 15.4004 3.4454 15.4004 1.12228 15.4004C0.516249 15.4004 0 15.9166 0 16.5227C0 19.0366 0 21.5505 0 24.0644C0 28.0709 0 32.0887 0 36.0952C0 37.0267 0 37.9582 0 38.8785C0 39.4845 0.516249 40.0008 1.12228 40.0008C3.4454 40.0008 5.76852 40.0008 8.09164 40.0008C9.53938 40.0008 9.53938 37.7562 8.09164 37.7562Z" fill="#F9FBFD"/>
<path d="M44.2069 37.7464C41.8838 37.7464 39.5606 37.7464 37.2375 37.7464C37.6079 38.1168 37.9894 38.4984 38.3598 38.8687C38.3598 35.6366 38.3598 32.3932 38.3598 29.161C38.3598 23.9761 38.3598 18.8023 38.3598 13.6174C38.3598 12.4278 38.3598 11.2494 38.3598 10.0598C37.9894 10.4301 37.6079 10.8117 37.2375 11.1821C39.5606 11.1821 41.8838 11.1821 44.2069 11.1821C43.8365 10.8117 43.4549 10.4301 43.0846 10.0598C43.0846 13.2919 43.0846 16.5353 43.0846 19.7675C43.0846 24.9524 43.0846 30.1262 43.0846 35.3111C43.0846 36.5007 43.0846 37.6791 43.0846 38.8687C43.0846 40.3165 45.3292 40.3165 45.3292 38.8687C45.3292 35.6366 45.3292 32.3932 45.3292 29.161C45.3292 23.9761 45.3292 18.8023 45.3292 13.6174C45.3292 12.4278 45.3292 11.2494 45.3292 10.0598C45.3292 9.45375 44.8129 8.9375 44.2069 8.9375C41.8838 8.9375 39.5606 8.9375 37.2375 8.9375C36.6315 8.9375 36.1152 9.45375 36.1152 10.0598C36.1152 13.2919 36.1152 16.5353 36.1152 19.7675C36.1152 24.9524 36.1152 30.1262 36.1152 35.3111C36.1152 36.5007 36.1152 37.6791 36.1152 38.8687C36.1152 39.4748 36.6315 39.991 37.2375 39.991C39.5606 39.991 41.8838 39.991 44.2069 39.991C45.6546 39.991 45.6546 37.7464 44.2069 37.7464Z" fill="#F9FBFD"/>
<path d="M32.1534 37.7423C29.8303 37.7423 27.5072 37.7423 25.184 37.7423C25.5544 38.1126 25.936 38.4942 26.3063 38.8646C26.3063 34.6111 26.3063 30.3689 26.3063 26.1155C26.3063 19.3369 26.3063 12.5695 26.3063 5.79097C26.3063 4.231 26.3063 2.68225 26.3063 1.12228C25.936 1.49263 25.5544 1.87421 25.184 2.24456C27.5072 2.24456 29.8303 2.24456 32.1534 2.24456C31.7831 1.87421 31.4015 1.49263 31.0311 1.12228C31.0311 5.37572 31.0311 9.61794 31.0311 13.8714C31.0311 20.65 31.0311 27.4173 31.0311 34.1959C31.0311 35.7559 31.0311 37.3046 31.0311 38.8646C31.0311 40.3123 33.2757 40.3123 33.2757 38.8646C33.2757 34.6111 33.2757 30.3689 33.2757 26.1155C33.2757 19.3369 33.2757 12.5695 33.2757 5.79097C33.2757 4.231 33.2757 2.68225 33.2757 1.12228C33.2757 0.516249 32.7594 0 32.1534 0C29.8303 0 27.5072 0 25.184 0C24.578 0 24.0618 0.516249 24.0618 1.12228C24.0618 5.37572 24.0618 9.61794 24.0618 13.8714C24.0618 20.65 24.0618 27.4173 24.0618 34.1959C24.0618 35.7559 24.0618 37.3046 24.0618 38.8646C24.0618 39.4706 24.578 39.9869 25.184 39.9869C27.5072 39.9869 29.8303 39.9869 32.1534 39.9869C33.6012 39.9869 33.6012 37.7423 32.1534 37.7423Z" fill="#FDB515"/>
<path d="M20.1226 37.7528C17.7995 37.7528 15.4764 37.7528 13.1533 37.7528C13.5236 38.1231 13.9052 38.5047 14.2756 38.875C14.2756 36.5968 14.2756 34.3186 14.2756 32.0404C14.2756 28.4042 14.2756 24.768 14.2756 21.1318C14.2756 20.2901 14.2756 19.4484 14.2756 18.6067C13.9052 18.977 13.5236 19.3586 13.1533 19.7289C15.4764 19.7289 17.7995 19.7289 20.1226 19.7289C19.7523 19.3586 19.3707 18.977 19.0004 18.6067C19.0004 20.8849 19.0004 23.1631 19.0004 25.4413C19.0004 29.0775 19.0004 32.7137 19.0004 36.3499C19.0004 37.1916 19.0004 38.0333 19.0004 38.875C19.0004 40.3228 21.2449 40.3228 21.2449 38.875C21.2449 36.5968 21.2449 34.3186 21.2449 32.0404C21.2449 28.4042 21.2449 24.768 21.2449 21.1318C21.2449 20.2901 21.2449 19.4484 21.2449 18.6067C21.2449 18.0006 20.7287 17.4844 20.1226 17.4844C17.7995 17.4844 15.4764 17.4844 13.1533 17.4844C12.5473 17.4844 12.031 18.0006 12.031 18.6067C12.031 20.8849 12.031 23.1631 12.031 25.4413C12.031 29.0775 12.031 32.7137 12.031 36.3499C12.031 37.1916 12.031 38.0333 12.031 38.875C12.031 39.4811 12.5473 39.9973 13.1533 39.9973C15.4764 39.9973 17.7995 39.9973 20.1226 39.9973C21.5704 39.9973 21.5704 37.7528 20.1226 37.7528Z" fill="#F9FBFD"/>
</svg>
