<svg width="824" height="653" viewBox="0 0 824 653" fill="none" xmlns="http://www.w3.org/2000/svg">
<g opacity="0.7" filter="url(#filter0_f)">
<rect x="100" y="337" width="624" height="216" rx="10" fill="#063A4F"/>
</g>
<rect x="71" width="682" height="538" rx="10" fill="#063A4F"/>
<mask id="mask0" mask-type="alpha" maskUnits="userSpaceOnUse" x="71" y="0" width="682" height="538">
<rect x="71" width="682" height="538" rx="10" fill="#00B8C2"/>
</mask>
<g mask="url(#mask0)">
<path d="M200.641 633.735C168.277 644.295 134.323 630.157 117.82 602.339C117.443 602.004 117.236 601.769 117.029 601.534C101.377 574.214 69.0316 559.645 37.4018 568.12C37.1337 568.192 36.6591 568.029 36.1844 567.866C1.41873 572.679 -32.3879 550.514 -41.7913 515.42L-42.1544 514.065C-51.5577 478.971 -33.3629 442.872 -0.848249 429.658C-0.421074 429.108 -0.189326 428.9 0.0787154 428.829C31.5745 420.389 52.4363 391.563 52.3312 360.077C52.3926 359.771 52.454 359.464 52.6132 358.985C52.9967 326.642 75.3327 297.421 108.641 290.384C143.155 283.024 178.439 303.196 190.073 336.966C203.707 376.59 181.081 418.669 141.812 429.191C141.41 429.299 140.874 429.442 140.471 429.55C126.371 435.362 114.577 445.492 106.81 458.32C100.35 469.056 104.089 483.012 115.052 489.078C128.192 496.304 143.508 499.316 158.588 497.164C158.99 497.056 159.527 496.912 159.929 496.804C199.198 486.282 239.832 511.41 247.836 552.543C254.61 587.47 234.175 622.717 200.641 633.735Z" fill="url(#paint0_linear)"/>
<path d="M592.349 27.2992C599.207 9.51729 617.348 -0.223044 635.258 2.44803C635.537 2.40272 635.712 2.39614 635.887 2.38955C653.28 5.25427 671.04 -3.63557 678.544 -20.3618C678.607 -20.5035 678.846 -20.6518 679.084 -20.8002C689.286 -37.593 710.86 -44.4314 729.418 -36.1059L730.135 -35.7845C748.693 -27.459 757.93 -6.79839 752.17 11.9874C752.258 12.3673 752.266 12.5412 752.203 12.683C744.731 29.3383 749.868 48.5853 763.572 59.6714C763.684 59.8065 763.795 59.9417 763.947 60.1799C777.851 71.781 782.638 91.8077 773.917 108.754C764.909 126.338 743.679 134.522 724.907 127.633C702.886 119.542 692.62 94.8442 701.936 74.0782C702.032 73.8656 702.159 73.5821 702.254 73.3695C704.717 65.1942 704.489 56.4931 701.666 48.5862C699.291 41.9864 691.91 38.6755 685.401 41.2894C677.619 44.4388 670.897 50.0219 666.499 57.3293C666.404 57.5419 666.277 57.8254 666.181 58.038C656.865 78.804 631.592 87.5584 610.907 76.4909C593.351 67.0826 585.276 45.7512 592.349 27.2992Z" fill="url(#paint1_linear)"/>
</g>
<defs>
<filter id="filter0_f" x="0" y="237" width="824" height="416" filterUnits="userSpaceOnUse" color-interpolation-filters="sRGB">
<feFlood flood-opacity="0" result="BackgroundImageFix"/>
<feBlend mode="normal" in="SourceGraphic" in2="BackgroundImageFix" result="shape"/>
<feGaussianBlur stdDeviation="50" result="effect1_foregroundBlur"/>
</filter>
<linearGradient id="paint0_linear" x1="330.703" y1="402.914" x2="3.31663" y2="682.724" gradientUnits="userSpaceOnUse">
<stop stop-color="#F0AA22"/>
<stop offset="1" stop-color="#F05822"/>
</linearGradient>
<linearGradient id="paint1_linear" x1="646.561" y1="165.362" x2="640.847" y2="-75.6752" gradientUnits="userSpaceOnUse">
<stop stop-color="#F0AA22"/>
<stop offset="1" stop-color="#F05822"/>
</linearGradient>
</defs>
</svg>
