<svg width="461" height="302" viewBox="0 0 461 302" fill="none" xmlns="http://www.w3.org/2000/svg">
<mask id="mask0" mask-type="alpha" maskUnits="userSpaceOnUse" x="0" y="0" width="447" height="274">
<rect width="447" height="274" rx="10" fill="white"/>
<rect x="0.5" y="0.5" width="446" height="273" rx="9.5" stroke="#063A4F" stroke-opacity="0.15"/>
</mask>
<g mask="url(#mask0)">
<path opacity="0.1" d="M535.095 301.9C503.305 312.273 469.953 298.385 453.742 271.06C453.372 270.732 453.169 270.501 452.966 270.27C437.592 243.434 405.819 229.124 374.751 237.448C374.487 237.519 374.021 237.359 373.555 237.198C339.406 241.926 306.199 220.154 296.962 185.683L296.605 184.352C287.369 149.88 305.241 114.422 337.179 101.442C337.598 100.901 337.826 100.698 338.089 100.627C369.027 92.3374 389.518 64.0225 389.415 33.095C389.476 32.7936 389.536 32.4921 389.692 32.0223C390.069 0.252893 412.009 -28.45 444.726 -35.3621C478.628 -42.5917 513.286 -22.7775 524.714 10.3936C538.106 49.315 515.882 90.6474 477.309 100.983C476.914 101.089 476.387 101.23 475.992 101.336C462.142 107.044 450.558 116.995 442.928 129.596C436.582 140.14 440.255 153.849 451.023 159.808C463.931 166.906 478.975 169.865 493.788 167.75C494.183 167.644 494.71 167.503 495.105 167.397C533.677 157.062 573.591 181.744 581.453 222.147C588.106 256.455 568.035 291.077 535.095 301.9Z" fill="#063A4F"/>
<g opacity="0.5">
<g opacity="0.4">
<path d="M404.095 139.452C404.408 145.282 400.554 150.279 395.207 151.778C395.134 151.825 395.086 151.849 395.038 151.873C389.811 153.253 385.957 157.964 385.957 163.58C385.957 163.627 385.909 163.699 385.86 163.77C385.114 169.742 379.935 174.358 373.696 174.358H373.455C367.216 174.358 362.037 169.742 361.29 163.77C361.218 163.675 361.194 163.627 361.194 163.58C361.194 157.988 357.34 153.253 352.113 151.873C352.064 151.849 352.016 151.825 351.944 151.778C346.596 150.279 342.742 145.282 343.055 139.452C343.369 133.408 348.283 128.459 354.401 128.031C361.579 127.531 367.553 133.147 367.553 140.118C367.553 140.19 367.553 140.285 367.553 140.356C367.89 142.95 369.047 145.353 370.829 147.209C372.323 148.756 374.804 148.756 376.297 147.209C378.08 145.353 379.26 142.95 379.573 140.356C379.573 140.285 379.573 140.19 379.573 140.118C379.573 133.147 385.547 127.531 392.726 128.031C398.82 128.459 403.758 133.408 404.095 139.452Z" fill="#063A4F"/>
<path d="M402.642 181.717C409.55 181.717 415.151 176.281 415.151 169.575C415.151 162.87 409.55 157.434 402.642 157.434C395.733 157.434 390.132 162.87 390.132 169.575C390.132 176.281 395.733 181.717 402.642 181.717Z" fill="#063A4F"/>
<path d="M344.142 181.717C350.847 181.717 356.283 176.281 356.283 169.575C356.283 162.87 350.847 157.434 344.142 157.434C337.436 157.434 332 162.87 332 169.575C332 176.281 337.436 181.717 344.142 181.717Z" fill="#063A4F"/>
</g>
<g opacity="0.4">
<path d="M345.694 202.298H342.722C342.55 202.298 342.41 202.161 342.41 201.992C342.41 201.984 342.41 201.976 342.41 201.959C342.41 200.088 342.41 198.225 342.402 196.354C342.394 195.556 341.975 194.975 341.294 194.79C340.284 194.516 339.414 195.072 339.275 196.088C339.242 196.33 339.225 196.572 339.225 196.814C339.217 198.516 339.225 200.217 339.225 201.919V201.976C339.225 202.145 339.086 202.282 338.913 202.282H335.991C335.819 202.282 335.679 202.145 335.679 201.976V192.128C335.679 191.959 335.819 191.822 335.991 191.822H338.544C338.716 191.822 338.856 191.959 338.856 192.128C338.856 192.386 339.151 192.523 339.365 192.37C340.145 191.773 341.039 191.564 342.016 191.572C343.116 191.572 344.077 191.87 344.815 192.685C344.939 192.822 345.152 192.814 345.275 192.685C345.858 192.096 346.58 191.781 347.409 191.66C348.92 191.435 350.34 191.58 351.514 192.669C352.252 193.354 352.671 194.225 352.737 195.201C352.819 196.387 352.802 197.58 352.811 198.766C352.819 199.83 352.811 200.903 352.811 201.984C352.811 202.153 352.671 202.29 352.499 202.29H349.527C349.355 202.29 349.215 202.153 349.215 201.984C349.215 201.976 349.215 201.968 349.215 201.959C349.215 200.08 349.24 198.201 349.199 196.33C349.15 194.975 348.082 194.532 347.032 194.83C346.392 195.016 346.014 195.645 346.006 196.499C345.997 198.322 346.006 200.137 346.006 201.959C346.006 201.976 346.006 201.984 346.006 202C346.006 202.161 345.866 202.298 345.694 202.298Z" fill="#063A4F"/>
<path d="M364.393 193.322C363.178 191.983 361.594 191.459 359.805 191.459C359.599 191.459 359.394 191.451 359.181 191.459C359.033 191.467 358.885 191.491 358.746 191.515C357.145 191.773 355.791 192.451 354.863 193.79C353.952 195.104 353.706 196.58 353.985 198.137C354.256 199.629 355.011 200.838 356.316 201.685C357.572 202.5 358.967 202.758 360.453 202.637C361.66 202.532 362.768 202.145 363.728 201.395C364.976 200.419 365.608 199.104 365.748 197.572C365.879 195.983 365.485 194.532 364.393 193.322ZM359.821 199.58C358.368 199.58 357.375 198.548 357.375 197.04C357.375 195.548 358.36 194.532 359.821 194.532C361.282 194.532 362.275 195.556 362.275 197.04C362.275 198.54 361.274 199.572 359.821 199.58Z" fill="#063A4F"/>
<path d="M377.346 202.298H374.243C374.112 202.298 374.014 202.193 374.014 202.072V201.959C374.014 200.225 374.022 198.491 374.005 196.766C374.005 196.467 373.973 196.161 373.899 195.878C373.677 195.048 372.996 194.644 371.986 194.709C371.198 194.757 370.591 195.306 370.484 196.096C370.451 196.338 370.435 196.58 370.435 196.822C370.426 198.524 370.435 200.225 370.435 201.927V202.064C370.435 202.193 370.328 202.29 370.205 202.29H367.118C366.987 202.29 366.888 202.185 366.888 202.064V192.056C366.888 191.927 366.995 191.83 367.118 191.83H370.024C370.155 191.83 370.254 191.935 370.254 192.056V192.201C370.254 192.394 370.492 192.499 370.64 192.37C370.73 192.29 370.829 192.217 370.927 192.152C373.373 190.539 376.878 191.959 377.453 194.798C377.535 195.217 377.584 195.661 377.584 196.088C377.601 198.08 377.593 200.072 377.593 202.064C377.584 202.201 377.478 202.298 377.346 202.298Z" fill="#063A4F"/>
<path d="M382.025 202.298H378.923C378.799 202.298 378.701 202.201 378.701 202.08V192.04C378.701 191.919 378.799 191.822 378.923 191.822H381.845C381.968 191.822 382.066 191.919 382.066 192.04V192.217C382.066 192.402 382.296 192.507 382.436 192.386C382.534 192.306 382.633 192.225 382.731 192.161C385.178 190.548 388.683 191.967 389.257 194.806C389.339 195.225 389.389 195.669 389.389 196.096C389.405 198.088 389.397 200.08 389.397 202.072C389.397 202.193 389.29 202.29 389.175 202.29H386.056C385.933 202.29 385.834 202.193 385.834 202.072C385.834 202.04 385.834 202 385.834 201.968C385.834 200.234 385.842 198.5 385.826 196.774C385.826 196.475 385.793 196.169 385.719 195.887C385.498 195.056 384.816 194.653 383.807 194.717C383.019 194.765 382.411 195.314 382.305 196.104C382.272 196.346 382.255 196.588 382.255 196.83C382.247 198.532 382.255 200.234 382.255 201.935V202.088C382.247 202.193 382.149 202.298 382.025 202.298Z" fill="#063A4F"/>
<path d="M412.677 191.806C412.636 191.919 412.611 192.007 412.578 192.088C410.682 196.725 408.777 201.355 406.881 206H403.253C403.688 204.879 404.123 203.766 404.566 202.653C404.648 202.459 404.64 202.298 404.558 202.113C403.466 199.669 402.375 197.225 401.283 194.782H400.643C400.503 194.782 400.388 194.895 400.388 195.032V202.032C400.388 202.169 400.273 202.282 400.134 202.282H397.047C396.908 202.282 396.793 202.169 396.793 202.032V195.04C396.793 194.903 396.678 194.79 396.538 194.79H395.422C395.282 194.79 395.167 194.677 395.167 194.54V192.056C395.167 191.919 395.282 191.806 395.422 191.806H396.776C396.776 191.83 396.776 191.838 396.785 191.806V191.781C396.785 191.749 396.793 191.709 396.793 191.644C396.826 191.16 396.867 190.652 397.014 190.193C397.449 188.846 398.484 188.144 399.83 187.83C400.61 187.644 402.055 187.628 402.843 187.765C402.9 187.773 403.048 187.789 403.187 187.805C403.319 187.822 403.417 187.926 403.417 188.055V190.362C403.417 190.499 403.302 190.612 403.163 190.612C402.687 190.612 401.833 190.612 401.587 190.612C400.831 190.612 400.421 190.999 400.396 191.717C400.396 191.709 400.396 191.701 400.396 191.693C400.396 191.394 400.396 191.652 400.396 191.814C400.396 191.91 400.396 191.967 400.396 191.814C401.472 191.814 402.522 191.814 403.573 191.822C403.606 191.822 403.639 191.822 403.663 191.822H403.713C403.787 191.822 403.893 191.943 403.926 192.031C404.714 193.894 405.494 195.757 406.282 197.62C406.323 197.725 406.372 197.83 406.438 197.983C406.775 197.145 407.095 196.354 407.407 195.556C407.866 194.394 408.334 193.241 408.777 192.08C408.86 191.87 408.958 191.814 409.188 191.814C410.329 191.814 411.478 191.806 412.677 191.806Z" fill="#063A4F"/>
<path d="M396.785 191.773C396.785 191.781 396.785 191.79 396.785 191.798H396.776C396.768 191.709 396.785 191.427 396.785 191.773Z" fill="#063A4F"/>
<path d="M403.565 191.814C402.514 191.806 401.464 191.806 400.388 191.806C400.388 191.959 400.388 191.902 400.388 191.806C400.388 191.652 400.388 191.394 400.388 191.685C400.388 191.693 400.388 191.701 400.388 191.709C400.388 191.733 400.396 191.757 400.405 191.798H403.483C403.507 191.798 403.54 191.806 403.565 191.814Z" fill="#063A4F"/>
<path d="M394.051 192.096V202.016C394.051 202.169 393.928 202.29 393.772 202.29H390.801C390.645 202.29 390.521 202.169 390.521 202.016V192.096C390.521 191.943 390.645 191.822 390.801 191.822H393.772C393.928 191.822 394.051 191.943 394.051 192.096Z" fill="#063A4F"/>
<path d="M392.352 191.039C393.318 191.039 394.101 190.27 394.101 189.322C394.101 188.373 393.318 187.604 392.352 187.604C391.387 187.604 390.604 188.373 390.604 189.322C390.604 190.27 391.387 191.039 392.352 191.039Z" fill="#063A4F"/>
</g>
</g>
</g>
</svg>
