<?xml version="1.0" encoding="utf-8"?>
<svg width="45" height="45" viewBox="0 0 45 45" fill="none" xmlns="http://www.w3.org/2000/svg">
<path d="M35.1734 40.9999C37.2797 37.7394 41.7422 29.1741 38.8119 18.6615C36.2424 9.45 29.8479 5.868 26.2659 4.5495C22.3059 3.0915 19.1064 1.782 16.1904 0.4185L15.2949 0L13.6749 1.5075L16.0194 8.1945L3.81089 19.521L9.10739 25.236L14.9124 21.2355L20.0083 21.7804V23.6077L9.49878 34.3631V40.9999H0V45H2.25V43.2499H42.75V45H45V40.9999H35.1734ZM32.4264 40.9999H11.7488V35.2798L22.2583 24.5244V15.9533H20.0083V19.5181L14.3229 18.909L9.4359 22.2795L6.9879 19.638L18.6294 8.8425L16.6089 3.087C19.2144 4.2525 22.0764 5.4045 25.4874 6.66C28.6689 7.83 34.3434 11.0205 36.6429 19.269C39.9819 31.239 32.5929 40.7835 32.4264 40.9995L32.4264 40.9999Z" fill="#F9FBFD"/>
<path d="M30.4111 12.9592L28.6581 14.3699C30.4454 16.8103 31.6807 19.6103 32.2783 22.5756C32.8417 25.4791 32.5305 28.8242 31.3273 32.8019L33.4806 33.4536C34.7928 29.1169 35.122 25.4184 34.487 22.1469C33.8294 18.819 32.4368 15.6801 30.4111 12.9592Z" fill="#FDB515"/>
</svg>
