<?xml version="1.0" encoding="utf-8"?>
<svg width="45" height="45" viewBox="0 0 45 45" fill="none" xmlns="http://www.w3.org/2000/svg">
<path fill-rule="evenodd" clip-rule="evenodd" d="M0.284165 5.35681C0.468139 5.15377 0.721408 5.02692 0.994165 5.00121C1.02843 4.9996 1.06275 4.9996 1.09701 5.00121H36.201C36.4919 5.00123 36.7709 5.11683 36.9766 5.32259C37.1823 5.52834 37.2979 5.8074 37.2979 6.09838V21.4588C37.3 21.6042 37.2731 21.7485 37.2189 21.8834C37.1647 22.0184 37.0843 22.1412 36.9822 22.2447C36.8801 22.3482 36.7585 22.4305 36.6244 22.4866C36.4903 22.5427 36.3463 22.5716 36.201 22.5716C36.0556 22.5716 35.9116 22.5427 35.7775 22.4866C35.6434 22.4305 35.5218 22.3482 35.4197 22.2447C35.3176 22.1412 35.2372 22.0184 35.183 21.8834C35.1288 21.7485 35.1019 21.6042 35.104 21.4588V13.7786H2.19401V29.139H27.425C27.5703 29.137 27.7145 29.1639 27.8493 29.2182C27.9841 29.2725 28.1068 29.353 28.2102 29.4551C28.3137 29.5571 28.3958 29.6788 28.4519 29.8128C28.5079 29.9469 28.5368 30.0908 28.5368 30.2362C28.5368 30.3815 28.5079 30.5254 28.4519 30.6595C28.3958 30.7935 28.3137 30.9152 28.2102 31.0172C28.1068 31.1193 27.9841 31.1998 27.8493 31.2541C27.7145 31.3083 27.5703 31.3353 27.425 31.3333H1.09701C0.806068 31.3333 0.527054 31.2177 0.321332 31.0119C0.115611 30.8062 2.91903e-05 30.5271 1.02092e-05 30.2361V6.09838C-0.00117104 5.82437 0.100192 5.55984 0.284165 5.35681ZM35.104 7.19555H2.19401V11.5843H35.104V7.19555Z" fill="#F9FBFD"/>
<path fill-rule="evenodd" clip-rule="evenodd" d="M3.291 24.2017C3.291 22.0939 5.02299 20.3616 7.1305 20.3616C7.7319 20.3616 8.27523 20.5431 8.776 20.7902C9.27676 20.5431 9.8201 20.3616 10.4215 20.3616C12.529 20.3616 14.261 22.0939 14.261 24.2017C14.261 26.3096 12.529 28.0418 10.4215 28.0418C9.82196 28.0418 9.27564 27.8589 8.776 27.6132C8.27635 27.8589 7.73004 28.0418 7.1305 28.0418C5.02299 28.0418 3.291 26.3096 3.291 24.2017ZM8.10751 22.8988C7.81636 22.6771 7.50256 22.5559 7.1305 22.5559C6.20873 22.5559 5.485 23.2798 5.485 24.2017C5.485 25.1236 6.20873 25.8475 7.1305 25.8475C7.50256 25.8475 7.81638 25.7263 8.10751 25.5046C8.29922 25.3572 8.53422 25.2774 8.776 25.2774C9.01777 25.2774 9.25277 25.3572 9.44448 25.5046C9.73561 25.7263 10.0494 25.8475 10.4215 25.8475C11.3433 25.8475 12.067 25.1236 12.067 24.2017C12.067 23.2798 11.3433 22.5559 10.4215 22.5559C10.0494 22.5559 9.73564 22.6771 9.44448 22.8988C9.25277 23.0461 9.01777 23.126 8.776 23.126C8.53422 23.126 8.29922 23.0461 8.10751 22.8988Z" fill="#F9FBFD"/>
<path fill-rule="evenodd" clip-rule="evenodd" d="M35.1074 23.5844C35.2467 23.5014 35.4026 23.4503 35.564 23.4348C35.5983 23.4332 35.6326 23.4332 35.6669 23.4348H40.0549C40.234 23.4346 40.4104 23.4782 40.5688 23.5619C40.7271 23.6455 40.8626 23.7667 40.9633 23.9148L41.7347 25.0805H43.8944C44.0507 25.0793 44.2055 25.1116 44.3484 25.1751C44.4913 25.2386 44.619 25.3319 44.7229 25.4488C44.8268 25.5657 44.9044 25.7035 44.9508 25.8528C44.9971 26.0022 45.0109 26.1597 44.9914 26.3149L43.8944 35.0923C43.8659 35.2801 43.7891 35.4573 43.6716 35.6066C43.6716 35.6066 42.929 36.6186 41.8889 37.6466C40.8488 38.6747 39.5909 39.8869 37.878 39.8924C36.1604 39.8947 34.8963 38.6756 33.85 37.6466C32.8037 36.6176 32.0502 35.6066 32.0502 35.6066C31.9327 35.4573 31.8559 35.2801 31.8274 35.0923L30.7304 26.3149C30.7109 26.1597 30.7247 26.0022 30.771 25.8528C30.8173 25.7035 30.895 25.5657 30.9989 25.4488C31.1028 25.3319 31.2305 25.2386 31.3733 25.1751C31.5162 25.1116 31.671 25.0793 31.8274 25.0805H33.9871L34.7584 23.9148C34.8489 23.7802 34.9681 23.6674 35.1074 23.5844ZM39.4721 25.6291H36.2497L35.4783 26.7777C35.3796 26.929 35.2449 27.0535 35.0865 27.1403C34.928 27.227 34.7505 27.2732 34.5699 27.2749H33.0787L33.9871 34.4922C33.9934 34.5004 34.0004 34.5096 34.0082 34.5198C34.1654 34.7264 34.6289 35.3355 35.3926 36.0865C36.2994 36.9783 37.5074 37.6985 37.878 37.698C38.2462 37.697 39.4452 36.9772 40.3463 36.0865C41.0823 35.3591 41.5308 34.763 41.6991 34.5393C41.7128 34.5211 41.7247 34.5053 41.7347 34.4922L42.6431 27.2749H41.1519C40.9712 27.2732 40.7938 27.227 40.6353 27.1403C40.4768 27.0535 40.3422 26.929 40.2434 26.7777L39.4721 25.6291Z" fill="#FDB515"/>
</svg>
