<?xml version="1.0" encoding="utf-8"?>
<svg width="45" height="45" viewBox="0 0 45 45" fill="none" xmlns="http://www.w3.org/2000/svg">
<path d="M32.1876 26.0615C28.7751 26.0615 26.0626 28.774 26.0626 32.1865C26.0626 35.599 28.7751 38.3115 32.1876 38.3115C35.5126 38.3115 38.3126 35.599 38.3126 32.1865C38.3126 28.774 35.6001 26.0615 32.1876 26.0615ZM32.1876 27.8115C32.5376 27.899 33.1501 29.124 33.3251 31.3115H31.2251C31.3126 29.124 31.9251 27.899 32.1876 27.8115ZM27.9001 33.0615H29.3876C29.4751 34.024 29.5626 35.074 29.9126 35.8615C28.8626 35.249 28.1626 34.199 27.9001 33.0615ZM29.3876 31.3115H27.9001C28.1626 30.0865 28.8626 29.124 29.8251 28.5115C29.5626 29.299 29.4751 30.2615 29.3876 31.3115ZM32.1876 36.5615C31.9251 36.3865 31.2251 35.1615 31.1376 33.0615H33.2376C33.0626 35.1615 32.4501 36.3865 32.1876 36.5615ZM34.5501 35.8615C34.8126 34.9865 34.9876 34.024 35.0751 33.0615H36.5626C36.2126 34.199 35.5126 35.249 34.5501 35.8615ZM34.9876 31.3115C34.9001 30.349 34.8126 29.299 34.4626 28.5115C35.4251 29.124 36.2126 30.174 36.3876 31.3115H34.9876Z" fill="#FDB515"/>
<path d="M43.3 29.5625L40.5 28.8625C40.4125 28.775 40.4125 28.6 40.325 28.5125L41.8125 26.0625C41.9875 25.7125 41.9875 25.275 41.725 25.0125L39.275 22.5625C39.0125 22.3 38.575 22.2125 38.225 22.475L35.775 23.875C35.6875 23.7875 35.5125 23.7875 35.425 23.7L34.8125 20.9875C34.725 20.6375 34.55 20.4625 34.2 20.375V9.175C34.2 7.775 33.0625 6.6375 31.6625 6.6375H24.75V4.625C24.75 3.1375 23.6125 2 22.125 2H14.075C12.5875 2 11.45 3.1375 11.45 4.625V6.6375H4.5375C3.1375 6.6375 2 7.775 2 9.175C2 15.65 2 20.55 2 27.4625C2 28.8625 3.1375 30 4.5375 30H20.4625C20.375 30.175 20.2875 30.2625 20.2875 30.4375V33.9375C20.2875 34.375 20.55 34.725 20.9875 34.8125L23.7875 35.5125C23.875 35.6 23.875 35.775 23.9625 35.8625L22.475 38.3125C22.3 38.6625 22.3 39.1 22.5625 39.3625L25.0125 41.8125C25.275 42.075 25.7125 42.1625 26.0625 41.9L28.5125 40.4125C28.6 40.5 28.775 40.5 28.8625 40.5875L29.475 43.3C29.5625 43.7375 29.9125 44 30.35 44H33.85C34.2875 44 34.6375 43.7375 34.725 43.3L35.425 40.5C35.5125 40.4125 35.6875 40.4125 35.775 40.325L38.1375 41.8125C38.4875 41.9875 38.925 41.9875 39.1875 41.725L41.6375 39.275C41.9 39.0125 41.9875 38.575 41.725 38.225L40.2375 35.775C40.325 35.6875 40.325 35.5125 40.4125 35.425L43.125 34.8125C43.5625 34.725 43.825 34.375 43.825 33.9375V30.4375C44 30 43.7375 29.65 43.3 29.5625ZM13.2 4.625C13.2 4.1 13.55 3.75 14.075 3.75H22.125C22.65 3.75 23 4.1 23 4.625V6.6375H13.2V4.625ZM3.75 9.175C3.75 8.7375 4.1 8.3875 4.5375 8.3875H31.575C32.0125 8.3875 32.3625 8.7375 32.3625 9.175V12.15C32.3625 14.425 30.525 16.2625 28.3375 16.2625V14.8625C28.3375 14.3375 27.9875 13.9875 27.4625 13.9875H23.875C23.35 13.9875 23 14.3375 23 14.8625V16.2625H13.2V14.8625C13.2 14.3375 12.85 13.9875 12.325 13.9875H8.65C8.125 13.9875 7.775 14.3375 7.775 14.8625V16.2625C5.5875 16.2625 3.75 14.3375 3.75 12.15V9.175ZM26.5875 15.7375C26.5875 15.825 26.5875 18.7125 26.5875 18.5375H24.75V15.7375H26.5875ZM11.45 15.7375V18.5375H9.525C9.525 18.45 9.525 15.5625 9.525 15.7375H11.45ZM4.5375 28.25C4.1 28.25 3.75 27.9 3.75 27.4625V16.35C4.8 17.4 6.2 18.0125 7.775 18.1V19.5C7.775 20.025 8.125 20.375 8.65 20.375H12.2375C12.7625 20.375 13.1125 20.025 13.1125 19.5V18.1H23V19.5C23 20.025 23.35 20.375 23.875 20.375H27.4625C27.9875 20.375 28.3375 20.025 28.3375 19.5V18.1C29.9125 18.1 31.3125 17.4 32.3625 16.35V20.375H30.35C29.9125 20.375 29.5625 20.6375 29.475 21.075L28.775 23.875C28.6875 23.9625 28.5125 23.9625 28.425 24.05L26.0625 22.5625C25.7125 22.3875 25.275 22.3875 25.0125 22.65L22.5625 25.1C22.3 25.3625 22.2125 25.8 22.475 26.15L23.7875 28.25H4.5375ZM42.25 33.15L39.7125 33.7625C39.45 33.85 39.1875 34.025 39.1 34.375C39.0125 34.725 38.8375 35.075 38.6625 35.425C38.4875 35.6875 38.575 36.0375 38.6625 36.3L40.0625 38.575L38.575 40.0625L36.3875 38.6625C36.125 38.4875 35.775 38.4875 35.5125 38.6625C35.1625 38.8375 34.8125 39.0125 34.4625 39.1C34.2 39.1875 33.9375 39.45 33.85 39.7125L33.2375 42.25H31.1375L30.525 39.7125C30.4375 39.45 30.2625 39.1875 29.9125 39.1C29.5625 39.0125 29.2125 38.8375 28.8625 38.6625C28.6 38.4875 28.25 38.575 27.9875 38.6625L25.7125 40.0625L24.225 38.575L25.625 36.3875C25.8 36.125 25.8 35.775 25.625 35.5125C25.45 35.1625 25.275 34.9 25.1875 34.55V34.4625C25.1 34.2 24.8375 34.025 24.575 33.9375L22.125 33.2375V31.1375L24.6625 30.525C24.925 30.4375 25.1875 30.2625 25.275 29.9125C25.3625 29.5625 25.5375 29.2125 25.7125 28.8625C25.8875 28.6 25.8 28.25 25.7125 27.9875L24.3125 25.7125L25.8 24.225L27.9875 25.625C28.25 25.8 28.6 25.8 28.8625 25.625C29.2125 25.45 29.5625 25.275 29.9125 25.1875C30.175 25.1 30.4375 24.8375 30.525 24.575L31.1375 22.0375H33.2375L33.85 24.575C33.9375 24.8375 34.1125 25.1 34.4625 25.1875C34.8125 25.275 35.1625 25.45 35.5125 25.625C35.775 25.8 36.125 25.7125 36.3875 25.625L38.6625 24.225L40.15 25.7125L38.75 27.9C38.575 28.1625 38.575 28.5125 38.75 28.775C38.925 29.125 39.1 29.475 39.1875 29.825C39.275 30.0875 39.5375 30.35 39.8 30.4375L42.3375 31.05V33.15H42.25Z" fill="#F9FBFD"/>
</svg>
