<?xml version="1.0" encoding="utf-8"?>
<svg width="45" height="45" viewBox="0 0 45 45" fill="none" xmlns="http://www.w3.org/2000/svg">
<path d="M5.4858 40.3327C5.3123 40.3317 5.14297 40.2794 4.99917 40.1823C4.85537 40.0853 4.74354 39.9478 4.6778 39.7872C4.61206 39.6267 4.59534 39.4502 4.62977 39.2802C4.66419 39.1101 4.74821 38.9541 4.87123 38.8317C4.99424 38.7094 5.15074 38.6262 5.32097 38.5927C5.49121 38.5592 5.66755 38.5769 5.82775 38.6435C5.98795 38.7101 6.12484 38.8227 6.22113 38.967C6.31742 39.1113 6.36881 39.2809 6.3688 39.4544C6.36883 39.5702 6.34597 39.6848 6.30155 39.7917C6.25712 39.8985 6.19201 39.9956 6.10994 40.0772C6.02788 40.1588 5.93049 40.2234 5.82338 40.2672C5.71626 40.3111 5.60154 40.3333 5.4858 40.3327Z" fill="#F9FBFD"/>
<path d="M10.1203 42.9992C10.1203 43.5515 9.6726 43.9992 9.12032 43.9992H3C2.44772 43.9992 2 43.5515 2 42.9992V42.8971C2 42.3448 2.44772 41.8971 3 41.8971H7.01821C7.57049 41.8971 8.01821 41.4494 8.01821 40.8971V32.1236C8.01821 31.5713 7.57049 31.1236 7.01821 31.1236H3C2.44772 31.1236 2 30.6759 2 30.1236V30.0215C2 29.4692 2.44772 29.0215 3 29.0215H9.12032C9.6726 29.0215 10.1203 29.4692 10.1203 30.0215V42.9992Z" fill="#FDB515"/>
<path d="M22.5894 41.8565H11.5168V31.1927L11.6413 30.9603C12.3238 29.7631 13.3488 28.7973 14.5846 28.187C15.7443 27.6296 17.0089 27.324 18.2951 27.2902C19.5814 27.2565 20.8603 27.4954 22.0476 27.9912C22.812 28.3035 23.5581 28.659 24.2823 29.0558C24.878 29.3681 25.4405 29.6633 26.0219 29.9092C26.2668 29.9989 26.5176 30.0716 26.7724 30.1268C27.6515 30.3436 28.8554 30.6405 29.3509 31.7725C29.6346 32.4978 29.7429 33.2798 29.6671 34.055L34.9531 33.9767L37.6983 30.937C38.2081 30.3725 38.9211 30.0334 39.6807 29.9941C40.4403 29.9547 41.1845 30.2183 41.7499 30.727C42.3154 31.2357 42.656 31.9479 42.697 32.7074C42.7379 33.4669 42.4759 34.2117 41.9684 34.7782L37.8317 39.3938L22.5894 41.8565ZM13.6191 39.7543H22.4207L36.7621 37.4374L40.4028 33.375C40.473 33.2966 40.5263 33.2047 40.5596 33.1049C40.5929 33.0052 40.6053 32.8996 40.5962 32.7948C40.5871 32.69 40.5566 32.5882 40.5066 32.4957C40.4566 32.4031 40.3881 32.3218 40.3055 32.2568C40.152 32.1367 39.9587 32.0792 39.7645 32.0957C39.5703 32.1123 39.3896 32.2016 39.2585 32.3459L35.8995 36.0652L22.8838 36.2573L22.853 34.1555L27.5604 34.0859C27.6247 33.5921 27.5787 33.0902 27.4257 32.6162C27.3457 32.4335 26.6452 32.2607 26.2691 32.1679C25.9061 32.0884 25.5498 31.9806 25.2036 31.8456C24.5414 31.5655 23.9132 31.236 23.3059 30.9174C22.6515 30.5578 21.9774 30.2351 21.2868 29.9509C20.3771 29.5632 19.3958 29.372 18.4072 29.3899C17.4185 29.4078 16.4447 29.6343 15.5497 30.0546C14.7717 30.4407 14.1067 31.0212 13.6191 31.7398V39.7543Z" fill="#F9FBFD"/>
<path d="M44 6.69142V4.45701L37.3052 2L24.3733 8.64863H13.2139V24.2937H38.834V19.8627C39.1826 19.8753 39.527 19.8879 39.863 19.9131C40.073 19.9257 40.283 19.9341 40.493 19.9341C41.6889 19.9249 42.8747 19.7134 44 19.3083V17.0613C43.9916 17.0655 43.979 17.0697 43.9706 17.0739C42.7249 17.6318 41.3648 17.8866 40.0016 17.8173C39.6194 17.7921 39.233 17.7753 38.834 17.7627C38.162 17.7459 37.469 17.7501 36.734 17.7753C35.7218 17.8089 34.6382 17.8887 33.4538 18.0105L32.1602 18.1449C31.8432 18.1781 31.5257 18.0867 31.2748 17.8902C31.0239 17.6936 30.8593 17.4072 30.8157 17.0915C30.772 16.7758 30.8529 16.4555 31.041 16.1983C31.2292 15.9411 31.51 15.7671 31.8242 15.7131L36.7214 14.8647C36.7237 14.8649 36.726 14.8647 36.7281 14.864C36.7303 14.8633 36.7323 14.8621 36.734 14.8605C37.1638 14.7868 37.5732 14.623 37.9351 14.3798C38.2971 14.1365 38.6034 13.8194 38.834 13.4492C39.1317 12.9756 39.2972 12.4309 39.3132 11.8718C39.3293 11.3126 39.1953 10.7593 38.9253 10.2694C38.6553 9.77946 38.259 9.37077 37.7776 9.08575C37.2963 8.80074 36.7474 8.6498 36.188 8.64861H28.9639L37.448 4.28901L44 6.69142ZM36.188 10.7486C36.3812 10.7466 36.5708 10.8006 36.734 10.904C36.8819 10.9973 37.0038 11.1266 37.0882 11.2797C37.1727 11.4328 37.217 11.6049 37.217 11.7798C37.217 11.9546 37.1727 12.1267 37.0882 12.2798C37.0038 12.4329 36.8819 12.5622 36.734 12.6555C36.6211 12.7256 36.4955 12.7727 36.3644 12.7941L31.4672 13.6425C30.6456 13.7839 29.9071 14.2286 29.3978 14.8886C28.8884 15.5485 28.6453 16.3756 28.7166 17.2062C28.7879 18.0367 29.1684 18.8103 29.7827 19.3738C30.397 19.9373 31.2005 20.2497 32.0342 20.2491C32.1464 20.2497 32.2585 20.2441 32.3702 20.2323C32.3702 20.2323 35.789 19.9131 36.734 19.8795V22.1937H15.3139V10.7486H36.188Z" fill="#F9FBFD"/>
<path d="M27.2104 15.4219H25.1104V17.5219H27.2104V15.4219Z" fill="#FDB515"/>
</svg>
