<?xml version="1.0" encoding="utf-8"?>
<svg width="45" height="45" viewBox="0 0 45 45" fill="none" xmlns="http://www.w3.org/2000/svg">
<path d="M15.8584 18.0345H17.3862V13.4512H18.914L21.5288 18.0345H25.0251V13.4512H26.5528V18.0345H28.0806V19.5623H26.5528V21.0901H28.0806V22.6178H26.5528V27.2012H25.0251L22.4013 22.6178H18.914V27.2012H17.3862V22.6178H15.8584V21.0901H17.3862V19.5623H15.8584V18.0345ZM18.914 18.0345H19.7774L18.914 16.5263V18.0345ZM18.914 19.5623V21.0901H21.5266L20.652 19.5623H18.914ZM25.0251 24.1627V22.6178H24.1437L25.0251 24.1627ZM22.4005 19.5623L23.2721 21.0901H25.0251V19.5623H22.4005Z" fill="#FDB515"/>
<path d="M43.0833 12.167C42.8402 12.167 42.6071 12.2636 42.4352 12.4355C42.2632 12.6074 42.1667 12.8405 42.1667 13.0837V33.2503C29.3333 33.4337 23.8333 37.4212 22 39.2087C20.1667 37.4212 14.6667 33.4337 1.83333 33.2503V13.0837C1.83333 12.8405 1.73676 12.6074 1.56485 12.4355C1.39294 12.2636 1.15978 12.167 0.916667 12.167C0.673552 12.167 0.440394 12.2636 0.268485 12.4355C0.0965771 12.6074 0 12.8405 0 13.0837L0 34.167C0 34.4101 0.0965771 34.6433 0.268485 34.8152C0.440394 34.9871 0.673552 35.0837 0.916667 35.0837C16.7567 35.0837 21.2025 41.0512 21.2483 41.1062C21.2942 41.1612 21.2483 41.1062 21.3033 41.1062C21.349 41.1779 21.4082 41.2402 21.4775 41.2895H21.5508H21.6333C21.7479 41.3452 21.8727 41.3764 22 41.3812C22.1273 41.3764 22.2521 41.3452 22.3667 41.2895H22.4492H22.5225C22.5918 41.2402 22.651 41.1779 22.6967 41.1062C22.6967 41.1062 22.6967 41.1062 22.7517 41.1062C22.8067 41.1062 27.1058 35.0837 43.0833 35.0837C43.3265 35.0837 43.5596 34.9871 43.7315 34.8152C43.9034 34.6433 44 34.4101 44 34.167V13.0837C44 12.8405 43.9034 12.6074 43.7315 12.4355C43.5596 12.2636 43.3265 12.167 43.0833 12.167Z" fill="#FDB515"/>
<path d="M4.58341 31.4167C17.5634 31.4167 21.2026 36.4675 21.2392 36.5042C21.3223 36.6303 21.4352 36.7339 21.5679 36.8059C21.7006 36.8778 21.8491 36.9159 22.0001 36.9167C22.1502 36.9169 22.2981 36.8802 22.4308 36.8099C22.5635 36.7396 22.6768 36.6377 22.7609 36.5133C22.7609 36.4675 26.4276 31.4167 39.4167 31.4167C39.6599 31.4167 39.893 31.3201 40.0649 31.1482C40.2368 30.9763 40.3334 30.7431 40.3334 30.5V3.91667C40.3334 3.67355 40.2368 3.44039 40.0649 3.26849C39.893 3.09658 39.6599 3 39.4167 3C28.4626 3 23.6592 5.8875 22.0001 7.24417C20.3409 5.8875 15.5834 3 4.58341 3C4.3403 3 4.10714 3.09658 3.93523 3.26849C3.76333 3.44039 3.66675 3.67355 3.66675 3.91667V30.5C3.66675 30.7431 3.76333 30.9763 3.93523 31.1482C4.10714 31.3201 4.3403 31.4167 4.58341 31.4167ZM5.50008 4.83333C17.7009 5.02583 21.2209 8.995 21.2942 9.06833C21.3786 9.17517 21.4858 9.26186 21.6079 9.32211C21.73 9.38237 21.8639 9.41467 22.0001 9.41667C22.1355 9.41577 22.269 9.38489 22.391 9.32625C22.5131 9.26761 22.6206 9.18265 22.7059 9.0775C22.7059 9.0775 24.6126 6.92333 30.3326 5.695C30.5611 5.71565 30.7736 5.82127 30.9281 5.99099C31.0825 6.16072 31.1677 6.38219 31.1667 6.61167V10.3333C31.1667 10.5764 31.2633 10.8096 31.4352 10.9815C31.6071 11.1534 31.8403 11.25 32.0834 11.25C32.3265 11.25 32.5597 11.1534 32.7316 10.9815C32.9035 10.8096 33.0001 10.5764 33.0001 10.3333V6.59333C32.9952 6.13416 32.8755 5.68351 32.6517 5.2825C34.5894 5.00657 36.543 4.85654 38.5001 4.83333V29.5833C28.2517 29.7667 23.6501 33.0117 22.0001 34.6158C20.3501 33.0208 15.7484 29.7758 5.50008 29.5833V4.83333Z" fill="#F9FBFD"/>
</svg>
