<?xml version="1.0" encoding="utf-8"?>
<svg width="26" height="25" viewBox="0 0 26 25" fill="none" xmlns="http://www.w3.org/2000/svg">
<path d="M17.8543 0H8.47931C4.16525 0 0.666809 3.49844 0.666809 7.8125V17.1875C0.666809 21.5016 4.16525 25 8.47931 25H17.8543C22.1684 25 25.6668 21.5016 25.6668 17.1875V7.8125C25.6668 3.49844 22.1684 0 17.8543 0ZM23.3231 17.1875C23.3231 20.2031 20.8699 22.6562 17.8543 22.6562H8.47931C5.46368 22.6562 3.01056 20.2031 3.01056 17.1875V7.8125C3.01056 4.79688 5.46368 2.34375 8.47931 2.34375H17.8543C20.8699 2.34375 23.3231 4.79688 23.3231 7.8125V17.1875Z" fill="#063A4F"/>
<path d="M13.1668 6.25C9.71525 6.25 6.91681 9.04844 6.91681 12.5C6.91681 15.9516 9.71525 18.75 13.1668 18.75C16.6184 18.75 19.4168 15.9516 19.4168 12.5C19.4168 9.04844 16.6184 6.25 13.1668 6.25ZM13.1668 16.4062C11.0137 16.4062 9.26056 14.6531 9.26056 12.5C9.26056 10.3453 11.0137 8.59375 13.1668 8.59375C15.3199 8.59375 17.0731 10.3453 17.0731 12.5C17.0731 14.6531 15.3199 16.4062 13.1668 16.4062Z" fill="#063A4F"/>
<path d="M19.8855 6.6139C20.3454 6.6139 20.7183 6.24104 20.7183 5.7811C20.7183 5.32115 20.3454 4.94828 19.8855 4.94828C19.4256 4.94828 19.0527 5.32115 19.0527 5.7811C19.0527 6.24104 19.4256 6.6139 19.8855 6.6139Z" fill="#063A4F"/>
</svg>
