<?xml version="1.0" encoding="utf-8"?>
<svg width="92" height="105" viewBox="0 0 92 105" fill="none" xmlns="http://www.w3.org/2000/svg">
<circle cx="69.7223" cy="83.1321" r="21.868" fill="#01838A"/>
<path fill-rule="evenodd" clip-rule="evenodd" d="M65.1771 88.9377C65.2181 89.0296 65.2763 89.1157 65.3517 89.1912L66.6485 90.4879C66.9791 90.8185 67.5151 90.8185 67.8458 90.4879L80.6303 77.7034C80.9609 77.3728 80.9609 76.8368 80.6303 76.5061L79.3335 75.2094C79.0029 74.8788 78.4668 74.8788 78.1362 75.2094L67.2865 86.0591L63.5583 82.3309C63.2277 82.0003 62.6917 82.0003 62.3611 82.3309L61.0643 83.6277C60.7337 83.9583 60.7337 84.4943 61.0643 84.8249L65.1771 88.9377Z" fill="#01838A"/>
<circle cx="69.6147" cy="82.4788" r="21.868" fill="#ECAB03"/>
<path fill-rule="evenodd" clip-rule="evenodd" d="M0.00012207 2.51303C0.00012207 1.12512 1.12524 0 2.51315 0H70.2143C71.6022 0 72.7273 1.12512 72.7273 2.51302V52.7102C71.6238 52.5911 70.5024 52.53 69.3665 52.53C52.6291 52.53 39.0608 65.7968 39.0608 82.1622C39.0608 87.4318 40.4676 92.3802 42.934 96.6678L41.152 99.8074C41.0971 99.904 40.9571 99.902 40.9051 99.8038L38.7255 95.6876L36.387 99.8074C36.3321 99.904 36.1922 99.902 36.1401 99.8038L33.9609 95.6883L31.6228 99.8074C31.5679 99.904 31.428 99.902 31.376 99.8038L29.1963 95.6876L26.8578 99.8074C26.803 99.904 26.663 99.902 26.611 99.8038L24.4313 95.6875L22.0928 99.8074C22.0379 99.904 21.898 99.902 21.8459 99.8038L19.6659 95.6868L17.327 99.8074C17.2721 99.904 17.1322 99.902 17.0802 99.8038L14.9009 95.6883L12.5628 99.8074C12.508 99.904 12.368 99.902 12.316 99.8038L10.1364 95.6876L7.79791 99.8074C7.74305 99.904 7.60308 99.902 7.55107 99.8038L5.37137 95.6874L3.0328 99.8074C2.97794 99.904 2.83797 99.902 2.78597 99.8038L0.00151728 94.5454H0.00012207V2.51303Z" fill="#055072"/>
<path fill-rule="evenodd" clip-rule="evenodd" d="M65.0709 88.2863C65.1119 88.3783 65.1701 88.4644 65.2455 88.5398L66.5423 89.8366C66.8729 90.1672 67.4089 90.1672 67.7396 89.8365L80.5241 77.0521C80.8547 76.7214 80.8547 76.1854 80.5241 75.8548L79.2273 74.558C78.8967 74.2274 78.3606 74.2274 78.03 74.558L67.1803 85.4077L63.4521 81.6795C63.1215 81.3489 62.5855 81.3489 62.2549 81.6795L60.9581 82.9763C60.6275 83.3069 60.6275 83.843 60.9581 84.1736L65.0709 88.2863Z" fill="white"/>
<mask id="mask0" mask-type="alpha" maskUnits="userSpaceOnUse" x="0" y="0" width="73" height="100">
<path fill-rule="evenodd" clip-rule="evenodd" d="M0.00012207 2.51303C0.00012207 1.12512 1.12524 0 2.51315 0H70.2143C71.6022 0 72.7273 1.12512 72.7273 2.51302V52.7102C71.6238 52.5911 70.5024 52.53 69.3665 52.53C52.6291 52.53 39.0608 65.7968 39.0608 82.1622C39.0608 87.4318 40.4676 92.3802 42.934 96.6678L41.152 99.8074C41.0971 99.904 40.9571 99.902 40.9051 99.8038L38.7255 95.6876L36.387 99.8074C36.3321 99.904 36.1922 99.902 36.1401 99.8038L33.9609 95.6883L31.6228 99.8074C31.5679 99.904 31.428 99.902 31.376 99.8038L29.1963 95.6876L26.8578 99.8074C26.803 99.904 26.663 99.902 26.611 99.8038L24.4313 95.6875L22.0928 99.8074C22.0379 99.904 21.898 99.902 21.8459 99.8038L19.6659 95.6868L17.327 99.8074C17.2721 99.904 17.1322 99.902 17.0802 99.8038L14.9009 95.6883L12.5628 99.8074C12.508 99.904 12.368 99.902 12.316 99.8038L10.1364 95.6876L7.79791 99.8074C7.74305 99.904 7.60308 99.902 7.55107 99.8038L5.37137 95.6874L3.0328 99.8074C2.97794 99.904 2.83797 99.902 2.78597 99.8038L0.00151728 94.5454H0.00012207V2.51303Z" fill="#055072"/>
</mask>
<g mask="url(#mask0)">
<rect x="4.20782" y="86.2339" width="23.8686" height="0.89536" rx="0.201042" fill="#036A7E"/>
<rect x="44.5765" y="86.2334" width="23.8686" height="0.89536" rx="0.201042" fill="#036A7E"/>
<rect x="4.20801" y="88.2383" width="23.8686" height="0.89536" rx="0.201042" fill="#036A7E"/>
<rect x="44.5768" y="88.2383" width="23.8686" height="0.89536" rx="0.201042" fill="#036A7E"/>
<rect x="4.20862" y="11.4668" width="27.2727" height="10.6122" rx="0.502605" fill="#DA9A28"/>
<path d="M4.20874 9.07341C4.20874 8.79582 4.43376 8.5708 4.71134 8.5708H30.9788C31.2564 8.5708 31.4814 8.79582 31.4814 9.07341V21.0552C31.4814 21.3328 31.2564 21.5578 30.9788 21.5578H4.71134C4.43376 21.5578 4.20874 21.3328 4.20874 21.0552V9.07341Z" fill="#00B8C2"/>
<rect x="42.3894" y="9.62891" width="25.4545" height="1.96979" rx="0.502605" fill="#BABABA"/>
<rect x="42.3895" y="9.09033" width="25.4545" height="1.96979" rx="0.502605" fill="white"/>
<rect x="48.882" y="14.8232" width="18.961" height="1.96979" rx="0.502605" fill="#BABABA"/>
<rect x="48.8821" y="14.2871" width="18.961" height="1.96979" rx="0.502605" fill="white"/>
<rect x="55.376" y="19.9995" width="12.4675" height="2.07792" rx="0.502605" fill="#BABABA"/>
<rect x="55.3762" y="19.4805" width="12.4675" height="2.07792" rx="0.502605" fill="white"/>
<rect x="4.15674" y="30.7998" width="14.5969" height="1.96979" rx="0.502605" fill="#BABABA"/>
<rect x="4.15686" y="30.5205" width="14.5969" height="1.96979" rx="0.502605" fill="white"/>
<rect x="28.8827" y="30.7998" width="14.5969" height="1.96979" rx="0.502605" fill="#BABABA"/>
<rect x="28.8831" y="30.5205" width="14.5969" height="1.96979" rx="0.502605" fill="white"/>
<rect x="53.8175" y="30.7998" width="14.5969" height="1.96979" rx="0.502605" fill="#BABABA"/>
<rect x="53.8178" y="30.5205" width="14.5969" height="1.96979" rx="0.502605" fill="white"/>
<rect x="4.15698" y="35.9995" width="64.237" height="4.29773" fill="#01838A" fill-opacity="0.3"/>
<rect x="4.20605" y="36.0981" width="14.5454" height="4.15584" fill="#01838A" fill-opacity="0.5"/>
<rect x="28.8843" y="36.103" width="14.5454" height="4.15584" fill="#01838A" fill-opacity="0.5"/>
<rect x="53.8192" y="36.103" width="14.5454" height="4.15584" fill="#01838A" fill-opacity="0.5"/>
<rect x="4.15698" y="65.7144" width="64.237" height="4.29773" fill="#01838A" fill-opacity="0.3"/>
<rect x="4.20709" y="65.8154" width="14.5454" height="4.15584" fill="#01838A" fill-opacity="0.5"/>
<rect x="28.8843" y="65.8184" width="14.5454" height="4.15584" fill="#01838A" fill-opacity="0.5"/>
<rect x="53.8192" y="65.8184" width="14.5454" height="4.15584" fill="#01838A" fill-opacity="0.5"/>
<rect x="4.15698" y="75.5845" width="64.237" height="4.29773" fill="#01838A" fill-opacity="0.3"/>
<rect x="4.20703" y="75.6855" width="14.5454" height="4.15584" fill="#01838A" fill-opacity="0.5"/>
<rect x="28.8843" y="75.6885" width="14.5454" height="4.15584" fill="#01838A" fill-opacity="0.5"/>
<rect x="53.8192" y="75.6885" width="14.5454" height="4.15584" fill="#01838A" fill-opacity="0.5"/>
<rect x="4.15698" y="45.9746" width="64.237" height="4.29773" fill="#01838A" fill-opacity="0.3"/>
<rect x="4.20605" y="46.0737" width="14.5454" height="4.15584" fill="#01838A" fill-opacity="0.5"/>
<rect x="28.8843" y="46.0786" width="14.5454" height="4.15584" fill="#01838A" fill-opacity="0.5"/>
<rect x="53.8192" y="46.0786" width="14.5454" height="4.15584" fill="#01838A" fill-opacity="0.5"/>
<rect x="4.15698" y="55.8438" width="64.237" height="4.29773" fill="#01838A" fill-opacity="0.3"/>
<rect x="4.20654" y="55.9438" width="14.5454" height="4.15584" fill="#01838A" fill-opacity="0.5"/>
<rect x="28.8843" y="55.9478" width="14.5454" height="4.15584" fill="#01838A" fill-opacity="0.5"/>
<rect x="53.8192" y="55.9478" width="14.5454" height="4.15584" fill="#01838A" fill-opacity="0.5"/>
</g>
</svg>
