<?xml version="1.0" encoding="utf-8"?>
<svg width="52" height="40" viewBox="0 0 52 40" fill="none" xmlns="http://www.w3.org/2000/svg">
<path d="M7.66713 17.4704H19.5334C20.013 17.4704 20.4015 17.0819 20.4015 16.6023V6.84755C20.4015 6.36795 20.0109 5.97949 19.5334 5.97949H7.66713C7.18753 5.97949 6.79907 6.36795 6.79907 6.84755V16.6023C6.79907 17.0819 7.18753 17.4704 7.66713 17.4704ZM8.53518 7.7156H18.6632V15.7343H8.53518V7.7156Z" fill="#F9FBFD"/>
<path d="M0.868056 0C0.388455 0 0 0.388455 0 0.868056V39.1319C0 39.6115 0.390625 40 0.868056 40H50.9028C51.3824 40 51.7708 39.6115 51.7708 39.1319V0.868056C51.7708 0.388455 51.3802 0 50.9028 0H0.868056ZM50.0326 38.2639H44.0495H1.73828V1.73611H50.0347V38.2639H50.0326Z" fill="#F9FBFD"/>
<path d="M7.6194 23.5115H25.5816C26.0612 23.5115 26.4497 23.123 26.4497 22.6434C26.4497 22.1638 26.0591 21.7754 25.5816 21.7754H7.6194C7.1398 21.7754 6.75134 22.1638 6.75134 22.6434C6.75134 23.123 7.1398 23.5115 7.6194 23.5115Z" fill="#F9FBFD"/>
<path d="M7.6194 28.3982H25.5816C26.0612 28.3982 26.4497 28.0098 26.4497 27.5302C26.4497 27.0506 26.0591 26.6621 25.5816 26.6621H7.6194C7.1398 26.6621 6.75134 27.0506 6.75134 27.5302C6.75134 28.0098 7.1398 28.3982 7.6194 28.3982Z" fill="#F9FBFD"/>
<path d="M7.6194 33.2888H25.5816C26.0612 33.2888 26.4497 32.9004 26.4497 32.4208C26.4497 31.9412 26.0591 31.5527 25.5816 31.5527H7.6194C7.1398 31.5527 6.75134 31.9412 6.75134 32.4208C6.75134 32.9004 7.1398 33.2888 7.6194 33.2888Z" fill="#F9FBFD"/>
<path d="M29.2232 14.027L28.5678 16.0409C28.4506 16.399 28.5787 16.7918 28.8825 17.0131L30.5969 18.2588L31.2544 20.2748C31.2675 20.3139 31.3065 20.3356 31.3239 20.3703V33.4367C31.3239 33.7753 31.5214 34.0834 31.8295 34.2245C31.9446 34.2788 32.0682 34.3048 32.1919 34.3048C32.3959 34.3048 32.5978 34.2332 32.7562 34.0965L36.4194 30.9628L40.0826 34.0943C40.3386 34.3178 40.7076 34.3699 41.0092 34.2245C41.3195 34.0834 41.5149 33.7753 41.5149 33.4367V20.3747C41.5344 20.3378 41.5735 20.3161 41.5865 20.2748L42.244 18.2588L43.9584 17.0131C44.2623 16.7918 44.3881 16.399 44.2731 16.0409L43.6156 14.027L44.2709 12.0131C44.3881 11.6551 44.2623 11.2623 43.9563 11.0431L42.2419 9.79525L41.5843 7.77919C41.4693 7.42112 41.1351 7.18023 40.7597 7.18023H38.6394L36.9272 5.93457C36.6212 5.71322 36.211 5.71322 35.9051 5.93457L34.1972 7.1824H32.0769C31.7015 7.1824 31.3673 7.42329 31.2523 7.78136L30.5947 9.79525L28.8803 11.0431C28.5743 11.2644 28.4506 11.6551 28.5656 12.0131L29.2232 14.027ZM36.9836 29.1594C36.6624 28.8795 36.1785 28.8816 35.8551 29.1594L33.06 31.5509V20.8716H34.195L35.9072 22.1173C36.0591 22.228 36.2371 22.2822 36.4172 22.2822C36.5973 22.2822 36.7753 22.228 36.9272 22.1173L38.6394 20.8716H39.7722V31.5487L36.9836 29.1594ZM30.4124 12.0739L31.8426 11.0322C31.9901 10.9259 32.1008 10.774 32.1572 10.6004L32.7063 8.91634H34.4771C34.6616 8.91634 34.8395 8.85775 34.9871 8.75141L36.4172 7.71191L37.8473 8.75141C37.9949 8.85775 38.1728 8.91634 38.3573 8.91634H40.1281L40.6772 10.6004C40.7314 10.774 40.8421 10.9259 40.9919 11.0322L42.422 12.0739L41.8794 13.7579C41.823 13.9337 41.823 14.1203 41.8794 14.2961L42.4263 15.978L40.9962 17.0175C40.8486 17.126 40.738 17.2779 40.6815 17.4515L40.1325 19.1355H38.3617C38.1772 19.1355 37.9992 19.1941 37.8517 19.3005L36.4215 20.34L34.9914 19.3005C34.8439 19.1941 34.6659 19.1355 34.4814 19.1355H32.7106L32.1616 17.4515C32.1073 17.2779 31.9966 17.126 31.8469 17.0175L30.4168 15.978L30.9636 14.2961C31.0201 14.1203 31.0201 13.9337 30.9636 13.7579L30.4124 12.0739Z" fill="#F9FBFD"/>
</svg>
