<?xml version="1.0" encoding="utf-8"?>
<svg width="49" height="46" viewBox="0 0 49 46" fill="none" xmlns="http://www.w3.org/2000/svg">
<path d="M6.52979 41.0832C6.53034 40.8968 6.47138 40.7145 6.36035 40.5592C6.24933 40.4039 6.09123 40.2827 5.90605 40.2109C5.72087 40.1391 5.51693 40.1199 5.32002 40.1558C5.1231 40.1917 4.94206 40.281 4.79979 40.4124C4.65751 40.5439 4.56039 40.7116 4.52071 40.8943C4.48103 41.077 4.50056 41.2666 4.57685 41.439C4.65314 41.6114 4.78275 41.7589 4.94929 41.8629C5.11583 41.9669 5.31183 42.0226 5.51249 42.0231C5.64578 42.0237 5.77789 41.9998 5.90122 41.9528C6.02455 41.9059 6.13669 41.8367 6.23121 41.7494C6.32572 41.6621 6.40074 41.5583 6.45198 41.444C6.50322 41.3297 6.52966 41.2071 6.52979 41.0832Z" fill="#F9FBFD"/>
<path d="M0 32.1679H8.42939V43.6975H1.49637V45.947H10.8515V29.9185H0V32.1679Z" fill="#F9FBFD"/>
<path d="M48.3731 33.7581C48.325 33.2516 48.1426 32.7641 47.8422 32.3391C47.5418 31.914 47.1328 31.5647 46.6516 31.3223C46.1705 31.0799 45.6322 30.9519 45.0849 30.9499C44.5375 30.9478 43.9981 31.0717 43.5149 31.3104C43.5197 30.5005 43.5439 29.6951 43.573 28.8987C43.5875 28.3768 43.6021 27.8594 43.6166 27.3464C43.8055 18.8695 37.189 15.6164 33.6579 14.4826L38.1141 5.31724L37.4651 4.48485C36.4323 3.35556 35.1431 2.45275 33.69 1.84128C32.237 1.22981 30.6562 0.924848 29.0612 0.948309C27.4669 0.924569 25.8867 1.22942 24.4344 1.84094C22.9821 2.45245 21.6938 3.35542 20.6622 4.48485L20.0131 5.31726L24.4693 14.4826C20.9334 15.6164 14.3217 18.8695 14.5106 27.3464C14.5252 27.8594 14.5397 28.3768 14.5542 28.8987C14.5591 29.2137 14.5688 29.5376 14.5785 29.8571C13.7663 30.4317 13.093 31.1583 12.6022 31.9898L12.4569 32.2373V43.6478H25.2153L25.4235 43.6163L42.643 41.0336L42.7738 41.0157L44.6096 39.1124L47.54 36.0753C47.8406 35.7616 48.0694 35.3945 48.2127 34.9961C48.3559 34.5978 48.4105 34.1766 48.3731 33.7581ZM22.8176 5.60973C23.6212 4.82794 24.5916 4.21047 25.6666 3.79676C26.7417 3.38304 27.8978 3.18219 29.0612 3.20703C30.2245 3.18219 31.3807 3.38304 32.4557 3.79676C33.5308 4.21047 34.5011 4.82794 35.3048 5.60973L31.0617 14.3386C29.7744 14.8005 28.348 14.8005 27.0607 14.3386L22.8176 5.60973ZM26.0436 16.3858C27.9786 17.1237 30.1487 17.1237 32.0837 16.3858C34.7138 17.0788 41.3594 19.6119 41.1899 27.3015C41.1802 27.8054 41.1608 28.3228 41.1463 28.8357C41.093 30.3701 41.0446 31.9494 41.1076 33.5197L39.4558 35.2159L33.3673 35.3014C33.4557 34.4718 33.3312 33.6345 33.004 32.8582C32.4324 31.6479 31.0471 31.3284 30.0348 31.0944C29.7408 31.0351 29.4513 30.9584 29.1678 30.865C28.4993 30.5995 27.8503 30.2845 27.1625 29.9516C26.329 29.5259 25.4703 29.1443 24.5904 28.8087C22.1627 27.8835 19.4546 27.8147 16.9761 28.6153C16.9567 28.1743 16.9422 27.7334 16.9374 27.3014C16.7678 19.6119 23.4086 17.0787 26.0436 16.3858V16.3858ZM45.7382 34.5725L43.8249 36.5522L41.8244 38.631L41.5435 38.9189L25.0215 41.3981H14.8788V32.8222C15.4215 32.0703 16.1639 31.4613 17.0342 31.0539C17.0539 31.0377 17.077 31.0255 17.102 31.018C18.1336 30.5681 19.256 30.3259 20.3954 30.3073C21.5349 30.2887 22.6657 30.4941 23.7137 30.91C24.5093 31.2118 25.2856 31.5558 26.0387 31.9403C26.7411 32.2823 27.4628 32.6378 28.2281 32.9347C28.6261 33.0799 29.0359 33.1958 29.4535 33.2812C29.8846 33.3802 30.6935 33.5646 30.7856 33.7581C30.9609 34.2661 31.0138 34.8038 30.9406 35.3329L25.5156 35.4094L25.5543 37.6591L40.5457 37.4522L41.3788 36.5927L43.5827 34.325L44.4158 33.4701C44.5672 33.3163 44.7754 33.2212 44.999 33.2037C45.2225 33.1861 45.445 33.2476 45.6219 33.3756C45.7179 33.4447 45.7976 33.5313 45.8559 33.6302C45.9142 33.7292 45.95 33.8382 45.9609 33.9505C45.9718 34.0628 45.9577 34.176 45.9193 34.2831C45.881 34.3901 45.8193 34.4886 45.7382 34.5725L45.7382 34.5725Z" fill="#F9FBFD"/>
</svg>
