<svg width="45" height="45" viewBox="0 0 45 45" fill="none" xmlns="http://www.w3.org/2000/svg">
<path d="M15.3 19.7999H17.1V14.3999H18.9L21.9808 19.7999H26.1V14.3999H27.9V19.7999H29.7V21.6H27.9V23.4H29.7V25.2H27.9V30.6H26.1L23.0087 25.2H18.9V30.6H17.1V25.2H15.3V23.4H17.1V21.6H15.3V19.7999ZM18.9 19.7999H19.9173L18.9 18.023V19.7999ZM18.9 21.6V23.4H21.9782L20.9478 21.6H18.9ZM26.1 27.0201V25.2H25.0616L26.1 27.0201ZM23.0078 21.6L24.0347 23.4H26.1V21.6H23.0078Z" fill="#FDB515"/>
<path d="M25.0452 45H19.9551C19.1705 44.9992 18.4183 44.6873 17.8635 44.1326C17.3086 43.5779 16.9965 42.8258 16.9955 42.0413V41.0973C15.6893 40.712 14.4275 40.1895 13.2314 39.5385L12.5598 40.21C12.0043 40.7638 11.2519 41.0748 10.4676 41.0748C9.68322 41.0748 8.93085 40.7638 8.37539 40.21L4.775 36.6101C4.221 36.0547 3.90989 35.3022 3.90989 34.5177C3.90989 33.7332 4.221 32.9807 4.775 32.4253L5.45142 31.7488C4.80509 30.5586 4.28599 29.3036 3.90274 28.0046H2.95918C2.17457 28.0036 1.42236 27.6915 0.867597 27.1366C0.312832 26.5818 0.000814599 25.8295 0 25.0449V19.9548C0.000869506 19.1703 0.312922 18.4181 0.867692 17.8633C1.42246 17.3086 2.17464 16.9965 2.9592 16.9957H3.90274C4.28596 15.6965 4.80505 14.4413 5.45142 13.2509L4.78997 12.5897C4.23617 12.0342 3.92519 11.2819 3.92519 10.4975C3.92519 9.71313 4.23617 8.96076 4.78997 8.4053L8.38992 4.80536C8.94541 4.25146 9.69787 3.94041 10.4823 3.94041C11.2668 3.94041 12.0193 4.25146 12.5747 4.80536L13.2314 5.46175C14.4274 4.81052 15.6892 4.28799 16.9955 3.90295V2.95875C16.9965 2.1742 17.3087 1.4221 17.8635 0.867419C18.4183 0.312742 19.1705 0.000790614 19.9551 0L25.0452 0C25.8297 0.000806284 26.5818 0.312776 27.1366 0.867463C27.6914 1.42215 28.0034 2.17425 28.0043 2.95875V3.90295C29.3037 4.28612 30.559 4.80522 31.7495 5.45163L32.4106 4.79017C32.966 4.23628 33.7183 3.92523 34.5027 3.92523C35.2871 3.92523 36.0395 4.23628 36.5949 4.79017L40.1949 8.39012C40.4697 8.66488 40.6876 8.99107 40.8363 9.35007C40.985 9.70907 41.0615 10.0938 41.0614 10.4824C41.0614 10.871 40.9848 11.2557 40.836 11.6147C40.6873 11.9737 40.4693 12.2998 40.1944 12.5745L39.5383 13.2311C40.1896 14.4273 40.7123 15.6892 41.0975 16.9957H42.0415C42.826 16.9966 43.578 17.3088 44.1326 17.8635C44.6872 18.4183 44.9991 19.1704 44.9998 19.9548V25.0449C44.9991 25.8294 44.6873 26.5816 44.1327 27.1365C43.5781 27.6913 42.826 28.0035 42.0415 28.0046H41.0975C40.7122 29.3108 40.1897 30.5725 39.5387 31.7687L40.2103 32.4402C40.7641 32.9957 41.0751 33.7481 41.0751 34.5324C41.0751 35.3168 40.7641 36.0692 40.2103 36.6246L36.6103 40.225C36.0549 40.779 35.3024 41.0901 34.5179 41.0901C33.7334 41.0901 32.981 40.779 32.4255 40.225L31.7491 39.5486C30.5588 40.195 29.3036 40.7141 28.0044 41.0973V42.0413C28.0034 42.8258 27.6914 43.5779 27.1366 44.1325C26.5818 44.6872 25.8297 44.9992 25.0452 45ZM12.8727 36.71L13.6283 37.1681C15.1066 38.0638 16.7128 38.729 18.3914 39.1411L19.2487 39.3519V42.0413C19.2491 42.2284 19.3237 42.4077 19.4561 42.54C19.5885 42.6722 19.7679 42.7466 19.9551 42.7467H25.0452C25.2323 42.7465 25.4116 42.6722 25.544 42.5399C25.6763 42.4077 25.7508 42.2283 25.7511 42.0413V39.3519L26.6088 39.1411C28.2805 38.7303 29.8803 38.0686 31.3539 37.1787L32.1095 36.7219L34.0191 38.6314C34.1514 38.7637 34.3308 38.8381 34.5179 38.8381C34.705 38.8381 34.8845 38.7637 35.0168 38.6314L38.6167 35.0315C38.7488 34.899 38.823 34.7195 38.823 34.5324C38.823 34.3453 38.7488 34.1659 38.6167 34.0334L36.7102 32.1273L37.1684 31.3717C38.064 29.8933 38.7293 28.2872 39.1413 26.6086L39.3521 25.7513H42.0415C42.2286 25.7509 42.4079 25.6763 42.5401 25.5439C42.6722 25.4115 42.7465 25.232 42.7465 25.0449V19.9548C42.7464 19.7678 42.6721 19.5885 42.54 19.4561C42.4078 19.3238 42.2285 19.2493 42.0415 19.2489H39.3521L39.1413 18.3916C38.7292 16.7129 38.0639 15.1068 37.1684 13.6283L36.7107 12.8727L38.6013 10.9814C38.7337 10.8491 38.8081 10.6697 38.8082 10.4825C38.8083 10.2954 38.734 10.1159 38.6018 9.98347L35.0018 6.38352C34.8692 6.25161 34.6898 6.17756 34.5028 6.17756C34.3157 6.17756 34.1363 6.25161 34.0037 6.38352L32.1095 8.27812L31.3539 7.82152C29.8805 6.9312 28.2806 6.26955 26.6088 5.85916L25.7511 5.64813V2.95875C25.7508 2.77165 25.6764 2.5923 25.544 2.46004C25.4117 2.32778 25.2323 2.25343 25.0452 2.25328H19.9551C19.7679 2.25341 19.5885 2.32775 19.4561 2.46C19.3237 2.59224 19.2491 2.77161 19.2487 2.95875V5.64837L18.3914 5.85918C16.7129 6.271 15.1069 6.9362 13.6288 7.83189L12.8731 8.29002L10.9812 6.39873C10.8487 6.26672 10.6693 6.1926 10.4823 6.1926C10.2953 6.1926 10.1159 6.26672 9.98348 6.39873L6.38353 9.99845C6.25142 10.1309 6.17724 10.3104 6.17724 10.4975C6.17724 10.6846 6.25142 10.8641 6.38353 10.9966L8.27812 12.891L7.82131 13.6464C6.93119 15.1199 6.26955 16.7198 5.85894 18.3916L5.64814 19.2489H2.95918C2.77204 19.2492 2.59262 19.3236 2.46029 19.456C2.32796 19.5883 2.25351 19.7677 2.25327 19.9548V25.0449C2.25346 25.2321 2.32788 25.4116 2.46021 25.544C2.59254 25.6765 2.77198 25.751 2.95918 25.7513H5.64814L5.85894 26.6086C6.26975 28.2803 6.93138 29.8801 7.82131 31.3536L8.27812 32.1093L6.36857 34.0188C6.23646 34.1512 6.16228 34.3306 6.16228 34.5177C6.16228 34.7047 6.23646 34.8841 6.36857 35.0165L9.96852 38.6165C10.1009 38.7488 10.2804 38.8231 10.4676 38.8231C10.6547 38.8231 10.8343 38.7488 10.9666 38.6165L12.8727 36.71Z" fill="#F9FBFD"/>
</svg>
