<?xml version="1.0" encoding="utf-8"?>
<svg width="80" height="80" viewBox="0 0 80 80" fill="none" xmlns="http://www.w3.org/2000/svg">
<path d="M63.7795 59.9846V34.6421C63.7795 32.316 62.8003 30.1123 61.0867 28.5207L51.4175 19.5835H46.2769V59.8622" fill="#0099A1"/>
<path d="M54.7557 22.6769L51.6958 19.8611H46.5552V37.3682H54.7557V22.6769Z" fill="#01838A"/>
<rect x="16" width="35.4167" height="60" rx="4.69444" fill="#055072"/>
<g filter="url(#filter0_d)">
<path fill-rule="evenodd" clip-rule="evenodd" d="M25.1461 2.36108H21.9201C19.5714 2.36108 17.6675 4.26504 17.6675 6.61369V53.2474C17.6675 55.596 19.5714 57.5 21.9201 57.5H45.4982C47.8469 57.5 49.7508 55.596 49.7508 53.2474V6.6137C49.7508 4.26504 47.8469 2.36108 45.4982 2.36108H42.774V3.47002C42.774 4.42884 41.9968 5.20611 41.038 5.20611H26.8822C25.9233 5.20611 25.1461 4.42884 25.1461 3.47002V2.36108Z" fill="#DA9A28"/>
<rect x="17.6665" y="6.83179" width="32.0509" height="46.3329" fill="#FAB417"/>
<g filter="url(#filter1_d)">
<rect x="26.8325" y="2.36133" width="14.4444" height="1.52778" rx="0.462957" fill="white"/>
</g>
<rect x="27.1484" y="54.8616" width="14.1558" height="1.49024" rx="0.462957" fill="#055072"/>
<path d="M26.2346 18.2405L26.8231 19.4347C27.0584 19.9124 27.4115 20.1512 27.8823 20.2706L29.1768 20.5095L28.2353 21.4648C27.8823 21.8231 27.7646 22.3008 27.8823 22.7784L28.1176 24.0921L26.9408 23.495C26.5877 23.2561 25.9993 23.2561 25.6462 23.495L24.4693 24.0921L24.7047 22.7784C24.8224 22.3008 24.587 21.8231 24.3517 21.4648L23.4102 20.5095L24.7047 20.2706C25.1755 20.1512 25.5285 19.9124 25.7639 19.4347L26.2346 18.2405Z" fill="#E6E7E8"/>
<path d="M33.4129 18.2405L34.0013 19.4347C34.2367 19.9124 34.5897 20.1512 35.0605 20.2706L36.355 20.5095L35.4135 21.4648C35.0605 21.8231 34.9428 22.3008 35.0605 22.7784L35.2959 24.0921L34.119 23.495C33.7659 23.2561 33.1775 23.2561 32.8244 23.495L31.6476 24.0921L31.8829 22.7784C32.0006 22.3008 31.7652 21.8231 31.5299 21.4648L30.5884 20.5095L31.8829 20.2706C32.3537 20.1512 32.7067 19.9124 32.9421 19.4347L33.4129 18.2405Z" fill="#F1F2F2"/>
<path d="M40.7102 18.2405L41.2987 19.4347C41.534 19.9124 41.8871 20.1512 42.3578 20.2706L43.6524 20.5095L42.7109 21.4648C42.3578 21.8231 42.2402 22.3008 42.3578 22.7784L42.5932 24.0921L41.4163 23.495C41.0633 23.2561 40.4749 23.2561 40.1218 23.495L38.9449 24.0921L39.1803 22.7784C39.298 22.3008 39.0626 21.8231 38.8272 21.4648L37.8857 20.5095L39.1803 20.2706C39.651 20.1512 40.0041 19.9124 40.2395 19.4347L40.7102 18.2405Z" fill="#E6E7E8"/>
<path d="M29.7649 25.7637L30.3533 26.9579C30.5887 27.4355 30.9418 27.6744 31.4125 27.7938L32.7071 28.0326L31.7656 28.988C31.4125 29.3462 31.2948 29.8239 31.4125 30.3016L31.6479 31.6152L30.471 31.0181C30.118 30.7793 29.5295 30.7793 29.1765 31.0181L27.9996 31.6152L28.235 30.3016C28.3527 29.8239 28.1173 29.3462 27.8819 28.988L26.9404 28.0326L28.235 27.7938C28.7057 27.6744 29.0588 27.4355 29.2942 26.9579L29.7649 25.7637Z" fill="#F1F2F2"/>
<path d="M37.0598 25.7637L37.6483 26.9579C37.8836 27.4355 38.2367 27.6744 38.7074 27.7938L40.002 28.0326L39.0605 28.988C38.7075 29.3462 38.5898 29.8239 38.7074 30.3016L38.9428 31.6152L37.766 31.0181C37.4129 30.7793 36.8245 30.7793 36.4714 31.0181L35.2945 31.6152L35.5299 30.3016C35.6476 29.8239 35.4122 29.3462 35.1768 28.988L34.2354 28.0326L35.5299 27.7938C36.0007 27.6744 36.3537 27.4355 36.5891 26.9579L37.0598 25.7637Z" fill="#E6E7E8"/>
</g>
<path d="M61.4404 47.8136C60.9748 47.8222 60.5046 47.587 60.0345 47.3519L46.0325 33.2229C45.3205 32.5044 45.2934 31.0417 45.9783 30.2974C46.6632 29.5531 47.8272 29.5315 48.772 30.2456L62.774 44.3747C63.4859 45.0931 63.513 46.5558 62.8282 47.3001C62.5999 47.5482 61.906 47.805 61.4404 47.8136Z" fill="#01838A"/>
<path d="M45.0672 59.9582V58.1218C45.0672 53.2247 46.536 48.5724 49.2287 44.4099L42.0073 37.1866C40.2938 35.4726 40.2938 32.6568 42.0073 30.9428C42.1297 30.8204 42.2521 30.698 42.3745 30.698C44.2104 29.2288 46.7808 29.4737 48.3719 31.0652L63.7938 46.4911V59.9582H45.0672Z" fill="#00B8C2"/>
<defs>
<filter id="filter0_d" x="17.185" y="2.36108" width="33.0473" height="56.1018" filterUnits="userSpaceOnUse" color-interpolation-filters="sRGB">
<feFlood flood-opacity="0" result="BackgroundImageFix"/>
<feColorMatrix in="SourceAlpha" type="matrix" values="0 0 0 0 0 0 0 0 0 0 0 0 0 0 0 0 0 0 127 0"/>
<feOffset dy="0.481481"/>
<feGaussianBlur stdDeviation="0.240741"/>
<feColorMatrix type="matrix" values="0 0 0 0 0 0 0 0 0 0 0 0 0 0 0 0 0 0 0.25 0"/>
<feBlend mode="normal" in2="BackgroundImageFix" result="effect1_dropShadow"/>
<feBlend mode="normal" in="SourceGraphic" in2="effect1_dropShadow" result="shape"/>
</filter>
<filter id="filter1_d" x="26.6254" y="2.36133" width="14.8587" height="2.21637" filterUnits="userSpaceOnUse" color-interpolation-filters="sRGB">
<feFlood flood-opacity="0" result="BackgroundImageFix"/>
<feColorMatrix in="SourceAlpha" type="matrix" values="0 0 0 0 0 0 0 0 0 0 0 0 0 0 0 0 0 0 127 0"/>
<feOffset dy="0.481481"/>
<feGaussianBlur stdDeviation="0.103553"/>
<feColorMatrix type="matrix" values="0 0 0 0 0 0 0 0 0 0 0 0 0 0 0 0 0 0 0.25 0"/>
<feBlend mode="normal" in2="BackgroundImageFix" result="effect1_dropShadow"/>
<feBlend mode="normal" in="SourceGraphic" in2="effect1_dropShadow" result="shape"/>
</filter>
</defs>
</svg>
