<svg width="135" height="135" viewBox="0 0 135 135" fill="none" xmlns="http://www.w3.org/2000/svg">
<rect x="2.5" y="2.5" width="130" height="130" rx="7.5" fill="#D9F4F6" stroke="#CAF0F2" stroke-width="5"/>
<path d="M34.1127 25.0308H23.6659V25.0462H23.0004V35.1061H24.5016V26.5011H34.1127V25.0308Z" fill="#ECAB03" stroke="#ECAB03" stroke-width="0.76244" stroke-miterlimit="10"/>
<path d="M100.447 25H110.893V25.0155H111.559V35.0754H110.058V26.4703H100.447V25Z" fill="#ECAB03" stroke="#ECAB03" stroke-width="0.76244" stroke-miterlimit="10"/>
<path d="M34.1123 109.952H23.6655H23V99.8918H24.5012V108.497H34.1123V109.952Z" fill="#ECAB03" stroke="#ECAB03" stroke-width="0.76244" stroke-miterlimit="10"/>
<path d="M100.445 109.998H110.892V109.983H111.558V99.9229H110.056V108.528H100.445V109.998Z" fill="#ECAB03" stroke="#ECAB03" stroke-width="0.76244" stroke-miterlimit="10"/>
<path d="M32.3961 79.0448H30.2449V102.415H32.3961V79.0448Z" fill="#00B8C2" stroke="#00B8C2" stroke-width="0.76244" stroke-miterlimit="10"/>
<path d="M30.2949 79.0639V81.1378H54.5779V79.0639H30.2949Z" fill="#00B8C2" stroke="#00B8C2" stroke-width="0.76244" stroke-miterlimit="10"/>
<path d="M30.2275 100.322V102.396H54.5106V100.322H30.2275Z" fill="#00B8C2" stroke="#00B8C2" stroke-width="0.76244" stroke-miterlimit="10"/>
<path d="M54.8356 79.0448H52.6843V102.415H54.8356V79.0448Z" fill="#00B8C2" stroke="#00B8C2" stroke-width="0.76244" stroke-miterlimit="10"/>
<path d="M44.8675 87.8356H39.6674V93.1131H44.8675V87.8356Z" fill="#00B8C2" stroke="#00B8C2" stroke-width="0.76244" stroke-miterlimit="10"/>
<path d="M32.397 31.9648H30.2457V55.3347H32.397V31.9648Z" fill="#00B8C2" stroke="#00B8C2" stroke-width="0.76244" stroke-miterlimit="10"/>
<path d="M30.3 31.9798V34.0537H54.5831V31.9798H30.3Z" fill="#00B8C2" stroke="#00B8C2" stroke-width="0.76244" stroke-miterlimit="10"/>
<path d="M30.2325 53.2385V55.3124H54.5156V53.2385H30.2325Z" fill="#00B8C2" stroke="#00B8C2" stroke-width="0.76244" stroke-miterlimit="10"/>
<path d="M54.8356 31.9646H52.6843V55.3345H54.8356V31.9646Z" fill="#00B8C2" stroke="#00B8C2" stroke-width="0.76244" stroke-miterlimit="10"/>
<path d="M44.8696 40.7552H39.6694V46.0328H44.8696V40.7552Z" fill="#00B8C2" stroke="#00B8C2" stroke-width="0.76244" stroke-miterlimit="10"/>
<path d="M81.5348 31.9645H79.3835V55.3344H81.5348V31.9645Z" fill="#00B8C2" stroke="#00B8C2" stroke-width="0.76244" stroke-miterlimit="10"/>
<path d="M79.4426 31.9692V34.0431H103.726V31.9692H79.4426Z" fill="#00B8C2" stroke="#00B8C2" stroke-width="0.76244" stroke-miterlimit="10"/>
<path d="M79.3752 53.243V55.3169H103.658V53.243H79.3752Z" fill="#00B8C2" stroke="#00B8C2" stroke-width="0.76244" stroke-miterlimit="10"/>
<path d="M103.973 31.9645H101.822V55.3344H103.973V31.9645Z" fill="#00B8C2" stroke="#00B8C2" stroke-width="0.76244" stroke-miterlimit="10"/>
<path d="M94.0222 40.7552H88.822V46.0328H94.0222V40.7552Z" fill="#00B8C2" stroke="#00B8C2" stroke-width="0.76244" stroke-miterlimit="10"/>
<path d="M62.2943 31.1444H59.0287V45.2282H62.2943V31.1444Z" fill="#063A4F" stroke="#063A4F" stroke-width="0.19061" stroke-miterlimit="10"/>
<path d="M66.343 45.1197H69.9464V34.7683H66.343H62.0735V38.1724H66.343V45.1197Z" fill="#063A4F" stroke="#063A4F" stroke-width="0.19061" stroke-miterlimit="10"/>
<path d="M73.7006 31.098H70.2338V36.0506H73.7006V31.098Z" fill="#063A4F" stroke="#063A4F" stroke-width="0.19061" stroke-miterlimit="10"/>
<path d="M73.7006 45.4448H70.2338V48.9735H73.7006V45.4448Z" fill="#063A4F" stroke="#063A4F" stroke-width="0.19061" stroke-miterlimit="10"/>
<path d="M73.7006 52.8273H70.2338V56.356H73.7006V52.8273Z" fill="#063A4F" stroke="#063A4F" stroke-width="0.19061" stroke-miterlimit="10"/>
<path d="M69.9094 49.1746H66.4426V52.7033H69.9094V49.1746Z" fill="#063A4F" stroke="#063A4F" stroke-width="0.19061" stroke-miterlimit="10"/>
<path d="M62.3408 49.2832H58.874V52.8119H62.3408V49.2832Z" fill="#063A4F" stroke="#063A4F" stroke-width="0.19061" stroke-miterlimit="10"/>
<path d="M66.1565 42.2037H62.5116V49.0561H66.1565V42.2037Z" fill="#063A4F" stroke="#063A4F" stroke-width="0.19061" stroke-miterlimit="10"/>
<path d="M35.9685 67.36H28.4623V70.7494H35.9685V67.36Z" fill="#063A4F" stroke="#063A4F" stroke-width="0.19061" stroke-miterlimit="10"/>
<path d="M43.4435 60.1324H32.5479V63.5219H43.4435V60.1324Z" fill="#063A4F" stroke="#063A4F" stroke-width="0.19061" stroke-miterlimit="10"/>
<path d="M40.0708 67.2516H40.0863V74.3554H43.5995V67.2516H58.5191V63.8622H40.0708V67.2516Z" fill="#063A4F" stroke="#063A4F" stroke-width="0.19061" stroke-miterlimit="10"/>
<path d="M58.5186 67.5768H51.26V70.9662H58.5186V67.5768Z" fill="#063A4F" stroke="#063A4F" stroke-width="0.19061" stroke-miterlimit="10"/>
<path d="M35.9676 70.9504H32.2842V74.3708H35.9676V70.9504Z" fill="#063A4F" stroke="#063A4F" stroke-width="0.19061" stroke-miterlimit="10"/>
<path d="M51.1661 71.0433H47.4827V74.4637H51.1661V71.0433Z" fill="#063A4F" stroke="#063A4F" stroke-width="0.19061" stroke-miterlimit="10"/>
<path d="M62.5427 56.3715H58.8593V63.336H62.5427V56.3715Z" fill="#063A4F" stroke="#063A4F" stroke-width="0.19061" stroke-miterlimit="10"/>
<path d="M66.1951 63.6609H62.5116V70.6254H66.1951V63.6609Z" fill="#063A4F" stroke="#063A4F" stroke-width="0.19061" stroke-miterlimit="10"/>
<path d="M81.4226 85.3748H85.106V78.1008H92.7825V81.7997H89.3776V88.8726H92.8909V85.5606H96.466V78.1008H100.258V74.7268H96.466V67.1587H103.988V63.7693H96.466V63.63H92.7825V63.7693H85.137V67.1587H92.7825V74.7268H92.5813V70.7029H89.0681V74.7268H85.106V70.8112H81.4226V74.7268H81.4071V78.1008H81.4226V85.3748Z" fill="#063A4F" stroke="#063A4F" stroke-width="0.19061" stroke-miterlimit="10"/>
<path d="M81.3312 59.8849H77.6477V74.4485H81.3312V59.8849Z" fill="#063A4F" stroke="#063A4F" stroke-width="0.19061" stroke-miterlimit="10"/>
<path d="M88.9928 81.7843H85.3093V96.3479H88.9928V81.7843Z" fill="#063A4F" stroke="#063A4F" stroke-width="0.19061" stroke-miterlimit="10"/>
<path d="M62.417 78.3175H58.9038V89.0274H62.417V78.3175Z" fill="#063A4F" stroke="#063A4F" stroke-width="0.19061" stroke-miterlimit="10"/>
<path d="M100.151 92.7728H96.6377V96.7039H92.6602V92.7728H89.1469V100.155H84.9992V92.7728H81.486V96.5801H74.1964V99.8921H81.486V103.467H84.9992H89.1469H92.6602V100H96.6377V100.233H96.452V103.529H104.113V100.233H100.151V100H104.113V96.7039H100.151V92.7728Z" fill="#063A4F" stroke="#063A4F" stroke-width="0.19061" stroke-miterlimit="10"/>
<path d="M66.2102 74.7112H62.697V85.4211H66.2102V74.7112Z" fill="#063A4F" stroke="#063A4F" stroke-width="0.19061" stroke-miterlimit="10"/>
<path d="M77.3836 63.785H73.8704V74.4485H77.3836V63.785Z" fill="#063A4F" stroke="#063A4F" stroke-width="0.19061" stroke-miterlimit="10"/>
<path d="M112.316 68.0101H101.234V71.3841H112.316V68.0101Z" fill="#063A4F" stroke="#063A4F" stroke-width="0.19061" stroke-miterlimit="10"/>
<path d="M73.6848 92.9274H70.0632V89.213H66.3643V103.761H70.0632V96.2395H73.7002L73.6848 92.9274Z" fill="#063A4F" stroke="#063A4F" stroke-width="0.19061" stroke-miterlimit="10"/>
<path d="M77.7711 100.186H74.1805V103.482H77.7711V100.186Z" fill="#063A4F" stroke="#063A4F" stroke-width="0.19061" stroke-miterlimit="10"/>
<path d="M100.212 82.0162H96.6373V85.5604H100.212V82.0162Z" fill="#063A4F" stroke="#063A4F" stroke-width="0.19061" stroke-miterlimit="10"/>
<path d="M104.004 85.5294H100.414V89.0736H104.004V85.5294Z" fill="#063A4F" stroke="#063A4F" stroke-width="0.19061" stroke-miterlimit="10"/>
<path d="M104.004 78.2245H100.414V81.7687H104.004V78.2245Z" fill="#063A4F" stroke="#063A4F" stroke-width="0.19061" stroke-miterlimit="10"/>
<path d="M81.1911 85.5294H77.616V89.0736H81.1911V85.5294Z" fill="#063A4F" stroke="#063A4F" stroke-width="0.19061" stroke-miterlimit="10"/>
<path d="M81.1911 78.2245H77.616V81.7687H81.1911V78.2245Z" fill="#063A4F" stroke="#063A4F" stroke-width="0.19061" stroke-miterlimit="10"/>
<path d="M66.1938 96.4562H62.6187V100H66.1938V96.4562Z" fill="#063A4F" stroke="#063A4F" stroke-width="0.19061" stroke-miterlimit="10"/>
<path d="M62.3877 92.8038H58.8126V96.348H62.3877V92.8038Z" fill="#063A4F" stroke="#063A4F" stroke-width="0.19061" stroke-miterlimit="10"/>
<path d="M69.9245 81.8772H66.3494V85.4214H69.9245V81.8772Z" fill="#063A4F" stroke="#063A4F" stroke-width="0.19061" stroke-miterlimit="10"/>
<path d="M73.7306 78.209H70.1555V81.7532H73.7306V78.209Z" fill="#063A4F" stroke="#063A4F" stroke-width="0.19061" stroke-miterlimit="10"/>
<path d="M73.6542 67.2672H70.0791V70.8114H73.6542V67.2672Z" fill="#063A4F" stroke="#063A4F" stroke-width="0.19061" stroke-miterlimit="10"/>
<path d="M92.7689 59.9003H89.1937V63.4444H92.7689V59.9003Z" fill="#063A4F" stroke="#063A4F" stroke-width="0.19061" stroke-miterlimit="10"/>
<path d="M100.212 59.9003H96.6373V63.4444H100.212V59.9003Z" fill="#063A4F" stroke="#063A4F" stroke-width="0.19061" stroke-miterlimit="10"/>
<path d="M66.1938 89.1511H62.6187V92.6953H66.1938V89.1511Z" fill="#063A4F" stroke="#063A4F" stroke-width="0.19061" stroke-miterlimit="10"/>
<path d="M69.6929 60.0083H66.0094V63.6453H69.6929V60.0083Z" fill="#063A4F" stroke="#063A4F" stroke-width="0.19061" stroke-miterlimit="10"/>
<path d="M58.4872 59.9619H55.0978V63.5989H58.4872V59.9619Z" fill="#063A4F" stroke="#063A4F" stroke-width="0.19061" stroke-miterlimit="10"/>
</svg>
