<?xml version="1.0" encoding="utf-8"?>
<svg width="86" height="70" viewBox="0 0 86 70" fill="none" xmlns="http://www.w3.org/2000/svg">
<g clip-path="url(#clip0)">
<path opacity="0.1" d="M46.4979 70C61.8288 70 74.2569 57.6264 74.2569 42.3628C74.2569 27.0993 61.8288 14.7257 46.4979 14.7257C31.1669 14.7257 18.7388 27.0993 18.7388 42.3628C18.7388 57.6264 31.1669 70 46.4979 70Z" fill="#00B8C2"/>
<path opacity="0.1" d="M20.7859 33.5274C30.0851 33.5274 37.6236 26.0221 37.6236 16.7637C37.6236 7.50537 30.0851 0 20.7859 0C11.4867 0 3.94824 7.50537 3.94824 16.7637C3.94824 26.0221 11.4867 33.5274 20.7859 33.5274Z" fill="#00B8C2"/>
<path d="M63.7353 3.32617H2.92953C2.17302 3.32697 1.44772 3.62653 0.912787 4.15911C0.377854 4.6917 0.0769758 5.41381 0.0761719 6.16699V57.329C0.0761714 58.0827 0.376696 58.8056 0.911717 59.3388C1.44674 59.8721 2.17249 60.172 2.92953 60.1728H6.47838V64.7085H18.5782V60.1728H48.0866V64.7085H57.7051V62.8942H49.9089V60.1728H56.0347V57.905H2.92953C2.77689 57.905 2.6305 57.8446 2.52257 57.7372C2.41463 57.6297 2.354 57.484 2.354 57.332V6.17002C2.354 6.01805 2.41463 5.8723 2.52257 5.76484C2.6305 5.65738 2.77689 5.59701 2.92953 5.59701H63.7353C63.8879 5.59701 64.0343 5.65738 64.1422 5.76484C64.2502 5.8723 64.3108 6.01805 64.3108 6.17002V40.0648H66.5886V6.17002C66.5886 5.41631 66.2881 4.69342 65.7531 4.16018C65.2181 3.62695 64.4923 3.32697 63.7353 3.32617ZM8.30823 60.1728H16.7635V62.8942H8.30064L8.30823 60.1728Z" fill="#055072"/>
<path d="M56.8835 10.1508H14.0604C13.3039 10.1516 12.5786 10.4511 12.0436 10.9837C11.5087 11.5163 11.2078 12.2384 11.207 12.9916V18.3285H13.4849V12.9916C13.4849 12.9163 13.4997 12.8418 13.5287 12.7723C13.5576 12.7028 13.6 12.6396 13.6534 12.5864C13.7069 12.5332 13.7703 12.491 13.8401 12.4622C13.91 12.4334 13.9848 12.4186 14.0604 12.4186H56.8835C56.9591 12.4186 57.0339 12.4334 57.1037 12.4622C57.1735 12.491 57.237 12.5332 57.2904 12.5864C57.3439 12.6396 57.3863 12.7028 57.4152 12.7723C57.4441 12.8418 57.459 12.9163 57.459 12.9916V40.0648H59.7368V12.9916C59.736 12.2384 59.4351 11.5163 58.9002 10.9837C58.3653 10.4511 57.64 10.1516 56.8835 10.1508ZM14.0604 51.0803C13.9848 51.0803 13.91 51.0655 13.8401 51.0367C13.7703 51.0079 13.7069 50.9657 13.6534 50.9125C13.6 50.8593 13.5576 50.7961 13.5287 50.7266C13.4997 50.6571 13.4849 50.5826 13.4849 50.5073V45.8099H11.207V50.5073C11.2078 51.2605 11.5087 51.9826 12.0436 52.5152C12.5786 53.0478 13.3039 53.3474 14.0604 53.3482H56.0346V51.0803H14.0604ZM11.2101 25.3996V38.7389H13.4879V25.3996H11.2101Z" fill="#055072"/>
<path d="M7.76318 16.5143V27.2138H17.2936V16.5143H7.76318ZM15.4713 25.3996H9.58544V18.3285H15.4713V25.3996Z" fill="#055072"/>
<path d="M7.76318 36.9247V47.6242H17.2936V36.9247H7.76318ZM15.4713 45.81H9.58544V38.7389H15.4713V45.81Z" fill="#055072"/>
<path d="M44.9934 23.8877L43.6768 25.1532C42.1196 23.8495 40.1504 23.1348 38.1158 23.1348C36.0813 23.1348 34.1121 23.8495 32.5549 25.1532C32.0888 25.5436 31.6649 25.9814 31.29 26.4594L29.9719 25.1955L27.9157 23.221C27.8296 23.1382 27.7607 23.0393 27.7129 22.93C27.6651 22.8207 27.6395 22.7031 27.6373 22.5839C27.6352 22.4647 27.6567 22.3463 27.7006 22.2353C27.7444 22.1244 27.8098 22.0232 27.893 21.9374C27.9761 21.8516 28.0754 21.783 28.1852 21.7355C28.295 21.6879 28.4132 21.6623 28.5329 21.6602C28.6526 21.6581 28.7716 21.6795 28.883 21.7232C28.9944 21.7668 29.0961 21.8319 29.1822 21.9147L31.2383 23.8877C33.1438 22.2325 35.587 21.3206 38.1158 21.3206C40.6446 21.3206 43.0879 22.2325 44.9934 23.8877Z" fill="#055072"/>
<path d="M44.4284 28.059L42.2827 28.9782C41.9735 28.5127 41.5862 28.1035 41.1377 27.7687L42.187 25.6884C42.2408 25.5818 42.2729 25.4658 42.2816 25.3469C42.2903 25.2281 42.2754 25.1086 42.2378 24.9955C42.2001 24.8823 42.1405 24.7777 42.0622 24.6875C41.9839 24.5973 41.8886 24.5233 41.7816 24.4698C41.6746 24.4163 41.5581 24.3843 41.4386 24.3756C41.3192 24.3669 41.1993 24.3818 41.0856 24.4193C40.972 24.4567 40.8668 24.5161 40.7762 24.5941C40.6857 24.672 40.6114 24.7669 40.5576 24.8735L39.5083 26.9553C38.6942 26.7183 37.8328 26.6923 37.0057 26.8797L36.084 24.7434C35.9898 24.5249 35.8133 24.352 35.5923 24.2618C35.3714 24.1716 35.1237 24.1714 34.9025 24.2612H34.8874C34.7772 24.3081 34.6774 24.3762 34.5937 24.4616C34.51 24.547 34.4441 24.648 34.3996 24.7588C34.3552 24.8696 34.3331 24.988 34.3348 25.1073C34.3364 25.2266 34.3616 25.3444 34.409 25.454L35.3323 27.5903C34.6803 28.0229 34.1406 28.6032 33.7576 29.2836L31.5435 28.5277C31.3148 28.4495 31.0642 28.465 30.8469 28.5707C30.6296 28.6765 30.4634 28.8639 30.3849 29.0916C30.3063 29.3194 30.3219 29.5689 30.4281 29.7852C30.5343 30.0015 30.7225 30.167 30.9513 30.2452L33.1623 31.0011C33.0678 31.6147 33.0905 32.2404 33.2291 32.8456L31.0834 33.7633C30.8632 33.8579 30.6893 34.0352 30.5995 34.2567C30.5097 34.4781 30.5113 34.7259 30.6038 34.9462C30.6964 35.1666 30.8725 35.3417 31.0939 35.4335C31.3153 35.5254 31.5642 35.5266 31.7865 35.437H31.8032L33.9489 34.5178C34.2581 34.9833 34.6454 35.3925 35.0939 35.7273L34.0446 37.8076C33.9908 37.9141 33.9587 38.0301 33.95 38.149C33.9413 38.2679 33.9562 38.3873 33.9938 38.5005C34.0315 38.6137 34.0911 38.7183 34.1694 38.8085C34.2477 38.8987 34.343 38.9727 34.45 39.0262C34.557 39.0797 34.6735 39.1117 34.7929 39.1204C34.9124 39.129 35.0323 39.1142 35.146 39.0767C35.2596 39.0392 35.3647 38.9798 35.4553 38.9019C35.5459 38.824 35.6202 38.729 35.674 38.6225L36.7233 36.5406C37.5374 36.7776 38.3988 36.8037 39.2259 36.6162L40.1476 38.7525C40.2418 38.971 40.4183 39.144 40.6393 39.2342C40.8602 39.3244 41.1079 39.3246 41.329 39.2348H41.3442C41.4544 39.1879 41.5542 39.1198 41.6379 39.0344C41.7216 38.949 41.7875 38.848 41.832 38.7372C41.8764 38.6264 41.8984 38.5079 41.8968 38.3886C41.8952 38.2693 41.87 38.1515 41.8226 38.0419L40.8993 35.9057C41.5513 35.4731 42.091 34.8928 42.474 34.2124L44.6881 34.9683C44.8965 35.0383 45.1233 35.0318 45.3274 34.9502C45.4996 34.8808 45.6464 34.7607 45.7481 34.6059C45.8499 34.4511 45.9016 34.2691 45.8965 34.0842C45.8914 33.8993 45.8296 33.7204 45.7195 33.5714C45.6094 33.4225 45.4561 33.3106 45.2803 33.2508L43.0693 32.4949C43.1638 31.8813 43.1411 31.2555 43.0025 30.6504L45.1482 29.7326C45.2651 29.6907 45.3722 29.6253 45.4629 29.5406C45.5535 29.4559 45.6257 29.3536 45.6752 29.24C45.7246 29.1264 45.7502 29.004 45.7503 28.8802C45.7504 28.7565 45.7251 28.634 45.6759 28.5203C45.6267 28.4066 45.5547 28.3042 45.4642 28.2193C45.3738 28.1344 45.2668 28.0688 45.15 28.0266C45.0331 27.9843 44.9088 27.9664 44.7847 27.9738C44.6606 27.9812 44.5394 28.0138 44.4284 28.0696V28.059ZM41.282 31.3851C41.3024 31.5511 41.3085 31.7185 41.3002 31.8856C41.2742 32.5029 41.0678 33.0993 40.7064 33.6016C40.5503 33.8196 40.3665 34.0168 40.1598 34.1882C39.686 34.5856 39.1049 34.8349 38.4894 34.9048C38.1819 34.9412 37.8708 34.9321 37.5661 34.8776C36.9553 34.7693 36.3892 34.4867 35.9367 34.0642C35.843 33.9779 35.7552 33.8855 35.674 33.7875C35.2747 33.3158 35.0243 32.7373 34.9542 32.1244C34.9337 31.9585 34.9276 31.791 34.936 31.624C34.9619 31.0067 35.1683 30.4103 35.5297 29.908C35.6859 29.6899 35.8696 29.4928 36.0764 29.3214C36.5501 28.9239 37.1312 28.6746 37.7468 28.6048C38.0542 28.5683 38.3654 28.5775 38.6701 28.632C39.2809 28.7403 39.8469 29.0229 40.2995 29.4454C40.3932 29.5316 40.4809 29.6241 40.5622 29.7221C40.9614 30.1937 41.2118 30.7723 41.282 31.3851Z" fill="#055072"/>
<path d="M48.5938 31.7495C48.5962 34.1373 47.7719 36.453 46.2598 38.3065L48.3159 40.281C48.4899 40.4482 48.5901 40.6774 48.5943 40.9181C48.5986 41.1588 48.5067 41.3914 48.3387 41.5646C48.1708 41.7378 47.9406 41.8375 47.6988 41.8418C47.457 41.846 47.2235 41.7545 47.0495 41.5873L44.9933 39.6113C43.0878 41.2665 40.6446 42.1784 38.1158 42.1784C35.587 42.1784 33.1438 41.2665 31.2383 39.6113L29.1822 41.5843C29.0961 41.667 28.9944 41.7321 28.883 41.7758C28.7716 41.8195 28.6526 41.8409 28.5329 41.8388C28.4132 41.8367 28.295 41.8111 28.1852 41.7635C28.0754 41.716 27.9761 41.6474 27.893 41.5616C27.8098 41.4758 27.7444 41.3746 27.7006 41.2636C27.6567 41.1527 27.6352 41.0343 27.6373 40.9151C27.6395 40.7959 27.6651 40.6783 27.7129 40.569C27.7607 40.4597 27.8296 40.3608 27.9157 40.278L29.9719 38.3035C28.4618 36.4489 27.6377 34.1339 27.6377 31.7465C27.6377 29.359 28.4618 27.0441 29.9719 25.1895L31.29 26.4534C30.1048 27.9649 29.4611 29.8274 29.4611 31.745C29.4611 33.6625 30.1048 35.525 31.29 37.0365C31.6649 37.5146 32.0888 37.9523 32.5549 38.3428C34.1121 39.6464 36.0813 40.3612 38.1158 40.3612C40.1504 40.3612 42.1196 39.6464 43.6768 38.3428C44.1453 37.9542 44.5718 37.5179 44.9493 37.0411C46.1344 35.5295 46.7781 33.667 46.7781 31.7495C46.7781 29.832 46.1344 27.9694 44.9493 26.4579C44.5744 25.9799 44.1505 25.5421 43.6844 25.1517L45.0009 23.8862L47.0571 21.9132C47.231 21.746 47.4646 21.6545 47.7064 21.6587C47.9482 21.663 48.1784 21.7627 48.3463 21.9359C48.5143 22.1091 48.6062 22.3417 48.6019 22.5824C48.5977 22.8231 48.4975 23.0523 48.3235 23.2195L46.2674 25.194C47.7765 27.0481 48.598 29.3631 48.5938 31.7495Z" fill="#055072"/>
<path d="M69.6712 58.5098L69.6864 58.5309C69.4207 58.9467 67.4329 59.8735 63.7793 59.8735C60.1256 59.8735 58.1379 58.9467 57.8721 58.5309L57.8873 58.5098H56.0347V58.5309C56.0347 60.7005 60.0497 61.6877 63.7793 61.6877C67.5088 61.6877 71.5238 60.7005 71.5238 58.5309V58.5098H69.6712Z" fill="#FAB417"/>
<path d="M69.6712 54.2765L69.6864 54.2977C69.4207 54.7134 67.4329 55.6402 63.7793 55.6402C60.1256 55.6402 58.1379 54.7134 57.8721 54.2977L57.8873 54.2765H56.0347V54.2977C56.0347 56.4672 60.0497 57.4545 63.7793 57.4545C67.5088 57.4545 71.5238 56.4672 71.5238 54.2977V54.2765H69.6712Z" fill="#FAB417"/>
<path d="M69.6712 49.5897L69.6864 49.6109C69.4207 50.0267 67.4329 50.9534 63.7793 50.9534C60.1256 50.9534 58.1379 50.0267 57.8721 49.6109L57.8873 49.5897H56.0347V49.6109C56.0347 51.7804 60.0497 52.7677 63.7793 52.7677C67.5088 52.7677 71.5238 51.7804 71.5238 49.6109V49.5897H69.6712Z" fill="#FAB417"/>
<path d="M69.7016 42.9465C68.183 42.248 65.9341 41.9185 63.7793 41.9185C61.6244 41.9185 59.3755 42.248 57.8569 42.9465C56.7499 43.4545 56.0347 44.156 56.0347 45.0753V62.7642C56.0347 64.0932 57.5411 64.9792 59.5668 65.4645C62.3418 66.0733 65.2167 66.0733 67.9917 65.4645C70.0174 64.9792 71.5238 64.0932 71.5238 62.7642V45.0753C71.5238 44.1606 70.8086 43.4545 69.7016 42.9465ZM63.7793 43.7327C67.4329 43.7327 69.4207 44.6595 69.6864 45.0753C69.4207 45.491 67.4329 46.4178 63.7793 46.4178C60.1256 46.4178 58.1379 45.491 57.8721 45.0753C58.1379 44.6595 60.1256 43.7327 63.7793 43.7327ZM69.7016 62.7431H69.6712L69.6864 62.7642C69.5437 62.9865 68.9089 63.3554 67.7897 63.6502C65.151 64.2589 62.4075 64.2589 59.7688 63.6502C58.6496 63.3478 58.0148 62.9865 57.8721 62.7642L57.8873 62.7431H57.8569V47.204C59.3755 47.9025 61.6244 48.2321 63.7793 48.2321C65.9341 48.2321 68.183 47.9025 69.7016 47.204V62.7431Z" fill="#FAB417"/>
<path d="M83.5205 51.2618C82.0019 50.5634 79.7529 50.2338 77.5981 50.2338C75.4433 50.2338 73.1943 50.5634 71.6758 51.2618C70.5688 51.7698 69.8535 52.4713 69.8535 53.3906V62.613C69.8535 63.5292 70.5688 64.2353 71.6758 64.7418C73.1943 65.4402 75.4433 65.7698 77.5981 65.7698C79.7529 65.7698 82.0019 65.4402 83.5205 64.7418C84.6275 64.2353 85.3427 63.5323 85.3427 62.613V53.3906C85.3427 52.4759 84.6275 51.7698 83.5205 51.2618ZM77.5981 52.048C81.2517 52.048 83.2395 52.9748 83.5053 53.3906C83.2395 53.8063 81.2517 54.7331 77.5981 54.7331C73.9445 54.7331 71.9567 53.8063 71.691 53.3906C71.9567 52.9748 73.9445 52.048 77.5981 52.048ZM83.4901 62.5919L83.5053 62.613C83.2395 63.0288 81.2517 63.9556 77.5981 63.9556C73.9445 63.9556 71.9567 63.0288 71.691 62.613L71.7061 62.5919H71.6758V60.0549C73.1943 60.7534 75.4433 61.083 77.5981 61.083C79.7529 61.083 82.0019 60.7534 83.5205 60.0549V62.5919H83.4901ZM83.4901 57.905L83.5053 57.9262C83.2395 58.342 81.2517 59.2688 77.5981 59.2688C73.9445 59.2688 71.9567 58.342 71.691 57.9262L71.7061 57.905H71.6758V55.5193C73.1943 56.2178 75.4433 56.5474 77.5981 56.5474C79.7529 56.5474 82.0019 56.2178 83.5205 55.5193V57.905H83.4901Z" fill="#FAB417"/>
</g>
<defs>
<clipPath id="clip0">
<rect width="85.3425" height="70" fill="white"/>
</clipPath>
</defs>
</svg>
