<svg width="26" height="21" viewBox="0 0 26 21" fill="none" xmlns="http://www.w3.org/2000/svg">
<path d="M25.3333 2.74844C24.4036 3.15625 23.4129 3.42656 22.3801 3.55781C23.4426 2.92344 24.2536 1.92656 24.6348 0.725C23.6442 1.31562 22.5504 1.73281 21.3848 1.96563C20.4442 0.964063 19.1036 0.34375 17.6411 0.34375C14.8036 0.34375 12.5192 2.64688 12.5192 5.47031C12.5192 5.87656 12.5536 6.26719 12.6379 6.63906C8.377 6.43125 4.60669 4.38906 2.07388 1.27813C1.63169 2.04531 1.37231 2.92344 1.37231 3.86875C1.37231 5.64375 2.28638 7.21719 3.64888 8.12812C2.82544 8.1125 2.01763 7.87344 1.33325 7.49688C1.33325 7.5125 1.33325 7.53281 1.33325 7.55312C1.33325 10.0437 3.10981 12.1125 5.4395 12.5891C5.02231 12.7031 4.56763 12.7578 4.09575 12.7578C3.76763 12.7578 3.43638 12.7391 3.12544 12.6703C3.7895 14.7 5.67388 16.1922 7.9145 16.2406C6.17075 17.6047 3.95669 18.4266 1.55981 18.4266C1.1395 18.4266 0.736377 18.4078 0.333252 18.3563C2.60356 19.8203 5.29419 20.6562 8.19575 20.6562C17.627 20.6562 22.7833 12.8438 22.7833 6.07187C22.7833 5.84531 22.7754 5.62656 22.7645 5.40938C23.7817 4.6875 24.6364 3.78594 25.3333 2.74844Z" fill="#063A4F"/>
</svg>
