<svg width="350" height="946" viewBox="0 0 350 946" fill="none" xmlns="http://www.w3.org/2000/svg">
<path d="M231.936 605.014C177.662 622.723 120.722 599.014 93.0455 552.363C92.4133 551.802 92.0668 551.408 91.7203 551.013C65.4722 505.198 11.2287 480.766 -41.8139 494.979C-42.2634 495.099 -43.0594 494.825 -43.8555 494.552C-102.157 502.624 -158.85 465.453 -174.619 406.601L-175.228 404.329C-190.998 345.477 -160.485 284.94 -105.959 262.78C-105.242 261.857 -104.854 261.509 -104.404 261.389C-51.5862 247.236 -16.6013 198.896 -16.7775 146.094C-16.6745 145.58 -16.5715 145.065 -16.3047 144.263C-15.6616 90.0242 21.7957 41.0209 77.6526 29.2201C135.532 16.8773 194.702 50.7052 214.213 107.337C237.077 173.786 199.134 244.351 133.28 261.997C132.606 262.177 131.707 262.418 131.032 262.599C107.386 272.344 87.6083 289.334 74.5828 310.846C63.7485 328.849 70.0197 352.253 88.4038 362.427C110.44 374.544 136.124 379.596 161.414 375.985C162.088 375.805 162.987 375.564 163.662 375.383C229.515 357.738 297.658 399.877 311.082 468.856C322.44 527.428 288.172 586.536 231.936 605.014Z" fill="url(#paint0_linear)"/>
<path d="M275.836 790.223C240.199 801.851 202.81 786.282 184.637 755.651C184.222 755.282 183.995 755.023 183.767 754.764C166.532 724.681 130.915 708.638 96.0857 717.971C95.7905 718.05 95.2678 717.87 94.7451 717.69C56.4631 722.99 19.237 698.583 8.88251 659.94L8.48272 658.448C-1.87177 619.804 18.1634 580.054 53.9668 565.503C54.4372 564.898 54.6924 564.669 54.9875 564.59C89.669 555.297 112.641 523.556 112.525 488.885C112.593 488.547 112.66 488.209 112.836 487.682C113.258 452.068 137.853 419.891 174.53 412.143C212.535 404.038 251.388 426.25 264.199 463.436C279.212 507.068 254.297 553.403 211.056 564.989C210.614 565.108 210.023 565.266 209.581 565.385C194.054 571.784 181.067 582.94 172.514 597.065C165.4 608.886 169.518 624.254 181.59 630.934C196.059 638.891 212.924 642.208 229.53 639.837C229.973 639.718 230.563 639.56 231.006 639.441C274.247 627.855 318.991 655.525 327.805 700.818C335.263 739.278 312.762 778.09 275.836 790.223Z" fill="url(#paint1_linear)"/>
<path d="M304.141 908.129C281.251 915.598 257.237 905.598 245.565 885.924C245.299 885.688 245.153 885.521 245.006 885.355C233.937 866.033 211.06 855.729 188.69 861.723C188.5 861.774 188.165 861.658 187.829 861.543C163.241 864.947 139.331 849.271 132.681 824.451L132.424 823.493C125.774 798.673 138.642 773.142 161.638 763.796C161.94 763.407 162.104 763.26 162.293 763.209C184.569 757.241 199.323 736.854 199.249 714.585C199.292 714.368 199.336 714.151 199.448 713.813C199.719 690.938 215.517 670.272 239.074 665.295C263.484 660.09 288.438 674.356 296.666 698.24C306.309 726.264 290.307 756.024 262.534 763.466C262.249 763.542 261.87 763.643 261.586 763.72C251.613 767.83 243.272 774.995 237.779 784.067C233.21 791.66 235.854 801.53 243.608 805.821C252.901 810.931 263.733 813.062 274.399 811.539C274.683 811.463 275.062 811.361 275.347 811.285C303.12 803.843 331.858 821.615 337.519 850.706C342.31 875.408 327.858 900.336 304.141 908.129Z" fill="url(#paint2_linear)"/>
<defs>
<linearGradient id="paint0_linear" x1="450.047" y1="217.931" x2="-98.9742" y2="687.168" gradientUnits="userSpaceOnUse">
<stop stop-color="#F0AA22"/>
<stop offset="1" stop-color="#F05822"/>
</linearGradient>
<linearGradient id="paint1_linear" x1="419.053" y1="536.055" x2="58.5529" y2="844.167" gradientUnits="userSpaceOnUse">
<stop stop-color="#F0AA22"/>
<stop offset="1" stop-color="#F05822"/>
</linearGradient>
<linearGradient id="paint2_linear" x1="396.126" y1="744.882" x2="164.583" y2="942.776" gradientUnits="userSpaceOnUse">
<stop stop-color="#F0AA22"/>
<stop offset="1" stop-color="#F05822"/>
</linearGradient>
</defs>
</svg>
