<svg width="20" height="21" viewBox="0 0 20 21" fill="none" xmlns="http://www.w3.org/2000/svg">
<path d="M11.6328 9.9945L19.7328 1.8945C19.9149 1.68194 20.01 1.40852 19.9992 1.12888C19.9884 0.849242 19.8724 0.583977 19.6746 0.386094C19.4767 0.188211 19.2114 0.0722855 18.9318 0.0614842C18.6521 0.050683 18.3787 0.145801 18.1662 0.327831L10.0662 8.42783L1.96616 0.316719C1.7536 0.13469 1.48019 0.0395727 1.20055 0.0503739C0.920905 0.0611752 0.65564 0.1771 0.457757 0.374982C0.259874 0.572865 0.143948 0.838131 0.133147 1.11777C0.122346 1.39741 0.217464 1.67083 0.399494 1.88339L8.49949 9.9945L0.388382 18.0945C0.272069 18.1941 0.177602 18.3167 0.11091 18.4545C0.044217 18.5924 0.00673853 18.7425 0.000827977 18.8955C-0.00508257 19.0486 0.0207018 19.2012 0.0765624 19.3437C0.132423 19.4863 0.217154 19.6158 0.325438 19.7241C0.433721 19.8324 0.563218 19.9171 0.705801 19.973C0.848384 20.0288 1.00098 20.0546 1.154 20.0487C1.30702 20.0428 1.45717 20.0053 1.59502 19.9386C1.73287 19.8719 1.85544 19.7775 1.95505 19.6612L10.0662 11.5612L18.1662 19.6612C18.3787 19.8432 18.6521 19.9383 18.9318 19.9275C19.2114 19.9167 19.4767 19.8008 19.6746 19.6029C19.8724 19.405 19.9884 19.1398 19.9992 18.8601C20.01 18.5805 19.9149 18.3071 19.7328 18.0945L11.6328 9.9945Z" fill="#F9FBFD"/>
</svg>
