<?xml version="1.0" encoding="utf-8"?>
<svg width="88" height="70" viewBox="0 0 88 70" fill="none" xmlns="http://www.w3.org/2000/svg">
<g clip-path="url(#clip0)">
<path opacity="0.1" d="M50.5278 69.9784C65.7822 69.9784 78.1483 57.6122 78.1483 42.3578C78.1483 27.1034 65.7822 14.7373 50.5278 14.7373C35.2734 14.7373 22.9072 27.1034 22.9072 42.3578C22.9072 57.6122 35.2734 69.9784 50.5278 69.9784Z" fill="#00B8C2"/>
<path opacity="0.1" d="M24.944 33.5281C34.1969 33.5281 41.698 26.0271 41.698 16.7741C41.698 7.52116 34.1969 0.0201416 24.944 0.0201416C15.691 0.0201416 8.18994 7.52116 8.18994 16.7741C8.18994 26.0271 15.691 33.5281 24.944 33.5281Z" fill="#00B8C2"/>
<path d="M42.1033 49.6008V53.1109H0.037213C0.031876 53.1109 0.0267591 53.1088 0.0229853 53.105C0.0192115 53.1012 0.0170898 53.0961 0.0170898 53.0908V49.6008H42.1033Z" fill="#055072"/>
<path d="M50.2375 17.2355C50.1084 17.0937 49.9593 16.9717 49.7948 16.8733L28.0286 3.94128C27.7318 3.76417 27.3926 3.67065 27.0469 3.67065C26.7013 3.67065 26.362 3.76417 26.0652 3.94128L4.29907 16.8776C4.13411 16.976 3.98447 17.098 3.85492 17.2398H3.16211V20.7269C3.1621 20.7295 3.16263 20.732 3.16366 20.7344C3.16468 20.7368 3.16619 20.7389 3.16808 20.7406C3.16997 20.7424 3.1722 20.7437 3.17464 20.7446C3.17708 20.7454 3.17966 20.7458 3.18223 20.7456H8.23316V23.3444H10.1362V44.846H3.16211V48.3374C3.1621 48.34 3.16263 48.3425 3.16366 48.3449C3.16468 48.3472 3.16619 48.3494 3.16808 48.3511C3.16997 48.3529 3.1722 48.3542 3.17464 48.3551C3.17708 48.3559 3.17966 48.3563 3.18223 48.3561H42.1034V44.846H28.4325V23.3444H30.3356V20.7456H39.2833V23.3444H41.1863V27.0226L43.9605 25.3754V23.3487H45.8635V20.7456H50.9159C50.9209 20.7456 50.9256 20.7436 50.9291 20.7401C50.9326 20.7366 50.9346 20.7319 50.9346 20.7269V17.2355H50.2375ZM25.6584 44.846H12.9046V23.3444H14.8048V20.7456H23.7525V23.3444H25.6555L25.6584 44.846ZM8.3539 17.2485L26.896 6.23532C26.9428 6.20705 26.9965 6.1921 27.0512 6.1921C27.1059 6.1921 27.1596 6.20705 27.2065 6.23532L45.7486 17.2485H8.3539Z" fill="#055072"/>
<path d="M77.4929 60.3883V62.4006L76.2539 62.8706H32.3005C32.2983 62.8708 32.296 62.8705 32.294 62.8698C32.2919 62.8691 32.29 62.868 32.2883 62.8665C32.2867 62.865 32.2854 62.8632 32.2845 62.8612C32.2836 62.8592 32.2832 62.857 32.2832 62.8548V59.9384H68.5797C69.8578 60.8775 71.3832 61.4213 72.9671 61.5025C74.551 61.5838 76.124 61.1989 77.4914 60.3954L77.4929 60.3883Z" fill="#FDB515"/>
<path d="M74.2861 32.8641C74.1781 32.7452 74.0531 32.643 73.9152 32.5608L55.7095 21.746C55.4613 21.5979 55.1777 21.5197 54.8887 21.5197C54.5997 21.5197 54.3161 21.5979 54.068 21.746L43.9604 27.7499L41.1863 29.3986L35.868 32.5608C35.7296 32.643 35.6042 32.7452 35.4957 32.8641H34.9136V35.7906C34.9134 35.7927 34.9136 35.795 34.9143 35.797C34.915 35.7991 34.9162 35.8011 34.9176 35.8027C34.9191 35.8043 34.9209 35.8056 34.923 35.8065C34.925 35.8074 34.9272 35.8078 34.9294 35.8078H39.1552V37.9797H40.7464V55.9511H34.9092V58.8704C34.909 58.8726 34.9093 58.8748 34.91 58.8769C34.9107 58.879 34.9118 58.8809 34.9133 58.8826C34.9148 58.8842 34.9166 58.8855 34.9187 58.8864C34.9207 58.8872 34.9229 58.8877 34.9251 58.8877H67.4126C66.6317 58.0431 66.0393 57.0421 65.6748 55.9511H56.0444V37.9725H57.6384V35.8006H65.1214V37.9725H66.714V48.7427C67.3329 47.8556 68.1214 47.0999 69.0339 46.5191V37.9725H70.6265V35.8006H74.8495C74.8541 35.8006 74.8585 35.7988 74.8617 35.7956C74.8649 35.7923 74.8668 35.7879 74.8668 35.7834V32.8641H74.2861ZM53.7316 55.9511H43.062V37.9725H44.6532V35.8006H52.1376V37.9725H53.7288L53.7316 55.9511ZM39.2559 32.8641L41.1863 31.7142L43.9604 30.0655L54.7637 23.6534C54.8026 23.6295 54.8474 23.6168 54.893 23.6168C54.9387 23.6168 54.9835 23.6295 55.0224 23.6534L70.5259 32.8641H39.2559Z" fill="#FDB515"/>
<path d="M87.6794 52.1852C87.6786 52.2016 87.6717 52.2172 87.66 52.2286C87.6482 52.2401 87.6325 52.2467 87.6161 52.247C87.6083 52.2469 87.6005 52.2451 87.5934 52.2419C87.5862 52.2387 87.5797 52.234 87.5744 52.2283C87.569 52.2225 87.5649 52.2157 87.5622 52.2084C87.5595 52.201 87.5583 52.1931 87.5587 52.1852C87.5587 52.1692 87.565 52.1539 87.5763 52.1426C87.5877 52.1312 87.603 52.1249 87.619 52.1249C87.635 52.1249 87.6504 52.1312 87.6617 52.1426C87.673 52.1539 87.6794 52.1692 87.6794 52.1852Z" fill="#055072"/>
<path d="M73.3805 43.4719C71.8743 43.471 70.3879 43.8152 69.0353 44.4781C68.1915 44.8934 67.4105 45.4256 66.7154 46.0592C64.9572 47.6534 63.831 49.8268 63.5426 52.1826C63.2541 54.5384 63.8227 56.9193 65.1444 58.8906C65.3903 59.2555 65.6597 59.6041 65.9507 59.9342C67.0457 61.1763 68.4344 62.1242 69.9901 62.6913C71.5459 63.2584 73.2189 63.4265 74.8563 63.1803C76.4937 62.9341 78.0434 62.2815 79.3635 61.282C80.6837 60.2825 81.7324 58.9682 82.4136 57.4589C83.0949 55.9497 83.387 54.2939 83.2633 52.6427C83.1397 50.9914 82.6042 49.3976 81.7057 48.0067C80.8073 46.6158 79.5745 45.4722 78.1202 44.6806C76.6659 43.8889 75.0363 43.4743 73.3805 43.4748V43.4719ZM77.4928 60.3884C75.8961 61.3274 74.0263 61.6924 72.1936 61.4227C70.3609 61.153 68.6755 60.2648 67.417 58.9056C66.1585 57.5464 65.4024 55.7977 65.2743 53.9498C65.1461 52.1018 65.6536 50.2656 66.7125 48.7456C67.3315 47.8586 68.12 47.1028 69.0325 46.522C69.9436 45.94 70.9617 45.5457 72.0271 45.3621C73.0926 45.1786 74.1839 45.2096 75.2373 45.4533C76.2906 45.697 77.2847 46.1485 78.1613 46.7813C79.0379 47.4141 79.7793 48.2156 80.3422 49.1386C80.9051 50.0617 81.2781 51.0878 81.4393 52.1568C81.6005 53.2259 81.5467 54.3164 81.2811 55.3644C81.0154 56.4124 80.5433 57.3968 79.8923 58.26C79.2413 59.1232 78.4246 59.8478 77.4899 60.3912L77.4928 60.3884Z" fill="#055072"/>
<path d="M71.3856 55.6537C71.4054 55.6924 71.4311 55.7278 71.4618 55.7586L71.7823 56.0791C71.8601 56.1563 71.9653 56.1996 72.0748 56.1996C72.1844 56.1996 72.2895 56.1563 72.3673 56.0791L76.8562 51.5902C76.9334 51.5124 76.9767 51.4073 76.9767 51.2977C76.9767 51.1881 76.9334 51.083 76.8562 51.0052L76.5357 50.6847C76.4579 50.6075 76.3528 50.5642 76.2432 50.5642C76.1336 50.5642 76.0285 50.6075 75.9507 50.6847L72.0885 54.5469L70.8121 53.269C70.7343 53.1919 70.6292 53.1486 70.5196 53.1486C70.41 53.1486 70.3049 53.1919 70.2271 53.269L69.9066 53.5896C69.8294 53.6674 69.7861 53.7725 69.7861 53.8821C69.7861 53.9917 69.8294 54.0968 69.9066 54.1746L71.3856 55.6537Z" fill="#FDB515"/>
</g>
<defs>
<clipPath id="clip0">
<rect width="87.6797" height="70" fill="white"/>
</clipPath>
</defs>
</svg>
