<?xml version="1.0" encoding="utf-8"?>
<svg width="12" height="12" viewBox="0 0 12 12" fill="none" xmlns="http://www.w3.org/2000/svg">
<path opacity="0.5" fill-rule="evenodd" clip-rule="evenodd" d="M6 12C2.6915 12 0 9.3085 0 6C0 2.692 2.6915 0 6 0C9.3085 0 12 2.692 12 6C12 9.3085 9.3085 12 6 12ZM6 1C3.243 1 1 3.243 1 6C1 8.757 3.243 11 6 11C8.757 11 11 8.757 11 6C11 3.243 8.757 1 6 1ZM6.3535 7.3535C6.256 7.451 6.128 7.5 6 7.5C5.872 7.5 5.744 7.451 5.6465 7.3535L3.6465 5.3535C3.451 5.1585 3.451 4.8415 3.6465 4.6465C3.842 4.451 4.158 4.451 4.3535 4.6465L6 6.293L7.6465 4.6465C7.842 4.451 8.158 4.451 8.3535 4.6465C8.549 4.8415 8.549 5.1585 8.3535 5.3535L6.3535 7.3535Z" fill="#063A4F"/>
</svg>
