<?xml version="1.0" encoding="utf-8"?>
<svg width="75" height="70" viewBox="0 0 75 70" fill="none" xmlns="http://www.w3.org/2000/svg">
<g clip-path="url(#clip0)">
<path opacity="0.1" d="M44.5483 70C59.8113 70 72.1845 57.6269 72.1845 42.3638C72.1845 27.1008 59.8113 14.7277 44.5483 14.7277C29.2852 14.7277 16.9121 27.1008 16.9121 42.3638C16.9121 57.6269 29.2852 70 44.5483 70Z" fill="#00B8C2"/>
<path opacity="0.1" d="M18.9487 33.5301C28.2078 33.5301 35.7137 26.0242 35.7137 16.7651C35.7137 7.50598 28.2078 0 18.9487 0C9.68957 0 2.18359 7.50598 2.18359 16.7651C2.18359 26.0242 9.68957 33.5301 18.9487 33.5301Z" fill="#00B8C2"/>
<path d="M37.2544 20.4326C33.1068 20.4326 29.7305 23.8089 29.7305 27.9565C29.7305 32.1041 33.1068 35.4804 37.2544 35.4804C41.402 35.4804 44.7783 32.1041 44.7783 27.9565C44.7783 23.8089 41.402 20.4326 37.2544 20.4326ZM37.2544 32.3806C34.8095 32.3806 32.8157 30.3869 32.8157 27.9565C32.8157 25.5116 34.8095 23.5179 37.2544 23.5179C39.6993 23.5179 41.693 25.5116 41.693 27.9565C41.693 30.4014 39.6993 32.3806 37.2544 32.3806Z" fill="#FAB417"/>
<path d="M52.5791 44.5033C52.4773 44.1104 52.3463 43.7175 52.1717 43.3536C51.1966 41.2289 49.0719 39.7445 46.5979 39.6863C46.5542 39.6863 46.496 39.6863 46.4523 39.6863H28.0719C28.0137 39.6863 27.97 39.6863 27.9118 39.6863C27.8827 39.6863 27.8536 39.6863 27.8099 39.6863C27.1987 39.7154 26.602 39.8173 26.049 40.0064C23.5604 40.8505 21.7559 43.2081 21.7559 45.9877V58.678H52.7538V45.9877C52.7538 45.4929 52.6956 44.9836 52.5791 44.5033ZM49.6685 55.6073H24.8411V46.0023C24.8411 44.3141 26.1509 42.917 27.8099 42.7861C27.839 42.7861 27.8681 42.7861 27.9118 42.7861C27.97 42.7861 28.0137 42.7861 28.0719 42.7861H46.4523C46.496 42.7861 46.5542 42.7861 46.5979 42.7861C48.3006 42.8734 49.6685 44.285 49.6685 46.0023V55.6073Z" fill="#FAB417"/>
<path d="M58.8657 11.2932C54.7181 11.2932 51.3418 14.6695 51.3418 18.8171C51.3418 22.9647 54.7181 26.341 58.8657 26.341C63.0133 26.341 66.3896 22.9647 66.3896 18.8171C66.3896 14.6695 63.0133 11.2932 58.8657 11.2932ZM58.8657 23.2558C56.4208 23.2558 54.427 21.262 54.427 18.8317C54.427 16.3868 56.4208 14.393 58.8657 14.393C61.3106 14.393 63.3044 16.3868 63.3044 18.8317C63.2898 21.262 61.3106 23.2558 58.8657 23.2558Z" fill="#055072"/>
<path d="M74.1905 35.3784C73.5356 32.6716 71.1052 30.6342 68.2092 30.5614C68.151 30.5614 68.1073 30.5614 68.0491 30.5614H49.6832C49.5959 30.5614 49.5086 30.5614 49.4212 30.5614C46.0595 30.6924 43.3672 33.472 43.3672 36.8629V39.6716H46.4524V36.8629C46.4524 35.1747 47.7622 33.7776 49.4212 33.6466C49.5086 33.6321 49.5959 33.6321 49.6832 33.6321H68.0491C68.1073 33.6321 68.151 33.6321 68.2092 33.6321C69.9119 33.7194 71.2799 35.131 71.2799 36.8483V46.4533H56.2903V49.5385H74.3651V36.8483C74.3651 36.3681 74.3069 35.8587 74.1905 35.3784Z" fill="#055072"/>
<path d="M15.4985 11.2932C11.3509 11.2932 7.97461 14.6695 7.97461 18.8171C7.97461 22.9647 11.3509 26.341 15.4985 26.341C19.6461 26.341 23.0224 22.9647 23.0224 18.8171C23.0224 14.6695 19.6461 11.2932 15.4985 11.2932ZM15.4985 23.2558C13.0536 23.2558 11.0599 21.262 11.0599 18.8317C11.0599 16.3868 13.0536 14.393 15.4985 14.393C17.9434 14.393 19.9372 16.3868 19.9372 18.8317C19.9372 21.262 17.9434 23.2558 15.4985 23.2558Z" fill="#055072"/>
<path d="M30.8233 35.3785C30.1684 32.6716 27.738 30.6342 24.842 30.5614C24.7838 30.5614 24.7401 30.5614 24.6819 30.5614H6.31601C6.22869 30.5614 6.14137 30.5614 6.05406 30.5614C2.69231 30.6924 0 33.472 0 36.8629V49.5531H21.7568V46.4678H3.08524V36.8629C3.08524 35.1747 4.39501 33.7776 6.05406 33.6466C6.14137 33.6321 6.22869 33.6321 6.31601 33.6321H24.6819C24.7401 33.6321 24.7838 33.6321 24.842 33.6321C26.2245 33.6903 27.3742 34.6217 27.7672 35.8878H30.9252C30.8961 35.7277 30.8669 35.5531 30.8233 35.3785Z" fill="#055072"/>
</g>
<defs>
<clipPath id="clip0">
<rect width="74.3659" height="70" fill="white"/>
</clipPath>
</defs>
</svg>
