<?xml version="1.0" encoding="utf-8"?>
<svg width="45" height="45" viewBox="0 0 45 45" fill="none" xmlns="http://www.w3.org/2000/svg">
<path d="M15.4715 14.8172L14.1435 20.7503C14.0115 21.3403 14.151 21.9468 14.5255 22.4143C15.1225 23.1593 16.2525 23.3763 17.0816 22.8843L22.3141 19.7888L27.5467 22.8838C27.8547 23.0663 28.2032 23.1628 28.5537 23.1628C29.1482 23.1628 29.7277 22.8828 30.1032 22.4138C30.4777 21.9463 30.6167 21.3403 30.4852 20.7503L29.1572 14.8172L33.7188 10.7976C34.3203 10.2671 34.5403 9.46463 34.2923 8.70262C34.0443 7.94011 33.3943 7.4196 32.5958 7.3441L26.5437 6.77309L24.1307 1.19302C23.8116 0.457006 23.1161 0 22.3141 0C21.5121 0 20.8166 0.457006 20.4981 1.19302L18.0851 6.77309L12.033 7.3441C11.2345 7.4191 10.585 7.93961 10.3365 8.70262C10.089 9.46463 10.3085 10.2676 10.91 10.7981L15.4715 14.8172ZM18.8621 8.70862C19.2256 8.67462 19.5411 8.44511 19.6861 8.11011L22.2941 1.98703L24.9422 8.11011C25.0872 8.44511 25.4032 8.67462 25.7662 8.70862L32.3958 9.29712L27.3902 13.7077C27.1162 13.9492 26.9957 14.3207 27.0752 14.6767L28.5352 21.1458L22.8231 17.7657C22.5086 17.5802 22.1191 17.5802 21.8046 17.7657L16.0955 21.1868L17.5526 14.6762C17.6321 14.3202 17.5116 13.9492 17.2376 13.7072L12.2205 9.33512L18.8621 8.70862Z" fill="#FDB515"/>
<path d="M32.1618 23.8818H12.4665C11.1065 23.8818 10 24.9879 10 26.3479V27.9419C10 29.3019 11.1065 30.4079 12.4665 30.4079H12.5525V44.0001C12.5525 44.5521 13.0005 45.0001 13.5525 45.0001H31.0763C31.6283 45.0001 32.0763 44.5521 32.0763 44.0001V30.4074H32.1623C33.5223 30.4074 34.6288 29.3014 34.6288 27.9414V26.3474C34.6283 24.9879 33.5218 23.8818 32.1618 23.8818ZM30.0758 43.0001H26.4242V35C26.4242 34.448 25.9762 34 25.4242 34C24.8722 34 24.4242 34.448 24.4242 35V43.0001H20.2036V35C20.2036 34.448 19.7556 34 19.2036 34C18.6516 34 18.2036 34.448 18.2036 35V43.0001H14.5521V30.4074H25.6262H28.3762H30.0753V43.0001H30.0758ZM32.6283 27.9419C32.6283 28.1989 32.4193 28.4079 32.1618 28.4079H31.0758H28.3767H25.6267H13.5525H12.4665C12.209 28.4079 12 28.1989 12 27.9419V26.3479C12 26.0909 12.209 25.8819 12.4665 25.8819H32.1623C32.4198 25.8819 32.6288 26.0909 32.6288 26.3479V27.9419H32.6283Z" fill="#F9FBFD"/>
</svg>
