<?xml version="1.0" encoding="utf-8"?>
<svg width="45" height="45" viewBox="0 0 45 45" fill="none" xmlns="http://www.w3.org/2000/svg">
<path d="M8.85438 39.6495C6.59937 39.6495 4.34437 39.6495 2.08937 39.6495C2.44887 40.009 2.81925 40.3794 3.17875 40.7389C3.17875 38.2987 3.17875 35.8585 3.17875 33.4183C3.17875 29.5292 3.17875 25.6293 3.17875 21.7402C3.17875 20.8361 3.17875 19.9319 3.17875 19.0386C2.81925 19.3981 2.44887 19.7685 2.08937 20.128C4.34437 20.128 6.59937 20.128 8.85438 20.128C8.49488 19.7685 8.1245 19.3981 7.765 19.0386C7.765 21.4788 7.765 23.919 7.765 26.3592C7.765 30.2482 7.765 34.1482 7.765 38.0372C7.765 38.9414 7.765 39.8456 7.765 40.7389C7.765 42.1442 9.94375 42.1442 9.94375 40.7389C9.94375 38.2987 9.94375 35.8585 9.94375 33.4183C9.94375 29.5292 9.94375 25.6293 9.94375 21.7402C9.94375 20.8361 9.94375 19.9319 9.94375 19.0386C9.94375 18.4503 9.44264 17.9492 8.85438 17.9492C6.59937 17.9492 4.34437 17.9492 2.08937 17.9492C1.50111 17.9492 1 18.4503 1 19.0386C1 21.4788 1 23.919 1 26.3592C1 30.2482 1 34.1482 1 38.0372C1 38.9414 1 39.8456 1 40.7389C1 41.3272 1.50111 41.8283 2.08937 41.8283C4.34437 41.8283 6.59937 41.8283 8.85438 41.8283C10.2597 41.8283 10.2597 39.6495 8.85438 39.6495Z" fill="#F9FBFD"/>
<path d="M43.9105 39.64C41.6555 39.64 39.4005 39.64 37.1455 39.64C37.505 39.9995 37.8754 40.3699 38.2349 40.7293C38.2349 37.592 38.2349 34.4437 38.2349 31.3063C38.2349 26.2734 38.2349 21.2514 38.2349 16.2185C38.2349 15.0637 38.2349 13.9199 38.2349 12.7652C37.8754 13.1246 37.505 13.495 37.1455 13.8545C39.4005 13.8545 41.6555 13.8545 43.9105 13.8545C43.551 13.495 43.1806 13.1246 42.8212 12.7652C42.8212 15.9025 42.8212 19.0508 42.8212 22.1882C42.8212 27.2211 42.8212 32.2431 42.8212 37.276C42.8212 38.4308 42.8212 39.5746 42.8212 40.7293C42.8212 42.1346 44.9999 42.1346 44.9999 40.7293C44.9999 37.592 44.9999 34.4437 44.9999 31.3063C44.9999 26.2734 44.9999 21.2514 44.9999 16.2185C44.9999 15.0637 44.9999 13.9199 44.9999 12.7652C44.9999 12.1769 44.4988 11.6758 43.9105 11.6758C41.6555 11.6758 39.4005 11.6758 37.1455 11.6758C36.5573 11.6758 36.0562 12.1769 36.0562 12.7652C36.0562 15.9025 36.0562 19.0508 36.0562 22.1882C36.0562 27.2211 36.0562 32.2431 36.0562 37.276C36.0562 38.4308 36.0562 39.5746 36.0562 40.7293C36.0562 41.3176 36.5573 41.8187 37.1455 41.8187C39.4005 41.8187 41.6555 41.8187 43.9105 41.8187C45.3158 41.8187 45.3158 39.64 43.9105 39.64Z" fill="#F9FBFD"/>
<path d="M32.2106 39.6356C29.9556 39.6356 27.7006 39.6356 25.4456 39.6356C25.8051 39.9951 26.1755 40.3655 26.5349 40.725C26.5349 36.5963 26.5349 32.4784 26.5349 28.3497C26.5349 21.7699 26.5349 15.201 26.5349 8.62116C26.5349 7.10693 26.5349 5.6036 26.5349 4.08937C26.1755 4.44887 25.8051 4.81925 25.4456 5.17875C27.7006 5.17875 29.9556 5.17875 32.2106 5.17875C31.8511 4.81925 31.4807 4.44887 31.1212 4.08937C31.1212 8.2181 31.1212 12.3359 31.1212 16.4646C31.1212 23.0445 31.1212 29.6134 31.1212 36.1932C31.1212 37.7074 31.1212 39.2107 31.1212 40.725C31.1212 42.1303 33.3 42.1303 33.3 40.725C33.3 36.5963 33.3 32.4784 33.3 28.3497C33.3 21.7699 33.3 15.201 33.3 8.62116C33.3 7.10693 33.3 5.6036 33.3 4.08937C33.3 3.50111 32.7988 3 32.2106 3C29.9556 3 27.7006 3 25.4456 3C24.8573 3 24.3562 3.50111 24.3562 4.08937C24.3562 8.2181 24.3562 12.3359 24.3562 16.4646C24.3562 23.0445 24.3562 29.6134 24.3562 36.1932C24.3562 37.7074 24.3562 39.2107 24.3562 40.725C24.3562 41.3132 24.8573 41.8143 25.4456 41.8143C27.7006 41.8143 29.9556 41.8143 32.2106 41.8143C33.6159 41.8143 33.6159 39.6356 32.2106 39.6356Z" fill="#FDB515"/>
<path d="M20.5326 39.6467C18.2776 39.6467 16.0226 39.6467 13.7676 39.6467C14.1271 40.0062 14.4975 40.3766 14.857 40.7361C14.857 38.5247 14.857 36.3132 14.857 34.1018C14.857 30.5722 14.857 27.0427 14.857 23.5131C14.857 22.6961 14.857 21.8791 14.857 21.062C14.4975 21.4215 14.1271 21.7919 13.7676 22.1514C16.0226 22.1514 18.2776 22.1514 20.5326 22.1514C20.1731 21.7919 19.8027 21.4215 19.4432 21.062C19.4432 23.2735 19.4432 25.4849 19.4432 27.6963C19.4432 31.2259 19.4432 34.7554 19.4432 38.285C19.4432 39.102 19.4432 39.9191 19.4432 40.7361C19.4432 42.1414 21.622 42.1414 21.622 40.7361C21.622 38.5247 21.622 36.3132 21.622 34.1018C21.622 30.5722 21.622 27.0427 21.622 23.5131C21.622 22.6961 21.622 21.8791 21.622 21.062C21.622 20.4738 21.1209 19.9727 20.5326 19.9727C18.2776 19.9727 16.0226 19.9727 13.7676 19.9727C13.1793 19.9727 12.6782 20.4738 12.6782 21.062C12.6782 23.2735 12.6782 25.4849 12.6782 27.6963C12.6782 31.2259 12.6782 34.7554 12.6782 38.285C12.6782 39.102 12.6782 39.9191 12.6782 40.7361C12.6782 41.3244 13.1793 41.8255 13.7676 41.8255C16.0226 41.8255 18.2776 41.8255 20.5326 41.8255C21.9379 41.8255 21.9379 39.6467 20.5326 39.6467Z" fill="#F9FBFD"/>
</svg>
