<?xml version="1.0" encoding="utf-8"?>
<svg width="89" height="70" viewBox="0 0 89 70" fill="none" xmlns="http://www.w3.org/2000/svg">
<g clip-path="url(#clip0)">
<path opacity="0.1" d="M42.7102 70C57.9737 70 70.3472 57.6265 70.3472 42.363C70.3472 27.0996 57.9737 14.7261 42.7102 14.7261C27.4467 14.7261 15.0732 27.0996 15.0732 42.363C15.0732 57.6265 27.4467 70 42.7102 70Z" fill="#00B8C2"/>
<path opacity="0.1" d="M17.1107 33.527C26.3689 33.527 33.8742 26.0218 33.8742 16.7635C33.8742 7.50529 26.3689 0 17.1107 0C7.85246 0 0.347168 7.50529 0.347168 16.7635C0.347168 26.0218 7.85246 33.527 17.1107 33.527Z" fill="#00B8C2"/>
<path d="M36.303 35.4776C36.2329 34.8364 36.0635 34.2099 35.801 33.6207C35.3074 32.5053 34.5005 31.5572 33.4783 30.8917C32.4561 30.2262 31.2627 29.8719 30.0429 29.8719C28.8232 29.8719 27.6297 30.2262 26.6075 30.8917C25.5853 31.5572 24.7784 32.5053 24.2848 33.6207C24.0223 34.2099 23.853 34.8364 23.7829 35.4776C23.7569 35.7083 23.7441 35.9402 23.7446 36.1724C23.7446 37.8428 24.4082 39.4448 25.5894 40.6259C26.7705 41.8071 28.3725 42.4706 30.0429 42.4706C31.7133 42.4706 33.3153 41.8071 34.4965 40.6259C35.6776 39.4448 36.3412 37.8428 36.3412 36.1724C36.3417 35.9402 36.3289 35.7083 36.303 35.4776ZM33.8712 38.42C33.4046 39.2146 32.7022 39.8441 31.8615 40.2212C31.2908 40.4801 30.6713 40.6133 30.0446 40.6121C28.8671 40.6107 27.7382 40.1423 26.9056 39.3097C26.073 38.477 25.6046 37.3481 25.6032 36.1706C25.6017 35.2588 25.8806 34.3686 26.4022 33.6207C26.8109 33.0366 27.3544 32.5597 27.9867 32.2304C28.619 31.9011 29.3213 31.7292 30.0342 31.7292C30.7471 31.7292 31.4495 31.9011 32.0817 32.2304C32.714 32.5597 33.2576 33.0366 33.6662 33.6207C34.1594 34.3158 34.4411 35.1386 34.4775 35.9901C34.5138 36.8416 34.3033 37.6854 33.8712 38.42Z" fill="#FAB417"/>
<path d="M40.4716 26.1517V28.0086H21.1687V43.6761H19.3101V35.4775H7.62028V43.6761H5.76172V34.781C5.76218 34.4731 5.88481 34.178 6.10268 33.9605C6.32056 33.7429 6.61586 33.6207 6.92375 33.6207H19.3101V27.312C19.3106 27.0041 19.4332 26.709 19.6511 26.4915C19.8689 26.2739 20.1642 26.1517 20.4721 26.1517H40.4716Z" fill="#FAB417"/>
<path d="M20.4721 46.1913C20.3639 46.1914 20.2563 46.1762 20.1525 46.1461C20.1212 46.1913 20.0882 46.2364 20.0534 46.2816H22.2056L22.2472 46.1913H20.4721ZM16.4892 37.3449C14.8193 37.3467 13.2184 38.0109 12.0377 39.1916C10.8569 40.3724 10.1928 41.9733 10.1909 43.6431V43.6796H12.0477V43.6431C12.047 42.8012 12.2858 41.9763 12.7363 41.265C13.1868 40.5537 13.8303 39.9851 14.5917 39.6258C15.3532 39.2665 16.2011 39.1312 17.0366 39.2357C17.8721 39.3402 18.6606 39.6802 19.31 40.2161V38.0101C18.4347 37.5708 17.4685 37.343 16.4892 37.3449Z" fill="#FAB417"/>
<path d="M85.7371 29.9957C85.7372 30.1205 85.7127 30.2441 85.665 30.3595C85.6173 30.4748 85.5473 30.5796 85.4591 30.6679C85.3714 30.7558 85.2671 30.8254 85.1524 30.8728C85.0376 30.9202 84.9146 30.9445 84.7904 30.9441H74.2227V29.0508H84.7644C85.0181 29.0489 85.2624 29.147 85.4444 29.3238C85.6265 29.5006 85.7316 29.742 85.7371 29.9957Z" fill="#FAB417"/>
<path d="M68.0998 22.9714H74.2227V22.9957H87.3142C87.5657 22.9954 87.8068 22.8955 87.9847 22.7178C88.073 22.6297 88.143 22.5249 88.1904 22.4094C88.2378 22.294 88.2618 22.1703 88.2609 22.0456C88.2558 21.7914 88.1506 21.5495 87.9681 21.3725C87.7856 21.1956 87.5406 21.0978 87.2864 21.1006H72.4127V21.1145H40.2787C39.9708 21.1145 39.6755 21.2367 39.4577 21.4543C39.2398 21.6718 39.1172 21.9669 39.1167 22.2748V39.992C39.1172 40.2999 39.2398 40.595 39.4577 40.8125C39.6755 41.0301 39.9708 41.1523 40.2787 41.1523H74.9192C75.2268 41.1518 75.5216 41.0294 75.7391 40.8119C75.9566 40.5944 76.079 40.2996 76.0795 39.992V37.5758H83.2966C83.5475 37.5754 83.788 37.4755 83.9655 37.2981C84.1429 37.1206 84.2428 36.8801 84.2433 36.6292C84.2433 36.3781 84.1435 36.1373 83.966 35.9598C83.7885 35.7823 83.5477 35.6825 83.2966 35.6825H75.1658C75.0415 35.6823 74.9184 35.7068 74.8036 35.7545C74.6888 35.8022 74.5846 35.8722 74.4971 35.9604C74.3343 36.1213 74.2366 36.3365 74.2227 36.5649V39.2972H40.97V22.9696H68.0998V22.9714Z" fill="#FAB417"/>
<path d="M49.8393 24.8386C48.5932 24.8383 47.3749 25.2075 46.3386 25.8996C45.3023 26.5918 44.4945 27.5757 44.0175 28.7269C43.5404 29.8782 43.4155 31.145 43.6586 32.3673C43.9016 33.5895 44.5017 34.7122 45.3828 35.5934C46.264 36.4746 47.3867 37.0746 48.6089 37.3177C49.8312 37.5607 51.0981 37.4358 52.2493 36.9587C53.4005 36.4817 54.3844 35.6739 55.0766 34.6376C55.7687 33.6013 56.1379 32.3831 56.1376 31.1369C56.1357 29.4671 55.4716 27.8661 54.2908 26.6854C53.1101 25.5046 51.5092 24.8405 49.8393 24.8386ZM49.8393 35.5783C48.9609 35.5783 48.1022 35.3178 47.3718 34.8298C46.6414 34.3418 46.0721 33.6481 45.736 32.8366C45.3998 32.025 45.3119 31.132 45.4832 30.2704C45.6546 29.4089 46.0776 28.6175 46.6988 27.9963C47.3199 27.3752 48.1113 26.9522 48.9728 26.7808C49.8344 26.6094 50.7274 26.6974 51.539 27.0335C52.3506 27.3697 53.0442 27.939 53.5322 28.6694C54.0203 29.3998 54.2808 30.2585 54.2808 31.1369C54.2785 32.3138 53.8097 33.4418 52.9771 34.2737C52.1446 35.1056 51.0162 35.5735 49.8393 35.5749V35.5783Z" fill="#FAB417"/>
<path d="M67.6653 30.4942H67.6063C66.8494 30.4942 66.1235 30.7949 65.5883 31.3301C65.0531 31.8653 64.7524 32.5912 64.7524 33.348C64.7524 34.1049 65.0531 34.8308 65.5883 35.366C66.1235 35.9012 66.8494 36.2019 67.6063 36.2019H67.6653C68.4227 36.2019 69.149 35.901 69.6845 35.3655C70.2201 34.83 70.5209 34.1037 70.5209 33.3463C70.5209 32.589 70.2201 31.8626 69.6845 31.3271C69.149 30.7916 68.4227 30.4907 67.6653 30.4907V30.4942ZM67.6653 34.9461H67.6063C67.1963 34.9269 66.8094 34.7506 66.526 34.4536C66.2426 34.1567 66.0845 33.762 66.0845 33.3515C66.0845 32.941 66.2426 32.5464 66.526 32.2494C66.8094 31.9525 67.1963 31.7761 67.6063 31.757H67.6653C68.0887 31.757 68.4947 31.9252 68.7941 32.2245C69.0934 32.5239 69.2616 32.9299 69.2616 33.3533C69.2616 33.7766 69.0934 34.1826 68.7941 34.482C68.4947 34.7814 68.0887 34.9495 67.6653 34.9495V34.9461Z" fill="#FAB417"/>
<path d="M56.2016 52.0309H56.1426C55.3977 52.0493 54.6894 52.3581 54.1691 52.8915C53.6487 53.4248 53.3574 54.1405 53.3574 54.8856C53.3574 55.6308 53.6487 56.3464 54.1691 56.8798C54.6894 57.4131 55.3977 57.722 56.1426 57.7403H56.2016C56.959 57.7403 57.6853 57.4395 58.2208 56.904C58.7564 56.3684 59.0572 55.6421 59.0572 54.8848C59.0572 54.1274 58.7564 53.4011 58.2208 52.8656C57.6853 52.33 56.959 52.0292 56.2016 52.0292V52.0309ZM56.2016 56.4828H56.1426C55.7286 56.4691 55.3361 56.295 55.048 55.9973C54.76 55.6996 54.599 55.3016 54.599 54.8874C54.599 54.4731 54.76 54.0751 55.048 53.7774C55.3361 53.4797 55.7286 53.3056 56.1426 53.292H56.2016C56.625 53.292 57.031 53.4601 57.3304 53.7595C57.6297 54.0589 57.7979 54.4649 57.7979 54.8882C57.7979 55.3116 57.6297 55.7176 57.3304 56.017C57.031 56.3163 56.625 56.4845 56.2016 56.4845V56.4828Z" fill="#FAB417"/>
<path d="M12.7773 52.0309H12.7183C11.9733 52.0493 11.2651 52.3581 10.7447 52.8915C10.2244 53.4248 9.93311 54.1405 9.93311 54.8856C9.93311 55.6308 10.2244 56.3464 10.7447 56.8798C11.2651 57.4131 11.9733 57.722 12.7183 57.7403H12.7773C13.5347 57.7403 14.261 57.4395 14.7965 56.904C15.3321 56.3684 15.6329 55.6421 15.6329 54.8848C15.6329 54.1274 15.3321 53.4011 14.7965 52.8656C14.261 52.33 13.5347 52.0292 12.7773 52.0292V52.0309ZM12.7773 56.4828H12.7183C12.3042 56.4691 11.9118 56.295 11.6237 55.9973C11.3357 55.6996 11.1746 55.3016 11.1746 54.8874C11.1746 54.4731 11.3357 54.0751 11.6237 53.7774C11.9118 53.4797 12.3042 53.3056 12.7183 53.292H12.7773C13.2007 53.292 13.6067 53.4601 13.9061 53.7595C14.2054 54.0589 14.3736 54.4649 14.3736 54.8882C14.3736 55.3116 14.2054 55.7176 13.9061 56.017C13.6067 56.3163 13.2007 56.4845 12.7773 56.4845V56.4828Z" fill="#FAB417"/>
<path d="M20.4718 46.1913C20.3637 46.1914 20.2561 46.1762 20.1522 46.1461C20.121 46.1913 20.088 46.2364 20.0532 46.2816H22.2053L22.247 46.1913H20.4718ZM20.4718 46.1913C20.3637 46.1914 20.2561 46.1762 20.1522 46.1461C20.121 46.1913 20.088 46.2364 20.0532 46.2816H22.2053L22.247 46.1913H20.4718ZM40.8726 46.1913V46.2816H42.7294V46.1913H40.8726ZM20.4718 46.1913C20.3637 46.1914 20.2561 46.1762 20.1522 46.1461C20.121 46.1913 20.088 46.2364 20.0532 46.2816H22.2053L22.247 46.1913H20.4718ZM20.4718 46.1913C20.3637 46.1914 20.2561 46.1762 20.1522 46.1461C20.121 46.1913 20.088 46.2364 20.0532 46.2816H22.2053L22.247 46.1913H20.4718ZM20.4718 46.1913C20.3637 46.1914 20.2561 46.1762 20.1522 46.1461C20.121 46.1913 20.088 46.2364 20.0532 46.2816H22.2053L22.247 46.1913H20.4718Z" fill="#063A4F"/>
<path d="M69.6912 25.8026H65.644V27.4215H69.6912V25.8026Z" fill="#FAB417"/>
<path d="M40.1103 59.684H28.8686C27.637 59.6826 26.4562 59.1929 25.5852 58.3222C24.7142 57.4515 24.224 56.2709 24.2222 55.0394V50.089H27.0621V55.0394C27.0626 55.5183 27.253 55.9775 27.5917 56.3162C27.9304 56.6549 28.3896 56.8454 28.8686 56.8458H40.1103C40.5892 56.8454 41.0484 56.6549 41.3871 56.3162C41.7258 55.9775 41.9162 55.5183 41.9167 55.0394V50.089H44.7567V55.0394C44.7548 56.2709 44.2646 57.4515 43.3936 58.3222C42.5226 59.1929 41.3418 59.6826 40.1103 59.684Z" fill="#FAB417"/>
<path d="M63.2607 7.90665H60.6396C60.5678 7.45836 60.3387 7.05028 59.9933 6.75555C59.648 6.46082 59.209 6.29869 58.755 6.29822H54.4004C53.9464 6.29869 53.5073 6.46082 53.162 6.75555C52.8167 7.05028 52.5876 7.45836 52.5158 7.90665H16.6942C16.6223 7.45836 16.3932 7.05028 16.0479 6.75555C15.7026 6.46082 15.2636 6.29869 14.8096 6.29822H10.455C10.0009 6.29869 9.56194 6.46082 9.2166 6.75555C8.87126 7.05028 8.64216 7.45836 8.57034 7.90665H4.9227C3.63969 7.90803 2.40962 8.41832 1.50239 9.32555C0.595159 10.2328 0.0848754 11.4628 0.0834961 12.7459V57.6379C0.0862546 59.7754 0.936687 61.8244 2.44825 63.3357C3.95981 64.8469 6.00908 65.6969 8.14652 65.6992H60.0368C62.1743 65.6969 64.2235 64.8469 65.7351 63.3357C67.2467 61.8244 68.0971 59.7754 68.0999 57.6379V43.6761H2.69243V12.7459C2.69335 12.1537 2.92898 11.5861 3.34769 11.1674C3.7664 10.7487 4.33403 10.513 4.92617 10.5121H63.2607C63.8528 10.513 64.4204 10.7487 64.8391 11.1674C65.2579 11.5861 65.4935 12.1537 65.4944 12.7459V21.1146H68.0999V12.7459C68.0985 11.4628 67.5882 10.2328 66.681 9.32555C65.7738 8.41832 64.5437 7.90803 63.2607 7.90665ZM20.0535 46.2816C20.0882 46.2364 20.1212 46.1913 20.1525 46.1461C20.2563 46.1762 20.3639 46.1914 20.4721 46.1913H22.2473L22.2056 46.2816H40.8728V46.1913H42.7296V46.2816H65.4944V57.6379C65.4926 59.0846 64.9169 60.4715 63.8938 61.4944C62.8706 62.5172 61.4836 63.0924 60.0368 63.0938H8.15C6.70328 63.0924 5.31619 62.5172 4.29305 61.4944C3.2699 60.4715 2.69427 59.0846 2.69243 57.6379V46.2816H20.0535Z" fill="#055072"/>
<path d="M74.2227 38.4756V38.6041C74.2181 38.5614 74.2181 38.5183 74.2227 38.4756Z" fill="#01838A"/>
</g>
<defs>
<clipPath id="clip0">
<rect width="88.4119" height="70" fill="white"/>
</clipPath>
</defs>
</svg>
