<?xml version="1.0" encoding="utf-8"?>
<svg width="72" height="70" viewBox="0 0 72 70" fill="none" xmlns="http://www.w3.org/2000/svg">
<g clip-path="url(#clip0)">
<path opacity="0.1" d="M44.2393 69.8549C59.4412 69.8549 71.7648 57.5314 71.7648 42.3294C71.7648 27.1275 59.4412 14.804 44.2393 14.804C29.0374 14.804 16.7139 27.1275 16.7139 42.3294C16.7139 57.5314 29.0374 69.8549 44.2393 69.8549Z" fill="#00B8C2"/>
<path opacity="0.1" d="M18.743 33.5295C27.9639 33.5295 35.439 26.0544 35.439 16.8334C35.439 7.61242 27.9639 0.137329 18.743 0.137329C9.52196 0.137329 2.04688 7.61242 2.04688 16.8334C2.04688 26.0544 9.52196 33.5295 18.743 33.5295Z" fill="#00B8C2"/>
<path d="M65.4896 22.196C65.4896 30.8646 64.6406 41.9019 60.8994 48.5411C55.5112 58.1097 45.1053 66.1882 40.8818 69.2019C40.2346 69.6648 39.4588 69.9137 38.6631 69.9137C37.8675 69.9137 37.0917 69.6648 36.4445 69.2019C32.2229 66.1784 21.8151 58.1097 16.4288 48.5411C14.2112 44.6058 13.0112 39.1294 12.3975 33.5097H15.8563C16.4229 38.5666 17.4955 43.447 19.4151 46.8588C24.6092 56.0744 35.2975 64.1588 38.4347 66.4137C38.4991 66.4605 38.5767 66.4858 38.6563 66.4858C38.7359 66.4858 38.8135 66.4605 38.8779 66.4137C42.0288 64.1588 52.7112 56.0823 57.8975 46.8588C62.97 37.8392 62.1151 18.598 61.7308 12.9117C61.7261 12.8603 61.7113 12.8103 61.6873 12.7646C61.6633 12.719 61.6305 12.6785 61.5908 12.6455C61.551 12.6125 61.5052 12.5877 61.4559 12.5725C61.4066 12.5573 61.3547 12.5519 61.3033 12.5568C59.6916 12.7176 57.3975 12.7156 54.4837 12.547C48.0367 12.1744 42.8778 8.82151 40.1073 7.02739C39.6092 6.70386 39.019 6.31955 38.6484 6.11563C38.2778 6.3117 37.6877 6.70386 37.1896 7.02739C34.921 8.5019 31.0484 11.0137 26.1798 12.0784C26.1579 12.015 26.1441 11.9491 26.1386 11.8823L25.8504 9.51366C25.8157 9.22965 25.7459 8.95105 25.6426 8.68425C29.7896 7.73916 33.1484 5.5568 35.323 4.147C36.8779 3.13915 37.7347 2.57837 38.6563 2.57837C39.5779 2.57837 40.421 3.13523 41.9896 4.147C44.672 5.88621 49.1563 8.79798 54.6975 9.12151C57.4308 9.27837 59.5426 9.28621 60.972 9.13915C61.4812 9.08776 61.9956 9.1393 62.4845 9.29069C62.9734 9.44209 63.4269 9.69025 63.818 10.0204C64.2091 10.3506 64.5298 10.7561 64.7611 11.2127C64.9923 11.6693 65.1294 12.1677 65.1641 12.6784C65.3151 15.0058 65.4896 18.3705 65.4896 22.196Z" fill="#055072"/>
<path d="M27.4507 14.4L26.2919 12.3137C26.2496 12.2396 26.2167 12.1606 26.1938 12.0784C26.172 12.015 26.1581 11.9492 26.1527 11.8823L25.8644 9.5137C25.7931 8.93007 25.5742 8.37424 25.2284 7.89873C24.8826 7.42321 24.4212 7.04371 23.888 6.79606L21.7311 5.79214C21.5927 5.72786 21.4682 5.63729 21.3644 5.52547L19.7448 3.78233C19.3432 3.34812 18.8366 3.0246 18.2738 2.84293C17.7109 2.66126 17.1108 2.62756 16.5311 2.74508L14.1939 3.2039C14.0445 3.23526 13.8903 3.23526 13.7409 3.2039L11.4056 2.74508C10.8274 2.62979 10.2293 2.66499 9.6686 2.8473C9.10791 3.02962 8.60347 3.35294 8.20365 3.78625L6.58404 5.52939C6.48061 5.64075 6.35682 5.73127 6.21934 5.79606L4.06247 6.79998C3.5282 7.04624 3.06598 7.42537 2.71996 7.90115C2.37394 8.37692 2.15568 8.93347 2.08601 9.51763L1.79777 11.8863C1.77927 12.0364 1.732 12.1815 1.65855 12.3137L0.499726 14.4C0.212399 14.9131 0.0615234 15.4913 0.0615234 16.0794C0.0615234 16.6675 0.212399 17.2457 0.499726 17.7588L1.65855 19.8451C1.732 19.9773 1.77927 20.1224 1.79777 20.2725L2.08601 22.6392C2.15536 23.2237 2.37348 23.7806 2.71952 24.2568C3.06555 24.7329 3.52794 25.1124 4.06247 25.3588L6.21934 26.3627C6.35692 26.4264 6.48029 26.5171 6.58208 26.6294L8.20365 28.3745C8.60457 28.8062 9.10918 29.1283 9.66958 29.3102C10.23 29.4921 10.8276 29.5277 11.4056 29.4137L12.035 29.2902L13.7409 28.9549C13.8905 28.9255 14.0443 28.9255 14.1939 28.9549L15.4762 29.2059L16.5311 29.4137C16.754 29.4572 16.9805 29.4796 17.2076 29.4804C17.682 29.4797 18.1511 29.3812 18.5857 29.1909C19.0203 29.0006 19.4109 28.7227 19.7331 28.3745L20.0566 28.0235L21.3527 26.6294C21.4559 26.5169 21.5806 26.4263 21.7193 26.3627L23.8762 25.3588C24.4102 25.1122 24.8723 24.733 25.2183 24.2573C25.5642 23.7816 25.7826 23.2252 25.8527 22.6412L26.1409 20.2725C26.1594 20.1224 26.2067 19.9773 26.2801 19.8451L27.4507 17.7588C27.7371 17.2454 27.8875 16.6673 27.8875 16.0794C27.8875 15.4915 27.7371 14.9134 27.4507 14.4ZM25.4507 16.649L24.2938 18.7353C24.0771 19.1251 23.938 19.5533 23.884 19.9961L23.5938 22.3627C23.5713 22.5612 23.4979 22.7504 23.3807 22.9122C23.2636 23.074 23.1067 23.2028 22.9252 23.2863L20.7684 24.2882C20.3621 24.4774 19.9965 24.7438 19.6919 25.0725L18.0703 26.8176C17.9349 26.9643 17.764 27.0736 17.5741 27.1351C17.3842 27.1965 17.1817 27.2081 16.986 27.1686L15.3605 26.8627L14.635 26.7215C14.4155 26.6779 14.1922 26.6556 13.9684 26.6549C13.7439 26.6557 13.52 26.678 13.2997 26.7215L11.9272 26.9921L10.9723 27.1784C10.7763 27.2169 10.5738 27.2049 10.3837 27.1435C10.1937 27.0821 10.0224 26.9733 9.88601 26.8274L8.2664 25.0823C7.96138 24.7541 7.59587 24.4878 7.18993 24.298L5.03306 23.2961C4.8521 23.2117 4.69559 23.0826 4.57828 22.9211C4.46096 22.7595 4.3867 22.5707 4.36247 22.3725L4.05855 20C4.00557 19.5573 3.86705 19.1291 3.65071 18.7392L2.49385 16.6529C2.39556 16.4792 2.3439 16.2829 2.3439 16.0833C2.3439 15.8837 2.39556 15.6875 2.49385 15.5137L3.65071 13.4255C3.86825 13.0333 4.00681 12.6023 4.05855 12.1568L4.34875 9.8039C4.37188 9.60536 4.44572 9.41611 4.56317 9.25437C4.68061 9.09262 4.83771 8.96383 5.01934 8.88037L7.1762 7.87449C7.58252 7.68539 7.94815 7.41899 8.25267 7.09017L9.87228 5.34508C10.0089 5.19887 10.1805 5.0899 10.3709 5.02848C10.5613 4.96707 10.7642 4.95523 10.9605 4.9941L13.2938 5.45096C13.7348 5.53724 14.1882 5.53724 14.6291 5.45096L16.9664 4.99213C17.1622 4.95421 17.3645 4.96671 17.5542 5.02845C17.7438 5.09019 17.9147 5.19915 18.0507 5.34508L19.6723 7.09017C19.9768 7.41899 20.3424 7.68539 20.7488 7.87449L22.9056 8.88037C23.017 8.92855 23.1197 8.9948 23.2095 9.07645C23.4137 9.26468 23.5431 9.52014 23.5742 9.79605L23.8762 12.1568C23.8873 12.2545 23.9043 12.3514 23.9272 12.447C23.9959 12.7903 24.1169 13.1209 24.286 13.4274L25.4429 15.5117C25.539 15.6858 25.5894 15.8815 25.5894 16.0804C25.5894 16.2793 25.539 16.4749 25.4429 16.649H25.4507Z" fill="#FDB515"/>
<path d="M13.8804 11.6705L14.7667 13.4705C14.916 13.7904 15.1381 14.0709 15.4153 14.2894C15.6924 14.508 16.0169 14.6587 16.3628 14.7294L18.3137 15.098L16.8961 16.5372C16.6414 16.7916 16.458 17.1084 16.3644 17.456C16.2708 17.8036 16.2702 18.1697 16.3628 18.5176L16.7177 20.496L14.9431 19.598C14.6485 19.421 14.3113 19.3275 13.9676 19.3275C13.624 19.3275 13.2868 19.421 12.9922 19.598L11.2275 20.496L11.5686 18.5097C11.7451 17.7901 11.3902 17.0686 11.0353 16.5294L9.62354 15.098L11.5745 14.7372C11.9204 14.6665 12.2449 14.5159 12.522 14.2973C12.7992 14.0787 13.0213 13.7982 13.1706 13.4784L13.8804 11.6705Z" fill="#055072"/>
<path d="M38.4404 18.5587C39.0287 20.2666 39.3091 22.1156 39.564 23.894C40.3267 29.2038 40.3483 34.7078 40.0561 40.0803C39.7787 44.8807 39.2394 49.6623 38.4404 54.4038C38.1541 56.1293 40.7934 56.8725 41.0855 55.1333C42.36 47.4195 43.1443 39.5901 42.9287 31.7666C42.8149 27.7097 42.4718 23.598 41.5561 19.6333C41.4285 19.0244 41.2681 18.4229 41.0757 17.8313C40.5051 16.1705 37.8541 16.8842 38.4306 18.5587H38.4404Z" fill="#055072"/>
</g>
<defs>
<clipPath id="clip0">
<rect width="71.7647" height="70" fill="white"/>
</clipPath>
</defs>
</svg>
