<?xml version="1.0" encoding="utf-8"?>
<svg width="70" height="70" viewBox="0 0 70 70" fill="none" xmlns="http://www.w3.org/2000/svg">
<g clip-path="url(#clip0)">
<path opacity="0.1" d="M42.3622 70C57.6261 70 69.9999 57.6262 69.9999 42.3624C69.9999 27.0985 57.6261 14.7247 42.3622 14.7247C27.0984 14.7247 14.7246 27.0985 14.7246 42.3624C14.7246 57.6262 27.0984 70 42.3622 70Z" fill="#00B8C2"/>
<path opacity="0.1" d="M16.7636 33.5272C26.0219 33.5272 33.5272 26.0219 33.5272 16.7636C33.5272 7.50533 26.0219 0 16.7636 0C7.50533 0 0 7.50533 0 16.7636C0 26.0219 7.50533 33.5272 16.7636 33.5272Z" fill="#00B8C2"/>
<path d="M31.3095 11.7559C30.5542 11.7559 29.8047 11.7909 29.0669 11.8607V5.80084C29.8072 5.74554 30.5547 5.7179 31.3095 5.7179C44.886 5.7179 56.4091 14.6724 60.2816 26.9857L55.1386 31.1813C52.8654 20.1079 43.0451 11.7559 31.3095 11.7559Z" fill="#055072"/>
<path d="M61.6742 36.0828C61.6742 52.8187 48.0526 66.4462 31.3094 66.4462C14.5661 66.4462 0.944497 52.8275 0.944497 36.0828C0.939226 31.9085 1.8005 27.7785 3.47381 23.9543L0.59668 21.0757L12.7688 19.7732L11.4663 31.9453L8.14969 28.6316C7.37478 31.0393 6.98194 33.5535 6.98545 36.0828C6.98545 49.4963 17.9002 60.4081 31.3108 60.4081C44.2514 60.4081 54.8663 50.2501 55.5954 37.4886L61.485 32.6861C61.612 33.8138 61.6751 34.9479 61.6742 36.0828Z" fill="#055072"/>
<path d="M38.5567 45.1143C37.9637 45.5988 37.2049 45.8322 36.4422 45.7647C35.6795 45.6973 34.9734 45.3344 34.4746 44.7534L25.2058 33.9696C24.9843 33.7116 24.8158 33.4125 24.7098 33.0894C24.6039 32.7663 24.5627 32.4255 24.5885 32.0864C24.6143 31.7473 24.7067 31.4167 24.8603 31.1133C25.0139 30.8099 25.2257 30.5398 25.4837 30.3183C26.0048 29.871 26.6822 29.6489 27.367 29.7011C28.0517 29.7532 28.6877 30.0752 29.1351 30.5963L36.4116 39.0574C36.5648 39.236 36.7818 39.3476 37.0163 39.3683C37.2507 39.389 37.484 39.3171 37.6661 39.168L64.0914 17.6091C64.3547 17.3942 64.6577 17.2333 64.9832 17.1355C65.3086 17.0377 65.6501 17.0049 65.9883 17.0391C66.3264 17.0733 66.6544 17.1738 66.9537 17.3347C67.253 17.4957 67.5177 17.7141 67.7326 17.9773C67.9475 18.2406 68.1084 18.5436 68.2062 18.8691C68.3041 19.1945 68.3368 19.5361 68.3026 19.8742C68.2684 20.2123 68.168 20.5404 68.007 20.8396C67.846 21.1389 67.6277 21.4036 67.3644 21.6185L38.5567 45.1143Z" fill="#FAB417"/>
</g>
<defs>
<clipPath id="clip0">
<rect width="70" height="70" fill="white"/>
</clipPath>
</defs>
</svg>
