<?xml version="1.0" encoding="utf-8"?>
<svg width="72" height="70" viewBox="0 0 72 70" fill="none" xmlns="http://www.w3.org/2000/svg">
<g clip-path="url(#clip0)">
<path opacity="0.1" d="M46.3981 66.2348C60.0945 66.2348 71.1977 55.1316 71.1977 41.4353C71.1977 27.7389 60.0945 16.6357 46.3981 16.6357C32.7017 16.6357 21.5986 27.7389 21.5986 41.4353C21.5986 55.1316 32.7017 66.2348 46.3981 66.2348Z" fill="#00B8C2"/>
<path opacity="0.1" d="M23.4285 33.5076C31.7362 33.5076 38.4708 26.7729 38.4708 18.4653C38.4708 10.1576 31.7362 3.42297 23.4285 3.42297C15.1209 3.42297 8.38623 10.1576 8.38623 18.4653C8.38623 26.7729 15.1209 33.5076 23.4285 33.5076Z" fill="#00B8C2"/>
<path d="M42.1914 6.4353H10.8711C8.97034 6.43757 7.14808 7.19364 5.80404 8.53768C4.46 9.88172 3.70392 11.704 3.70166 13.6047V18.0546H15.4733V53.984C15.4708 55.2115 15.7108 56.4275 16.1795 57.5621C16.6481 58.6966 17.3363 59.7275 18.2044 60.5954C19.0725 61.4633 20.1034 62.1513 21.2381 62.6198C22.3728 63.0882 23.5888 63.328 24.8163 63.3253H37.94V60.758H29.9816L30.0261 60.6998C30.0877 60.6245 30.1459 60.5458 30.1973 60.4671C30.2486 60.3884 30.2845 60.3524 30.3256 60.2959C30.3855 60.2104 30.4403 60.1248 30.4968 60.0375C30.5327 59.9793 30.5721 59.9228 30.6063 59.8664C30.6662 59.7671 30.7193 59.6661 30.7775 59.5634C30.8048 59.5138 30.8339 59.4642 30.8596 59.4128C30.9383 59.2588 31.0102 59.0996 31.0787 58.9387C31.4434 58.0647 31.6307 57.1269 31.6298 56.1798V54.2972H37.9349V51.7299H29.0643V56.1798C29.0643 56.4089 29.0477 56.6377 29.0146 56.8644C28.9586 57.2385 28.8563 57.6041 28.71 57.9529C28.6946 57.994 28.674 58.0316 28.6569 58.071C28.6398 58.1104 28.6056 58.1874 28.5782 58.2421C28.5508 58.2969 28.5234 58.3448 28.496 58.3945C28.4687 58.4441 28.4498 58.48 28.4259 58.5211C28.4019 58.5622 28.3642 58.6204 28.3334 58.67L28.2581 58.7881C28.2256 58.836 28.1897 58.8805 28.1554 58.9267C28.1212 58.973 28.1007 59.0038 28.0716 59.0397C28.0425 59.0756 27.9997 59.127 27.962 59.1698C27.9244 59.2126 27.9021 59.2434 27.8713 59.2776C27.8405 59.3118 27.7943 59.358 27.755 59.3974C27.7156 59.4368 27.6899 59.4676 27.6557 59.5001C27.6215 59.5326 27.5735 59.5737 27.5325 59.6113L27.4264 59.7072C27.3853 59.7414 27.3408 59.7739 27.298 59.8082C27.2552 59.8424 27.2227 59.8698 27.1833 59.8972C27.144 59.9245 27.0943 59.9588 27.0515 59.9879C27.0087 60.017 26.9694 60.0461 26.9283 60.0717C26.8872 60.0974 26.8376 60.1248 26.7914 60.1522C26.7452 60.1796 26.7058 60.2035 26.6613 60.2275C26.6168 60.2514 26.5689 60.2754 26.5227 60.2976C26.4765 60.3199 26.4303 60.3456 26.3841 60.3661C26.3378 60.3867 26.2882 60.4072 26.2403 60.4277L26.0965 60.4859C26.0486 60.5047 25.999 60.5201 25.9493 60.5373L25.8021 60.5869L25.6515 60.6263C25.6002 60.6399 25.5488 60.6553 25.4975 60.6673L25.3452 60.6964C25.2921 60.7067 25.2391 60.7187 25.186 60.7272L25.032 60.7461C24.9823 60.7461 24.931 60.7598 24.8797 60.7632H24.8163C23.9274 60.7648 23.047 60.5908 22.2254 60.2514C21.4039 59.912 20.6574 59.4137 20.0289 58.7851C19.4003 58.1566 18.902 57.4101 18.5626 56.5886C18.2231 55.767 18.0492 54.8866 18.0508 53.9977V13.6047C18.0508 13.4918 18.0508 13.3788 18.0422 13.2624C18.0422 13.2265 18.0422 13.1888 18.0422 13.1512C18.0422 13.0759 18.032 13.0006 18.0251 12.927C18.0251 12.8825 18.0166 12.8397 18.0114 12.7969C18.0046 12.7285 17.996 12.66 17.9858 12.5915C17.9858 12.547 17.9721 12.5025 17.9652 12.4563C17.9584 12.4101 17.9447 12.3263 17.931 12.2612L17.9053 12.126C17.8916 12.061 17.8762 11.9959 17.8608 11.9309L17.83 11.8008C17.8129 11.7341 17.7941 11.6673 17.7753 11.6023L17.7393 11.4808C17.7171 11.4089 17.6931 11.337 17.6691 11.2668C17.6572 11.2326 17.6469 11.1984 17.6349 11.1659C17.5596 10.9588 17.4757 10.7551 17.3816 10.5549C17.3662 10.5223 17.3508 10.4915 17.3337 10.459C17.3012 10.3923 17.2687 10.3255 17.2327 10.2588C17.2139 10.2211 17.1916 10.1835 17.1711 10.1458C17.1506 10.1082 17.1061 10.0277 17.0701 9.97467L16.9999 9.85999C16.9657 9.80351 16.9298 9.74704 16.8938 9.68884L16.8168 9.57246C16.7792 9.5177 16.7415 9.46464 16.7021 9.41158C16.6628 9.35853 16.6491 9.33628 16.6217 9.30034C16.5943 9.2644 16.5378 9.19081 16.4951 9.13775L16.4129 9.03506L16.3872 9.00254H41.6334C41.7012 8.12531 41.8889 7.26151 42.1914 6.4353ZM15.4801 15.4908H6.27574V13.6082C6.27574 12.3876 6.76062 11.217 7.6237 10.3539C8.48678 9.49084 9.65736 9.00596 10.8779 9.00596C12.0985 9.00596 13.2691 9.49084 14.1322 10.3539C14.9953 11.217 15.4801 12.3876 15.4801 13.6082V15.4908ZM51.7039 19.3999V27.0708H54.2711V18.9326C53.4407 19.2049 52.5769 19.3621 51.7039 19.3999Z" fill="#055072"/>
<path d="M63.4107 42.4536V67.3951H37.9369V32.5475H54.0352V29.9802H35.3696V69.9624H65.9779V42.4536H63.4107Z" fill="#FAB417"/>
<path d="M65.2454 39.8863L56.6024 30.7555L55.8699 29.9802H54.0352V42.4536H65.9779V40.6599L65.2454 39.8863ZM56.6024 39.8863V34.4883L61.7129 39.8863H56.6024Z" fill="#FAB417"/>
<path d="M48.63 20.9315H21.1195C20.714 20.9315 20.3853 21.2602 20.3853 21.6658V22.0081C20.3853 22.4136 20.714 22.7423 21.1195 22.7423H48.63C49.0355 22.7423 49.3642 22.4136 49.3642 22.0081V21.6658C49.3642 21.2602 49.0355 20.9315 48.63 20.9315Z" fill="#055072"/>
<path d="M21.1195 31.2004H32.4598V33.0129H21.1195C20.925 33.012 20.7388 32.9344 20.6013 32.7969C20.4638 32.6594 20.3862 32.4731 20.3853 32.2787V31.9364C20.3857 31.7416 20.4632 31.555 20.6007 31.4171C20.7382 31.2792 20.9247 31.2013 21.1195 31.2004Z" fill="#055072"/>
<path d="M32.4598 41.2982V43.1107H21.1195C20.925 43.1098 20.7388 43.0321 20.6013 42.8946C20.4638 42.7571 20.3862 42.5709 20.3853 42.3765V42.0342C20.3862 41.8397 20.4638 41.6535 20.6013 41.516C20.7388 41.3785 20.925 41.3008 21.1195 41.2999L32.4598 41.2982Z" fill="#055072"/>
<path d="M0.0581055 38.3238L0.0581055 38.5223C0.0581055 38.9467 0.402155 39.2908 0.826563 39.2908H7.74612C8.17053 39.2908 8.51459 38.9467 8.51459 38.5223V38.3238C8.51459 37.8994 8.17053 37.5553 7.74612 37.5553H0.826563C0.402155 37.5553 0.0581055 37.8994 0.0581055 38.3238Z" fill="#FAB417"/>
<path d="M4.30842 48.2354L4.4488 48.3758C4.7489 48.6759 5.23547 48.6759 5.53557 48.3758L10.4284 43.4829C10.7285 43.1828 10.7285 42.6963 10.4284 42.3962L10.2881 42.2558C9.98795 41.9557 9.50139 41.9557 9.20129 42.2558L4.30842 47.1487C4.00832 47.4488 4.00832 47.9353 4.30842 48.2354Z" fill="#FAB417"/>
<path d="M10.286 34.5336L10.4263 34.3932C10.7264 34.0931 10.7264 33.6066 10.4263 33.3065L5.53348 28.4136C5.23337 28.1135 4.74681 28.1135 4.44671 28.4136L4.30632 28.554C4.00622 28.8541 4.00622 29.3407 4.30632 29.6408L9.19919 34.5336C9.49929 34.8337 9.98585 34.8337 10.286 34.5336Z" fill="#FAB417"/>
<path d="M51.2678 0.0872811C48.8346 0.0877068 46.4911 1.0059 44.7052 2.65852C42.9194 4.31114 41.8226 6.57657 41.6338 9.00244C41.6167 9.24889 41.6064 9.49706 41.6064 9.74865C41.6092 12.3102 42.6279 14.766 44.4392 16.5773C46.2505 18.3885 48.7063 19.4073 51.2678 19.41C51.4133 19.41 51.5605 19.41 51.7043 19.3997C52.5773 19.362 53.4411 19.2048 54.2715 18.9325C56.4573 18.2185 58.3168 16.7484 59.5158 14.7863C60.7147 12.8242 61.1746 10.4987 60.8127 8.22795C60.4507 5.95717 59.2907 3.88993 57.5412 2.39776C55.7917 0.905598 53.5673 0.0863566 51.2678 0.0872811ZM54.2715 16.7384C53.4579 17.0892 52.5889 17.2937 51.7043 17.3425C51.5605 17.3528 51.415 17.3562 51.2678 17.3562C49.252 17.354 47.3194 16.5527 45.8934 15.1279C44.4674 13.7032 43.6643 11.7713 43.6602 9.75549C43.6602 9.5039 43.6722 9.25403 43.6962 9.00929C43.8279 7.67414 44.3103 6.39756 45.0946 5.30902C45.8788 4.22049 46.937 3.35871 48.1618 2.81108C49.3866 2.26346 50.7344 2.04947 52.0685 2.19082C53.4027 2.33217 54.6758 2.82383 55.7586 3.61594C56.8414 4.40804 57.6955 5.47242 58.2343 6.70112C58.773 7.92983 58.9773 9.27915 58.8263 10.6123C58.6753 11.9454 58.1744 13.2148 57.3745 14.2919C56.5746 15.369 55.5041 16.2154 54.2715 16.7452V16.7384Z" fill="#ECAB03"/>
<path d="M49.3692 12.2611C49.3921 12.3052 49.4215 12.3456 49.4565 12.3809L49.8245 12.7489C49.9139 12.8376 50.0348 12.8874 50.1608 12.8874C50.2868 12.8874 50.4077 12.8376 50.4971 12.7489L55.6555 7.59044C55.7443 7.501 55.7941 7.38012 55.7941 7.25413C55.7941 7.12814 55.7443 7.00726 55.6555 6.91782L55.2807 6.55156C55.2367 6.50722 55.1843 6.47202 55.1266 6.448C55.0688 6.42399 55.0069 6.41162 54.9444 6.41162C54.8819 6.41162 54.82 6.42399 54.7623 6.448C54.7046 6.47202 54.6522 6.50722 54.6081 6.55156L50.1771 10.9878L48.7086 9.521C48.6647 9.47671 48.6124 9.44155 48.5549 9.41755C48.4973 9.39356 48.4355 9.38121 48.3732 9.38121C48.3108 9.38121 48.249 9.39356 48.1914 9.41755C48.1339 9.44155 48.0816 9.47671 48.0377 9.521L47.6697 9.88726C47.6254 9.93132 47.5902 9.98372 47.5662 10.0414C47.5422 10.0992 47.5298 10.161 47.5298 10.2236C47.5298 10.2861 47.5422 10.348 47.5662 10.4057C47.5902 10.4634 47.6254 10.5158 47.6697 10.5599L49.3692 12.2611Z" fill="#055072"/>
<path d="M48.3431 81.3687V91.8113H44.8256V65.1369H54.6636C57.5827 65.1369 59.8666 65.8819 61.5154 67.372C63.1765 68.862 64.007 70.8345 64.007 73.2894C64.007 75.8787 63.1948 77.8756 61.5704 79.2802C59.9582 80.6725 57.6437 81.3687 54.627 81.3687H48.3431ZM48.3431 78.4924H54.6636C56.5445 78.4924 57.9857 78.0527 58.9872 77.1733C59.9887 76.2818 60.4895 74.9993 60.4895 73.3261C60.4895 71.7383 59.9887 70.4681 58.9872 69.5155C57.9857 68.5628 56.6117 68.0682 54.8652 68.0315H48.3431V78.4924ZM44.8256 135.811V109.137H52.3553C54.6758 109.137 56.7277 109.65 58.5109 110.676C60.2941 111.702 61.6681 113.161 62.633 115.054C63.6101 116.947 64.1047 119.121 64.1169 121.576V123.28C64.1169 125.796 63.6284 128.001 62.6513 129.894C61.6864 131.787 60.3002 133.24 58.4926 134.254C56.6972 135.268 54.6026 135.787 52.2087 135.811H44.8256ZM48.3431 112.032V132.935H52.0438C54.7552 132.935 56.8621 132.092 58.3643 130.407C59.8788 128.721 60.6361 126.321 60.6361 123.207V121.65C60.6361 118.621 59.9216 116.27 58.4926 114.596C57.0758 112.911 55.0606 112.056 52.4469 112.032H48.3431ZM59.5368 168.031H48.3431V179.811H44.8256V153.137H61.3505V156.032H48.3431V165.155H59.5368V168.031Z" fill="#055072"/>
<path d="M53.2888 44.2574H39.6927C39.4763 44.2574 39.3008 44.4329 39.3008 44.6494V45.0054C39.3008 45.2218 39.4763 45.3973 39.6927 45.3973H53.2888C53.5053 45.3973 53.6807 45.2218 53.6807 45.0054V44.6494C53.6807 44.4329 53.5053 44.2574 53.2888 44.2574Z" fill="#055072"/>
<path d="M47.3585 41.4489H39.6927C39.4763 41.4489 39.3008 41.6243 39.3008 41.8408V42.1968C39.3008 42.4132 39.4763 42.5887 39.6927 42.5887H47.3585C47.5749 42.5887 47.7504 42.4132 47.7504 42.1968V41.8408C47.7504 41.6243 47.5749 41.4489 47.3585 41.4489Z" fill="#055072"/>
</g>
<defs>
<clipPath id="clip0">
<rect width="71.198" height="70" fill="white"/>
</clipPath>
</defs>
</svg>
