<?xml version="1.0" encoding="utf-8"?>
<svg width="74" height="70" viewBox="0 0 74 70" fill="none" xmlns="http://www.w3.org/2000/svg">
<g clip-path="url(#clip0)">
<path opacity="0.1" d="M46.3705 69.9795C61.366 69.9795 73.5223 57.8232 73.5223 42.8277C73.5223 27.8322 61.366 15.6759 46.3705 15.6759C31.375 15.6759 19.2188 27.8322 19.2188 42.8277C19.2188 57.8232 31.375 69.9795 46.3705 69.9795Z" fill="#00B8C2"/>
<path opacity="0.1" d="M21.2218 34.1488C30.3178 34.1488 37.6916 26.7751 37.6916 17.679C37.6916 8.58301 30.3178 1.20923 21.2218 1.20923C12.1257 1.20923 4.75195 8.58301 4.75195 17.679C4.75195 26.7751 12.1257 34.1488 21.2218 34.1488Z" fill="#00B8C2"/>
<path d="M18.335 51.3744H18.6593V54.1319H18.335C16.2516 54.1306 14.2075 53.5649 12.42 52.4949C10.6324 51.4249 9.16812 49.8905 8.18279 48.0549C8.09664 47.892 7.96784 47.7556 7.81017 47.6602C7.6525 47.5649 7.47188 47.5141 7.28761 47.5134H0.0117188V44.7589H8.14756C8.61304 44.7622 9.06762 44.9002 9.45641 45.1562C9.84519 45.4121 10.1516 45.7752 10.3386 46.2015C11.0347 47.7402 12.1586 49.0464 13.5764 49.9641C14.9943 50.8818 16.6461 51.3724 18.335 51.3774V51.3744Z" fill="#055072"/>
<path d="M38.3704 0.0205078V4.37166H67.7205V63.4373H24.4893V38.1375H20.6914V67.7899H71.5243V0.0205078H38.3704ZM24.4893 21.1629H20.6914V30.9643H24.4937L24.4893 21.1629Z" fill="#FAB417"/>
<path d="M35.66 0.0205078L34.5755 1.34126L21.7715 16.8102L20.6914 18.1237V21.1629H38.3748V0.0205078H35.66ZM34.5755 16.8102H27.0017L34.5681 7.66328L34.5755 16.8102Z" fill="#FAB417"/>
<path d="M56.6325 13.3191C55.6002 13.3166 54.5813 13.5522 53.6549 14.0074C53.0768 14.2919 52.5413 14.6559 52.0641 15.0889C50.8932 16.1556 50.1322 17.5982 49.913 19.1669C49.6938 20.7356 50.0301 22.3315 50.8637 23.6783C51.6973 25.0252 52.9757 26.038 54.4774 26.5415C55.9792 27.045 57.6098 27.0074 59.0867 26.4352C60.5637 25.863 61.794 24.7923 62.5647 23.4085C63.3353 22.0246 63.5976 20.4149 63.3063 18.858C63.015 17.3011 62.1883 15.8951 60.9695 14.8835C59.7506 13.872 58.2164 13.3185 56.6325 13.3191ZM52.7876 23.6547C52.2856 23.1099 51.9041 22.4653 51.6679 21.7631C51.2563 20.5349 51.3138 19.1978 51.8293 18.0095C52.3447 16.8211 53.2817 15.8655 54.4597 15.3268C55.6378 14.7881 56.9734 14.7044 58.2095 15.0918C59.4456 15.4792 60.4946 16.3103 61.1544 17.425C61.8142 18.5397 62.0382 19.8591 61.7832 21.1291C61.5282 22.3991 60.8122 23.5298 59.7733 24.3034C58.7343 25.077 57.4458 25.4388 56.156 25.319C54.8662 25.1993 53.6664 24.6064 52.7876 23.6547Z" fill="#055072"/>
<path d="M59.0786 18.3952L58.8644 18.1824C58.8217 18.1397 58.771 18.1058 58.7153 18.0826C58.6595 18.0595 58.5997 18.0476 58.5393 18.0476C58.4789 18.0476 58.4191 18.0595 58.3634 18.0826C58.3076 18.1058 58.2569 18.1397 58.2143 18.1824L55.765 20.6258L55.043 19.9038C54.9564 19.8182 54.8396 19.7702 54.7179 19.7702C54.5962 19.7702 54.4794 19.8182 54.3929 19.9038L54.1801 20.118C54.0941 20.2044 54.0459 20.3213 54.0459 20.4431C54.0459 20.5649 54.0941 20.6818 54.1801 20.7681L55.1486 21.7352C55.1669 21.7676 55.1897 21.7972 55.2161 21.8233L55.4304 22.0375C55.5169 22.1231 55.6337 22.1711 55.7554 22.1711C55.8772 22.1711 55.994 22.1231 56.0805 22.0375L59.0727 19.0453C59.1595 18.9597 59.2088 18.8433 59.2099 18.7215C59.211 18.5996 59.1638 18.4823 59.0786 18.3952Z" fill="#FDB515"/>
<path d="M61.0891 45.9153H31.1241C30.8031 45.9153 30.543 46.1755 30.543 46.4964V47.2801C30.543 47.601 30.8031 47.8612 31.1241 47.8612H61.0891C61.41 47.8612 61.6702 47.601 61.6702 47.2801V46.4964C61.6702 46.1755 61.41 45.9153 61.0891 45.9153Z" fill="#055072"/>
<path d="M53.7354 54.1876H31.1241C30.8031 54.1876 30.543 54.4478 30.543 54.7688V55.5524C30.543 55.8734 30.8031 56.1335 31.1241 56.1335H53.7354C54.0564 56.1335 54.3166 55.8734 54.3166 55.5524V54.7688C54.3166 54.4478 54.0564 54.1876 53.7354 54.1876Z" fill="#055072"/>
<path d="M61.2719 37.8264H40.8663C40.5453 37.8264 40.2852 38.0866 40.2852 38.4075V39.1912C40.2852 39.5121 40.5453 39.7723 40.8663 39.7723H61.2719C61.5929 39.7723 61.8531 39.5121 61.8531 39.1912V38.4075C61.8531 38.0866 61.5929 37.8264 61.2719 37.8264Z" fill="#055072"/>
<path d="M48.0372 29.9209H41.0518C40.7309 29.9209 40.4707 30.1811 40.4707 30.502V31.2857C40.4707 31.6066 40.7309 31.8668 41.0518 31.8668H48.0372C48.3581 31.8668 48.6183 31.6066 48.6183 31.2857V30.502C48.6183 30.1811 48.3581 29.9209 48.0372 29.9209Z" fill="#055072"/>
<path d="M28.4461 29.9576H14.81C13.3508 29.9599 11.9206 30.3656 10.6775 31.1299C9.43438 31.8941 8.42677 32.9872 7.76602 34.2882C7.68059 34.4523 7.55151 34.5895 7.39303 34.6848C7.23455 34.7801 7.05282 34.8297 6.8679 34.8283H0.0117188V37.5857H7.93624C8.42365 37.5899 8.90094 37.4467 9.30553 37.1748C9.71012 36.903 10.0231 36.5153 10.2035 36.0625C10.3695 35.6251 10.5899 35.2105 10.8595 34.8283C11.3006 34.1865 11.8891 33.6597 12.5757 33.292C13.2623 32.9243 14.0269 32.7265 14.8056 32.7151H28.4916C28.9671 32.709 29.428 32.8796 29.785 33.1938C30.1421 33.508 30.3698 33.9435 30.4243 34.4159C30.4492 34.6776 30.4192 34.9416 30.3363 35.191C30.2533 35.4404 30.1192 35.6698 29.9426 35.8644C29.7659 36.059 29.5506 36.2146 29.3103 36.3212C29.0701 36.4279 28.8102 36.4832 28.5474 36.4836H17.8346V39.2411H28.5474C29.7645 39.2394 30.9324 38.7604 31.8003 37.9071C32.6682 37.0537 33.1668 35.8941 33.1891 34.6771C33.2375 32.0811 31.0436 29.9576 28.4461 29.9576Z" fill="#055072"/>
</g>
<defs>
<clipPath id="clip0">
<rect width="73.522" height="70" fill="white"/>
</clipPath>
</defs>
</svg>
